<?xml version="1.0" standalone="no"?>
<!DOCTYPE svg PUBLIC "-//W3C//DTD SVG 1.1//EN" "http://www.w3.org/Graphics/SVG/1.1/DTD/svg11.dtd" >
<svg xmlns="http://www.w3.org/2000/svg" xmlns:xlink="http://www.w3.org/1999/xlink" version="1.1">
<metadata>
Created by FontForge 20170924 at Sat Nov  9 00:01:05 2019
 By www-data
Copyright (c) 2018 by Kyle Wayne Benson. All rights reserved. |DCNT
</metadata>
<defs>
<font id="Gooper-SemiBoldItalic" horiz-adv-x="1290" >
  <font-face 
    font-family="Gooper SemiBold"
    font-weight="600"
    font-style="italic"
    font-stretch="normal"
    units-per-em="2048"
    panose-1="0 0 5 0 0 0 0 0 0 0"
    ascent="1616"
    descent="-432"
    x-height="1090"
    cap-height="1442"
    bbox="-481 -560 2413 1843.09"
    underline-thickness="102"
    underline-position="-204"
    slope="-13"
    unicode-range="U+0020-25FC"
  />
<missing-glyph horiz-adv-x="748" 
d="M68 0v1365h544v-1365h-544zM136 68h408v1229h-408v-1229z" />
    <glyph glyph-name=".notdef" horiz-adv-x="748" 
d="M68 0v1365h544v-1365h-544zM136 68h408v1229h-408v-1229z" />
    <glyph glyph-name="glyph1" horiz-adv-x="0" 
 />
    <glyph glyph-name="glyph2" horiz-adv-x="682" 
 />
    <glyph glyph-name="space" unicode=" " horiz-adv-x="458" 
 />
    <glyph glyph-name="exclam" unicode="!" horiz-adv-x="649" 
d="M-20 131q0 96 69 165t184 69q82 0 129.5 -43t47.5 -117q0 -102 -69.5 -170t-182.5 -68q-74 0 -126 45.5t-52 118.5zM166 557q2 30 7 60t17 76t23.5 88.5t27.5 105.5t29 119q9 42 18.5 95t15.5 86.5t14.5 74t16 65.5t19.5 54t25.5 45.5t33 33t44 25t56.5 13.5t71 5
q157 -1 187 -72q30 -68 -42 -243q-35 -88 -137 -297q-29 -67 -59.5 -145t-45.5 -116.5t-36.5 -81t-41.5 -60t-51 -28.5t-75 -11q-34 1 -57 7.5t-36.5 21t-19.5 32t-4 47.5z" />
    <glyph glyph-name="quotedbl" unicode="&#x22;" horiz-adv-x="751" 
d="M171 899q0 14 4 40.5t8 47.5t10.5 58t11.5 67q4 27 12 76q5 36 8 52.5l8 44t8.5 39.5t10.5 32.5t14 28.5t17 21t22 17.5t27.5 10.5t34 8t41.5 2q51 0 80 -10.5t41.5 -29.5t9.5 -55t-14 -77.5t-31 -105.5q-11 -35 -17 -54q-10 -32 -22 -75.5t-18 -64.5t-15.5 -50
t-18 -41.5t-21.5 -28t-28.5 -21t-37 -10t-50.5 -4.5q-23 0 -39.5 2.5t-27.5 10t-17.5 15.5t-8.5 24t-2 30zM531 899q0 14 4 40.5t8 47.5t10.5 58t11.5 67q27 177 31 192q20 90 66 118q37 22 106 22q43 0 70.5 -7t42 -21.5t18 -37t-1.5 -53.5t-16.5 -71.5t-26.5 -90.5
q-4 -11 -5.5 -17t-4.5 -16t-6 -18q-9 -31 -21.5 -75.5t-18.5 -64.5t-16 -49.5t-18 -41.5t-21.5 -28t-29 -21.5t-37 -10t-49.5 -4.5q-23 0 -39.5 2.5t-27.5 10t-18 15.5t-9 24t-2 30z" />
    <glyph glyph-name="numbersign" unicode="#" horiz-adv-x="1527" 
d="M63 367q1 62 5.5 93t22 51t44.5 25t80 5h20q25 0 35.5 -0.5t26 2t20 1.5t13.5 6t10 7.5t6 13.5t5.5 16.5t5.5 24.5q9 42 18 72q7 24 15.5 50t14.5 37.5t5.5 23.5t-1.5 15.5t-17 7t-30 3.5h-51q-73 0 -94 12t-20 64q0 59 6.5 91.5t26.5 49.5t45 21t75 4q23 0 50 -0.5
t35.5 -2.5t22.5 2.5t16 6.5t9.5 17t9 26t9 43t14.5 59q16 65 31.5 93t48.5 41.5t98 13.5h54t38.5 -4t27.5 -6t15 -12.5t7 -17.5t-2.5 -27.5t-8 -35t-14.5 -47.5q-8 -24 -20 -61q-23 -68 -15 -78.5t81 -9.5h46q22 0 50 -0.5t36 -2t23 3t16.5 7t9.5 17t9.5 26.5t9.5 42.5
t16 57.5q27 93 58 120.5t120 27.5q112 0 130 -25.5t-12 -112.5l-3 -12q-8 -29 -20 -72q-17 -59 -11.5 -68.5t57.5 -8.5h31q62 0 86 -12.5t21 -55.5q-1 -59 -8 -93t-26.5 -52.5t-43.5 -23.5t-68 -5h-26q-76 0 -90 -8q-14 -9 -23 -49q0 -3 -2 -9l-18 -75q-6 -20 -13 -40.5
t-13 -32.5t-8.5 -24t-5 -17.5t2 -11.5t8 -7.5t19 -3.5t28.5 -2h41q67 0 89.5 -12.5t21.5 -57.5q-1 -61 -6 -93.5t-23 -51.5t-43.5 -24t-75.5 -5h-47t-34.5 1.5t-21.5 -3.5t-16 -6.5t-10 -17.5t-10 -26.5t-9.5 -42.5t-15.5 -57q-27 -101 -57.5 -129t-124.5 -28h-43.5t-34 2.5
t-26 3t-17.5 7.5t-12 9.5t-5 15t-0.5 19t5.5 26t8.5 31t11.5 39.5q6 22 18 57q23 75 13 87t-95 12h-26h-40.5t-32 1.5t-23.5 -1t-18 -2.5t-12.5 -7.5t-9.5 -11.5t-7.5 -20t-8.5 -26.5t-9 -37t-13 -47.5q-15 -55 -25 -81.5t-30 -46t-48 -24.5t-79 -5q-44 0 -65 0.5t-41 5.5
t-24.5 12t-6.5 23t3 36t14 54q5 17 7 26q9 35 25 82q17 53 11 62t-62 8h-27q-67 0 -90.5 12.5t-22.5 57.5zM631 538q12 -10 102 -10h7.5h7h8.5h25h54.5t35 3t25 7t13 15t10.5 24t8 36q3 13 4.5 20t4.5 20t6 25q7 28 20 70q8 27 11.5 37.5t1.5 23t-4 15.5t-20 6.5t-30.5 3.5
h-50.5h-28h-27q-95 0 -113.5 -8.5t-25.5 -45.5q-1 -6 -4 -22l-15 -76q-7 -29 -20 -72q-18 -62 -6 -72z" />
    <glyph glyph-name="dollar" unicode="$" horiz-adv-x="1376" 
d="M29 240q2 141 53 209t164 65q22 0 39 -4.5t27.5 -8.5t23.5 -17t18.5 -19.5t20.5 -27.5t22 -31q55 -72 133 -123q49 134 121 305q-102 24 -178.5 56.5t-138.5 79.5t-93.5 113.5t-29.5 149.5q3 97 46.5 182.5t116 146.5t176 95t220.5 31q76 -3 131 -12q41 105 67 140t64 29
q26 -3 35.5 -17t3 -60t-36.5 -133q20 -8 60 -33q9 -6 26.5 -19t25.5 -18.5t20.5 -10.5t23.5 -5q17 0 28.5 18t18 39.5t28 39.5t56.5 17q57 -3 77 -36t29 -134q5 -25 1.5 -63t-11.5 -74t-33 -69t-63 -48q-34 -13 -62 -14.5t-56 13.5t-47.5 30.5t-55.5 48.5q-56 53 -150 96
q-68 -180 -112 -282q217 -49 331.5 -147t110.5 -267q-5 -211 -159.5 -343.5t-387.5 -125.5q-98 3 -158 14q-29 -80 -50 -119t-38 -49t-41 -6q-41 6 -41.5 47t41.5 164q-53 23 -90 60q-13 13 -28.5 33t-25 27t-23.5 7q-19 1 -35 -23t-26.5 -53t-33.5 -52.5t-55 -22.5
q-66 1 -83 40.5t-17 170.5zM528 1059q-1 -53 45 -86.5t148 -61.5q33 109 98 295q-30 6 -63 6q-225 3 -228 -153zM651 231q58 -14 105 -14q94 -2 153 43.5t60 122.5q0 67 -47.5 107t-157.5 71q-40 -129 -113 -330z" />
    <glyph glyph-name="percent" unicode="%" horiz-adv-x="2121" 
d="M264 1032q15 205 160.5 336.5t345.5 118.5q155 -11 242.5 -105t74.5 -268q-6 -96 -47.5 -181.5t-108 -145.5t-157 -92.5t-188.5 -26.5q-155 11 -245 104t-77 260zM312.5 90.5q26.5 51.5 127.5 145.5q344 315 572 503q216 223 641 600q56 50 90.5 76t63 39t47.5 7.5
t38 -27.5q21 -26 25.5 -48t-11 -50t-43.5 -57.5t-83 -78.5q-224 -184 -482 -391q-173 -209 -743 -709q-39 -35 -63 -55.5t-49 -39t-41 -25.5t-32 -8t-28.5 6.5t-24.5 23.5q-31 37 -4.5 88.5zM508 1075q-4 -84 40.5 -141t113.5 -60q77 -3 129.5 54.5t56.5 154.5q6 80 -38 136
t-114 59q-78 4 -130.5 -53t-57.5 -150zM1116 324q10 98 55 183.5t113 145t159 89.5t189 20q149 -15 239 -110.5t71 -264.5q-13 -133 -86.5 -239t-187.5 -159.5t-243 -39.5q-153 14 -240.5 109t-68.5 266zM1360 358q-7 -85 36 -141.5t113 -62.5q78 -6 131.5 48.5t57.5 145.5
q7 84 -36.5 144t-111.5 65q-77 4 -130.5 -53t-59.5 -146z" />
    <glyph glyph-name="ampersand" unicode="&#x26;" horiz-adv-x="1652" 
d="M0 383q15 302 283 426q19 9 55.5 18.5t55.5 20.5t20 31q0 17 -4.5 27.5t-14.5 24.5t-16 27q-42 80 -23 185q32 172 169.5 259.5t363.5 80.5q106 -4 182 -31t116 -72t56.5 -98t11.5 -115q-15 -206 -190 -301q-34 -17 -77.5 -28t-62 -19t-18.5 -28q0 -16 31 -50
q2 -3 30.5 -39.5t49.5 -64.5q13 -18 26 -20.5t31.5 13t38 39t51.5 65.5l1.5 1.5t0.5 1.5q77 111 152 163.5t182 49.5q91 -3 141.5 -73.5t32.5 -182.5q-17 -89 -70.5 -138t-125.5 -46q-35 3 -53.5 15t-30.5 40q-9 39 -31.5 60.5t-52.5 21.5q-50 0 -93.5 -32.5t-68.5 -98.5
q-4 -12 -4.5 -22t1.5 -18t10 -21t16 -24.5t24 -35.5t31 -47q54 -85 71 -101q21 -20 48 -20t40.5 14.5t30.5 51.5q18 22 45 20q58 0 43 -63q-80 -295 -321 -287q-74 1 -124.5 35.5t-92.5 107.5q-9 16 -18.5 35t-14.5 28t-11.5 18.5t-12.5 13t-15 4.5q-13 1 -24 -5t-17.5 -14
t-19.5 -25t-23 -28q-144 -157 -403 -151q-213 6 -313.5 117t-94.5 284zM324 471q-9 -95 45 -150.5t149 -58.5q81 -1 167 51.5t95 104.5q4 23 -17.5 52.5t-98.5 113.5q-20 22 -45.5 52t-35 39t-24 17t-33.5 8q-60 0 -126.5 -69.5t-75.5 -159.5zM643 1112q-10 -57 18 -111
t80 -55q69 -3 138.5 49t81.5 127q9 62 -23.5 98.5t-106.5 39.5q-81 1 -129 -38.5t-59 -109.5z" />
    <glyph glyph-name="quotesingle" unicode="'" horiz-adv-x="387" 
d="M162.5 899q0.5 14 4 40t8 47.5t11 58.5t11.5 67q4 25 11 72q6 44 9.5 64.5t10 53t12.5 46.5t16 34.5t22 28.5t30 17.5t40 12.5t51 3q42 0 69.5 -6.5t42 -21t18 -36t-1 -52.5t-15 -69.5t-25.5 -87.5q-4 -13 -6 -20t-5.5 -18t-6.5 -21q-9 -31 -21.5 -75.5t-18.5 -64.5
t-16 -49.5t-18 -41.5t-21.5 -28t-29 -21.5t-37 -10t-49.5 -4.5q-23 0 -40 2.5t-28 10t-17.5 15.5t-8.5 24t-1.5 30z" />
    <glyph glyph-name="parenleft" unicode="(" horiz-adv-x="649" 
d="M35.5 351.5q6.5 183.5 56.5 393.5q47 191 125.5 355t167.5 262q107 124 256 100q56 -9 87.5 -25t37.5 -37t-2 -42t-29 -47q-95 -114 -176.5 -287t-128.5 -365q-87 -357 -20 -714q6 -45 2 -76t-39 -44t-107 -5q-75 8 -119 60.5t-73 139.5q-45 148 -38.5 331.5z" />
    <glyph glyph-name="parenright" unicode=")" horiz-adv-x="649" 
d="M-71 -105.5q0 18.5 9 36t25 38.5q97 114 178.5 286.5t128.5 365.5q87 355 19 714q-5 45 -1.5 76t38.5 43.5t108 3.5q133 -15 193 -198q44 -147 37 -332t-56 -393q-47 -191 -125.5 -355t-167.5 -262q-106 -123 -258 -102q-45 8 -74 20t-41.5 26t-12.5 32.5z" />
    <glyph glyph-name="asterisk" unicode="*" horiz-adv-x="954" 
d="M188.5 1040q-1.5 22 6 38.5t18.5 26t36 16t51.5 9t72.5 5.5q49 3 54 24.5t-38 40.5q-40 15 -61.5 23.5t-43.5 21.5t-29 24t-9.5 28.5t5 38.5t23.5 50q45 84 84.5 79.5t112.5 -107.5q37 -51 61 -45t21 69q-1 37 -1 65t5 48.5t13.5 33.5t25.5 19t40.5 6t57.5 -6
q92 -17 102.5 -57t-38.5 -141q-27 -60 -8.5 -77.5t73.5 21.5q120 85 166.5 83t61.5 -91q5 -28 7.5 -47.5t-1.5 -36t-7.5 -27t-19 -19.5t-25.5 -13.5t-38.5 -9.5t-47.5 -7.5t-61 -7.5q-34 -5 -47 -15t-4 -23t39 -27q52 -24 78.5 -38.5t47.5 -31.5t23 -34t-5 -38t-27 -51
q-15 -23 -24.5 -37t-21 -24.5t-18.5 -15t-19.5 -1.5t-21 9t-26 22t-31.5 32t-39 46q-46 58 -70.5 51t-15.5 -80q0 -38 1.5 -66t-3 -47t-11.5 -31t-24.5 -16.5t-40 -3.5t-59.5 7q-100 17 -110 54.5t36 133.5q1 4 2 6q30 65 10 78.5t-80 -25.5q-79 -46 -117 -56t-55 9.5
t-28 79.5q-7 33 -8.5 55z" />
    <glyph glyph-name="comma" unicode="," horiz-adv-x="538" 
d="M-86 -344q-2 29 15.5 47t44.5 28t71.5 35.5t81.5 61.5q41 39 57 76t6 57q-13 20 -47 12q-76 -22 -141 43q-39 39 -39 115q0 93 70 165.5t184 72.5q69 0 121 -52q59 -59 59 -159q0 -133 -49 -247t-141 -192q-74 -62 -142.5 -89.5t-108 -19t-42.5 45.5z" />
    <glyph glyph-name="hyphen" unicode="-" horiz-adv-x="753" 
d="M47.5 545.5q0.5 8.5 0 24t2.5 30t7 37.5q6 34 10 54t13 39t15.5 27t24 16t32 9t46.5 2t60 -0.5t80 -2.5t100 -1q65 0 160 3q42 1 59.5 2t42.5 -1.5t32.5 -4t18.5 -11t11 -16.5t0.5 -28t-3 -36.5t-9.5 -50.5q-1 -4 -2 -11q-15 -85 -29 -103q-17 -24 -72 -25q-21 0 -77 2
q-98 4 -169 4q-60 0 -153 -2q-39 -1 -56.5 -1t-44.5 0.5t-36.5 1.5t-25.5 5t-19.5 7.5t-11 12.5t-7 17.5z" />
    <glyph glyph-name="period" unicode="." horiz-adv-x="526" 
d="M-35 131q0 96 72.5 171t187.5 75q83 0 121 -41q53 -53 53 -131q0 -102 -66.5 -170t-178.5 -68q-91 0 -148 60q-41 41 -41 104z" />
    <glyph glyph-name="slash" unicode="/" horiz-adv-x="1013" 
d="M-79.5 -117q-19.5 41 56.5 160q391 634 758 1352q44 88 84 113.5t144 25.5q54 0 87 -2.5t56 -11t30 -21.5t2.5 -36.5t-20.5 -53t-45 -74.5q-202 -329 -373.5 -638.5t-386.5 -719.5q-37 -68 -59.5 -92t-58.5 -33.5t-117 -9.5q-138 0 -157.5 41z" />
    <glyph glyph-name="zero" unicode="0" horiz-adv-x="1460" 
d="M66 676q18 126 67 246.5t130.5 226t185 181.5t239 113.5t283.5 22.5q287 -27 417 -226.5t85 -516.5q-26 -182 -99 -330t-183.5 -250t-263 -149.5t-329.5 -28.5q-291 31 -433 219t-99 492zM442 651q-10 -102 3.5 -178t47 -121.5t79.5 -68.5t106 -25q168 -7 272.5 123.5
t128.5 363.5q23 224 -32 333.5t-191 115.5q-109 4 -199 -68t-144.5 -195.5t-70.5 -279.5z" />
    <glyph glyph-name="one" unicode="1" horiz-adv-x="802" 
d="M-39 91.5q-1 15.5 0 35.5q4 58 37.5 89t120.5 65q25 11 42.5 20.5t33 26.5t23.5 26.5t20 39t17 43.5t19.5 60t22.5 70q80 238 147 492q3 57 -38 57q-18 0 -74.5 -26.5t-83.5 -26.5q-44 0 -72 45q-27 49 3.5 97t142.5 116q120 73 199 103t155 30q107 0 144.5 -34t37.5 -89
q0 -48 -16 -103t-53.5 -150.5t-53.5 -143.5q-47 -128 -97.5 -300t-62.5 -247q-15 -58 -10 -85.5t45 -35.5q49 -27 62 -42q23 -29 16 -89q-7 -63 -38 -90.5t-114 -39t-268 -11.5h-66.5t-56.5 1t-49.5 3t-39.5 5t-33.5 8t-24.5 12.5t-19.5 17t-11 22.5t-6.5 28.5z" />
    <glyph glyph-name="two" unicode="2" horiz-adv-x="1286" 
d="M-4 125q8 108 27 166.5t54.5 96.5t112.5 87q286 206 519 359q69 46 98 94t29 108q0 63 -50 98t-135 35q-170 5 -311 -98q-50 -27 -78 12t-8 91q29 66 74.5 121t112 102t161.5 74t209 28q202 0 324.5 -106t126.5 -289q1 -75 -21.5 -139.5t-69.5 -119t-99.5 -96.5
t-127.5 -90q-45 -31 -118.5 -78t-186.5 -117t-143 -89q-22 -12 -48 -25t-38.5 -19.5t-27 -14.5t-20 -13t-11 -11.5t-6.5 -13.5t-1 -16q1 -12 20.5 -14.5t79.5 0.5q112 4 207 4q131 0 178 18t91 84q52 75 87 103t89 22q37 -5 58 -18.5t29.5 -36t3.5 -60t-19.5 -83.5
t-41.5 -113q-44 -120 -91 -158.5t-132 -38.5q-28 0 -57.5 3.5t-65.5 10.5t-53 9q-73 12 -303 12q-60 0 -152.5 -8t-144.5 -8q-69 0 -103 34t-28 101z" />
    <glyph glyph-name="three" unicode="3" horiz-adv-x="1222" 
d="M-8 381q6 100 69 162.5t154 64.5q81 0 127.5 -40.5t46.5 -108.5q0 -36 -9.5 -58.5t-23.5 -31.5t-28 -15.5t-23.5 -16t-9.5 -26.5q0 -117 217 -114q297 3 297 219q0 251 -238 276q-95 15 -120 39.5t-2 87.5q18 57 44 67.5t134 10.5q122 3 184.5 41.5t60.5 108.5
q-2 60 -56 94t-154 33q-125 -3 -207 -46q-66 -19 -99.5 24t-3.5 114q52 103 166 160.5t268 60.5q189 3 302.5 -94.5t115.5 -262.5q3 -128 -92 -198q-44 -33 -96 -56t-77.5 -34t-25.5 -25q0 -16 17 -27t51.5 -29t60.5 -42q54 -49 75 -127t16 -164q-9 -149 -90.5 -260.5
t-214.5 -169.5t-300 -61q-249 -6 -398.5 114t-137.5 330z" />
    <glyph glyph-name="four" unicode="4" horiz-adv-x="1347" 
d="M51 641.5q2 16.5 15.5 36.5t24 31t35 34.5t38.5 38.5q50 53 202.5 186t307.5 257q39 32 94.5 81.5t85 73.5t75.5 51.5t97.5 38.5t118.5 11q50 0 85.5 -7t56.5 -16.5t31 -28t12.5 -34t-3.5 -42.5t-12.5 -44t-18.5 -49l-18 -48q-59 -171 -150 -411q-8 -20 -8.5 -32.5
t2.5 -19.5t19 -10t26.5 -3.5t39.5 -0.5h6h5.5h6.5h38t31.5 -1t28 -3.5t20 -6.5t15 -11t7 -16t1.5 -22t-8 -30q-12 -33 -16.5 -44t-14.5 -35t-15.5 -31t-16 -22.5t-19.5 -19.5t-23 -12t-30.5 -10t-37 -4t-46.5 -2q-19 0 -49 1q-56 1 -69 -8.5t-33 -69.5q-6 -17 -9 -26
q-23 -58 -20.5 -85t42.5 -31q37 -12 53 -21t25.5 -34t1.5 -68q-6 -36 -13.5 -54t-29 -37t-64.5 -26.5t-113 -12.5t-181 -5q-187 0 -233 9q-62 13 -71 57q-4 19 -1 48q5 53 41 90t114 64q37 12 53 19t38 21.5t35 37.5t24 59q17 51 5 67.5t-73 16.5q-46 0 -180 -14t-209 -14
q-71 0 -99.5 18t-53.5 78q-13 30 -17 55t-2 41.5zM354 713q0 -27 35 -27q55 0 178 8t133 8q36 1 53 15t31 43q54 116 74 167t64 185q3 47 -31 47q-27 0 -69 -29t-121 -98.5t-109 -93.5q-68 -56 -98 -81t-70 -60.5t-55 -54.5t-15 -29z" />
    <glyph glyph-name="five" unicode="5" horiz-adv-x="1245" 
d="M18 315q2 85 49.5 133t135.5 48q83 -1 128.5 -38.5t45.5 -95.5q0 -2 -1 -28t-1 -51q0 -107 205 -107q122 0 189.5 68t68.5 200q2 113 -64.5 180.5t-181.5 67.5q-108 -3 -176 -28q-9 -3 -30.5 -11t-29.5 -10.5t-25 -7t-27 -4.5t-25.5 0.5t-30.5 4.5t-33 11
q-47 21 -63.5 55t-1.5 91q36 148 133 467q28 97 69.5 138.5t130.5 41.5q19 0 242.5 -6.5t351.5 -6.5q49 0 99 24t73 24q49 0 61 -30t3 -118q-11 -102 -74.5 -163.5t-177.5 -61.5q-88 0 -221.5 28.5t-204.5 28.5q-86 0 -107.5 -19t-44.5 -105q-5 -19 -8 -29q-3 -12 -9 -32
q-8 -29 -11.5 -41.5t-5.5 -26t0.5 -19t9.5 -8.5q7 -1 10 -1.5t11.5 3t14 6t18 9t22.5 11.5q84 43 190 45q99 2 180.5 -24.5t144 -80.5t96 -142.5t32.5 -204.5q-4 -262 -171 -401t-454 -144q-111 -1 -205.5 19.5t-170 62.5t-118 113t-41.5 165z" />
    <glyph glyph-name="six" unicode="6" horiz-adv-x="1363" 
d="M96 596q3 176 59.5 335t153 278t236.5 189t301 70q158 0 250 -75q14 -10 30 -24.5t23.5 -20t19.5 -10.5t27 -5q19 0 27 20t9.5 43.5t19 43.5t53.5 20q17 0 29.5 -3.5t22 -13.5t16 -20.5t14 -33.5t13 -42.5t16 -57t20.5 -68.5q25 -98 -10.5 -155t-125.5 -69
q-76 -10 -120 10t-99 74q-51 50 -106.5 76t-130.5 27q-151 3 -245 -86.5t-130 -243.5q-18 -84 -18 -93q2 -13 14 -16t24.5 7.5t35.5 34.5t46 40q100 83 263 86q86 1 166 -27t144 -80.5t103 -136.5t39 -186q0 -104 -33 -192t-89 -149.5t-132 -105t-160.5 -64t-175.5 -21.5
q-288 -3 -448 171t-152 474zM448 473.5q-4 -49.5 16 -96t54.5 -86t85 -63.5t105.5 -25q109 0 185.5 63t76.5 164q0 98 -80.5 158.5t-198.5 60.5q-146 0 -211 -86q-29 -40 -33 -89.5z" />
    <glyph glyph-name="seven" unicode="7" horiz-adv-x="1228" 
d="M155 990.5q-17 75.5 62 254.5q63 140 111 186t131 46q39 0 113.5 -19.5t134.5 -21.5q61 -3 450 2q97 5 143 -34.5t46 -127.5q-1 -107 -36.5 -178.5t-135.5 -171.5q-44 -54 -199 -234.5t-213 -253.5q-107 -123 -107 -245q0 -48 19.5 -96t19.5 -64q0 -69 -73 -78
q-182 -25 -292 48t-110 216q0 205 223 381q26 26 188.5 185t243.5 247q66 60 66 103q0 23 -34.5 28.5t-150.5 5.5h-93q-46 1 -74.5 -3t-48 -20.5t-28.5 -31.5t-26 -51q-22 -43 -37 -66t-38 -44.5t-52.5 -29.5t-72.5 -8q-113 0 -130 75.5z" />
    <glyph glyph-name="eight" unicode="8" horiz-adv-x="1368" 
d="M35 362q5 203 217 328q28 18 64 32t53.5 22t17.5 18q0 13 -9.5 24t-29.5 27.5t-31 28.5q-25 25 -40 45t-28.5 61t-12.5 92q2 94 44.5 178t120 148t196.5 101t263 36q237 -2 378 -102t138 -273q-6 -170 -174 -264q-29 -19 -62.5 -34t-45 -23t-11.5 -23q0 -14 9.5 -24
t32.5 -27t40 -35q52 -47 79.5 -102t27.5 -139q0 -111 -44 -205.5t-127 -164t-212 -109t-291 -39.5q-259 0 -416 124q-150 117 -147 299zM385 436q-3 -115 66.5 -172t199.5 -57q133 0 221 59q86 57 86 140q0 59 -50 106.5t-148 77.5q-50 17 -62 21t-44.5 13.5t-42.5 8.5
t-33 -2t-40 -8t-42 -19q-105 -51 -111 -168zM555 1100q-3 -68 40.5 -106.5t121.5 -59.5q49 -16 82.5 -21.5t70.5 0t74 27.5q70 42 76 133q3 93 -58 140t-167 47q-117 0 -177 -47t-63 -113z" />
    <glyph glyph-name="nine" unicode="9" horiz-adv-x="1386" 
d="M57 309q0 84 48 131.5t135 46.5q84 0 132 -37t48 -96v-59q0 -50 43.5 -72.5t148.5 -23.5q160 -1 255.5 89.5t121.5 246.5q10 57 -6 61q-6 3 -11 3.5t-13 -3t-12.5 -6.5t-17 -11.5t-20.5 -13.5q-62 -37 -121 -56t-147 -20q-92 -1 -177 29.5t-152 87.5t-107.5 148
t-40.5 202q0 227 165 370.5t425 148.5q295 0 463 -183q157 -174 151 -461q-2 -184 -55 -342.5t-149 -276t-242.5 -185t-325.5 -68.5q-113 -1 -208.5 19t-170.5 60.5t-117.5 109.5t-42.5 161zM475 987q0 -103 87.5 -175.5t219.5 -72.5q106 0 176.5 57t67.5 146
q-3 118 -85 197.5t-200 81.5q-112 2 -189 -61.5t-77 -172.5z" />
    <glyph glyph-name="colon" unicode=":" horiz-adv-x="540" 
d="M-16 131q0 96 72.5 171t187.5 75q83 0 121 -41q53 -53 53 -131q0 -102 -67 -170t-179 -68q-90 0 -147 60q-41 41 -41 104zM129 721q0 97 72 172.5t188 75.5q83 0 121 -41q53 -57 53 -133q0 -102 -67 -170t-179 -68q-91 0 -149 61q-39 42 -39 103z" />
    <glyph glyph-name="semicolon" unicode=";" horiz-adv-x="497" 
d="M-90 -344q-2 29 15.5 47t44.5 27.5t71.5 34.5t81.5 61q40 36 56.5 72.5t6.5 56.5q-14 18 -47 10q-78 -20 -141 43q-39 39 -39 113q0 91 70 161t184 70q72 0 121 -49q59 -59 59 -158q0 -128 -49 -240t-141 -188q-74 -60 -142.5 -87.5t-108 -18.5t-42.5 45zM63 731
q0 95 72.5 170.5t188.5 75.5q82 0 120 -41q54 -58 54 -131q0 -103 -66.5 -170.5t-179.5 -67.5q-93 0 -150 60q-39 42 -39 104z" />
    <glyph glyph-name="question" unicode="?" horiz-adv-x="1081" 
d="M203 1112q-41 46 4 125q165 254 469 254q249 0 392.5 -109.5t143.5 -302.5q0 -97 -22 -170t-69.5 -127.5t-112 -93.5t-158.5 -74q-121 -48 -169.5 -81t-84.5 -82q-15 -13 -25.5 -20t-32 -14t-49.5 -7q-86 0 -126 39t-33 129q13 109 76 175t223 121q104 38 145 71.5
t41 88.5q0 70 -71.5 105t-176.5 35q-163 0 -278 -72q-57 -23 -86 10zM209 141q0 83 58.5 126.5t172.5 43.5q240 0 240 -172q0 -81 -61 -124.5t-179 -43.5q-113 0 -172 44.5t-59 125.5z" />
    <glyph glyph-name="at" unicode="@" horiz-adv-x="2150" 
d="M88 422q0 174 52.5 338t152.5 300t234.5 238.5t308 160t364.5 57.5q186 0 348 -52.5t282 -149t185.5 -245t57.5 -328.5q-7 -196 -79.5 -348t-198.5 -237t-286 -86q-232 0 -286 170q-2 7 -5 18.5t-5 18.5t-5.5 15t-7.5 11.5t-10 3.5q-13 0 -22.5 -9.5t-20.5 -29t-17 -26.5
q-52 -69 -113 -103.5t-155 -34.5q-162 0 -251 98t-66 277q16 161 90 297.5t187 214.5t237 72q181 -9 225 -105q7 -12 12.5 -29.5t10 -26.5t12.5 -9q13 0 29 39q28 50 60 74.5t85 23.5q48 -2 74 -10t39 -27t10 -50t-19 -83q-26 -92 -68 -209.5t-54 -158.5
q-35 -103 -14.5 -156t102.5 -53q68 1 130 67.5t99.5 170.5t40.5 216q9 260 -155.5 405t-465.5 156q-128 4 -247 -25t-215 -85t-175.5 -135.5t-133 -173.5t-82.5 -201t-29 -217q0 -539 594 -561q179 -5 323 47q32 9 52.5 13.5t41.5 6t33 -4.5t20 -19.5t9 -36.5
q1 -35 -12.5 -63t-38.5 -48t-45 -31t-47 -22q-155 -66 -357 -66q-183 0 -330 44.5t-256.5 133.5t-169 233.5t-59.5 334.5zM862 549q-18 -91 15.5 -143t113.5 -52q43 0 80 26t64 70t46.5 92t32.5 103q54 193 -104 193q-88 0 -159 -86t-89 -203z" />
    <glyph glyph-name="A" unicode="A" horiz-adv-x="1593" 
d="M-78 129q10 52 36.5 77t86.5 54q41 19 72.5 54.5t87.5 119.5q26 38 87.5 128t89 130.5t71 106t74.5 115.5t59 98q18 31 27 49t13.5 38.5t-4.5 34t-30 23.5q-29 16 -43.5 27t-25 37t-3.5 63q8 28 18.5 49.5t21.5 38t28 28t31.5 19t39.5 12t44.5 7t54 2.5t60.5 -0.5t71 -1
t80 -0.5q41 0 113 2q32 1 61 1q35 1 65 -1q52 -2 85 -16t47 -47q10 -24 9 -63q0 -14 -1 -30q-4 -58 -4 -145q0 -175 16 -471q3 -54 6.5 -109t4.5 -87t3.5 -65.5t3.5 -50t4 -34.5t5.5 -25.5t8 -17t11.5 -14.5t16 -13q45 -30 54 -41q14 -19 14 -61v-15q-2 -28 -7.5 -48.5
t-18 -36.5t-26 -27t-39.5 -19t-50 -12t-66.5 -6.5t-80.5 -3t-99 -0.5q-175 0 -236 17.5t-61 82.5q0 64 31 95t90 54q42 15 54 39q9 17 8 54q0 13 -1 28q-6 69 -23.5 89t-68.5 20q-60 -1 -118 -1t-115 0.5t-80 0.5q-57 -1 -80.5 -16.5t-61.5 -75.5q-19 -30 -27 -48t-8.5 -36
t13.5 -30t43 -24q72 -26 72 -82q0 -103 -76 -133q-75 -30 -307 -30q-141 0 -194 33q-40 25 -40 75q0 16 4 35zM632 684q-17 -42 10 -51q11 -4 63 -4q21 0 48 1q29 1 52 1q31 0 78 -2q12 -1 22 -1q65 0 77 22q10 20 10 118q0 29 -1 65q-1 12 -1 19t-0.5 18t-0.5 21
q-1 26 -2 70q-5 136 -13 157q-11 19 -38 19q-10 0 -16.5 -1.5t-13 -5t-13.5 -12.5t-14 -19t-19.5 -31t-25.5 -42.5t-35.5 -58.5t-46.5 -74q-106 -174 -120 -209z" />
    <glyph glyph-name="B" unicode="B" horiz-adv-x="1445" 
d="M-43 141q6 42 34.5 71t90.5 52q54 18 83 55t60 136q79 243 152 561q8 40 8 68q0 22 -5 36q-11 32 -61 56q-53 25 -69 49q-12 17 -12 49q0 14 2 31q12 85 48 112t138 27h586q208 0 323 -83.5t115 -240.5q0 -101 -46.5 -185.5t-131.5 -127.5q-25 -13 -50.5 -20.5t-38.5 -10
t-21.5 -8t-8.5 -16.5q0 -14 8.5 -21t37.5 -20t54 -29q107 -67 107 -217q0 -224 -149.5 -352.5t-454.5 -128.5q-49 0 -202.5 1t-275.5 1t-182 -2q-88 0 -122 35q-23 23 -23 68q0 24 6 54zM471 294q-1 -7 -1 -13q0 -34 29 -46q41 -14 189 -14q160 0 236 54t82 169v15
q0 77 -48 121q-52 48 -165 51q-20 0 -54 1q-22 1 -41 1q-92 -1 -114 -13q-26 -14 -49 -103q-12 -45 -21 -73q-40 -127 -43 -150zM645 886q1 -33 38 -43q34 -9 169 -9q125 0 190.5 61t65.5 164q0 149 -195 149h-53q-28 -2 -47.5 0.5t-35.5 -1.5t-26.5 -4.5t-19.5 -9.5
t-14 -15.5t-10.5 -23t-9.5 -32.5t-10 -43q-10 -45 -17 -73q-25 -99 -25 -120z" />
    <glyph glyph-name="C" unicode="C" horiz-adv-x="1437" 
d="M86 602q6 114 38.5 226.5t86.5 210.5t129 181t162 141t190 89q91 27 185 27h24q176 -8 279 -111q10 -10 20 -21.5t14.5 -17t11 -10.5t13.5 -7t18 -3q24 0 36 21.5t15.5 46.5t21.5 45t52 18q19 -1 32.5 -6.5t24 -18t17 -25t13 -39t11 -47.5t12.5 -62.5t15 -72.5
q11 -48 11 -88q0 -49 -16 -84q-30 -65 -118 -77q-23 -2 -42 -2q-22 0 -40 2q-34 6 -62.5 29t-46 44.5t-50.5 69.5q-44 66 -92.5 95t-128.5 32h-15q-106 0 -199 -66q-100 -71 -161 -193.5t-68 -266.5q0 -10 -1 -20q0 -156 88 -248q94 -98 257 -103q9 0 17 -1q163 0 329 91
q22 9 41 9q20 0 36 -10q32 -19 32 -59t-31 -92q-85 -123 -243 -192q-144 -63 -308 -63q-17 0 -34 1q-276 12 -432 179q-144 155 -145 408q0 20 1 40z" />
    <glyph glyph-name="D" unicode="D" horiz-adv-x="1538" 
d="M-41 143q9 51 39 79t98 52q38 12 59.5 33t42 69t50.5 152q91 314 119 459q16 71 16 109q-1 15 -3 24q-8 35 -63 56q-51 20 -71 46q-13 17 -14 44q0 15 4 34q17 90 72.5 118t201.5 28q96 0 252.5 -1t189.5 -1q180 0 309 -55t197 -157q67 -102 85 -244q5 -43 6 -89
q0 -106 -29 -227q-143 -680 -883 -680h-496h-10q-93 0 -139 36q-36 29 -37 81q0 16 4 34zM520 329q0 -35 33 -45q28 -8 145 -8q97 0 177.5 34t136 93t91 133.5t52.5 161.5q18 82 18 154q1 18 -1 34q-6 86 -34.5 148t-89 96.5t-147.5 34.5h-16q-36 0 -51 -0.5t-36 -5.5
t-28.5 -12.5t-20 -27t-20 -42.5t-20.5 -65q-88 -274 -154 -533q-35 -125 -35 -150z" />
    <glyph glyph-name="E" unicode="E" horiz-adv-x="1425" 
d="M-43 137q6 44 38.5 72t94.5 49q51 18 78 56t63 155q144 471 160 565q3 24 3 44q0 27 -6 46q-11 32 -50 56q-11 6 -34 18.5t-31 18.5t-19.5 18.5t-14 29t0.5 40.5q10 80 57.5 109.5t157.5 29.5q81 0 289 -4q171 -4 247 -4h29q77 1 138.5 2.5t77.5 1.5q5 0 16 1q23 0 73 -1
q44 -1 69.5 -7.5t43 -29.5t26.5 -53t21 -90q13 -60 18.5 -90.5t10 -68.5t0.5 -55.5t-14.5 -36t-30.5 -27.5t-50 -15q-36 -5 -62 -0.5t-46 20.5t-33 32.5t-34.5 46.5t-39.5 50q-45 51 -104 64.5t-203 13.5q-89 0 -120 -21t-52 -90q-10 -33 -27 -84.5t-26 -83t-10 -47.5
q-1 -29 23.5 -36t105.5 -9q34 -1 56.5 1.5t35 5.5t21.5 16t11.5 20t10.5 31q5 20 8 29t11 22.5t22 19t34 5.5q33 0 55.5 -11.5t35.5 -35.5t19 -47.5t11 -61.5q5 -47 5 -86q0 -223 -146 -223h-6q-38 1 -55.5 20t-32.5 72q-10 34 -38.5 50t-103.5 16h-64t-44.5 -8t-30 -14
t-20.5 -29.5t-17 -41t-17 -63.5q-9 -35 -15 -55q-14 -50 -20 -80.5t-2.5 -55.5t14.5 -37.5t39 -21t62.5 -10.5t92.5 -2q99 0 150 3.5t95 17.5t68.5 37.5t55.5 68.5q9 13 22 34.5t18.5 29.5t16 20.5t19 16t22 6.5t31.5 3q101 -5 117 -67q3 -12 4 -28q0 -65 -54 -191
q-7 -16 -20.5 -49l-18 -44t-15.5 -33t-18 -28.5t-19.5 -19t-26 -15.5t-31.5 -6.5t-41 -3.5q-91 0 -198.5 1t-166.5 1q-50 0 -254 -7.5t-325 -10.5h-16q-119 0 -155 28q-29 23 -29 82q0 19 3 43z" />
    <glyph glyph-name="F" unicode="F" horiz-adv-x="1376" 
d="M-41 131q8 56 38 84.5t91 48.5q45 15 77.5 58.5t65.5 150.5q42 133 91 310t63 253q3 22 3 41q0 29 -8 47q-13 30 -50 50q-33 17 -44 23.5t-28 21.5t-21 33t-1 44q10 88 61 118t162 30q78 0 306 -3t265 -3q48 0 123 6q65 6 91 6h7q57 -2 87 -16.5t54.5 -59t51.5 -139.5
q18 -66 26 -108.5t8.5 -78.5t-10.5 -57.5t-33 -35.5t-59 -21q-15 -3 -29.5 -2.5t-26 2t-23.5 7t-21 10.5t-20 15t-18 17t-17.5 20t-16.5 21t-17.5 23.5t-17.5 23.5q-41 65 -97.5 85t-182.5 20q-78 0 -108 -20.5t-52 -86.5q-5 -16 -20.5 -64.5t-22 -71t-13.5 -54t-7 -50.5
q-1 -41 23.5 -54t96.5 -13q71 0 101.5 10.5t52.5 40.5q5 8 17 26.5t17.5 25t16.5 17t23 14t28 3.5q92 0 115 -188q7 -58 7 -107q0 -82 -22 -136q-34 -84 -124 -85q-71 0 -115 123q-17 43 -52.5 57.5t-129.5 14.5q-107 0 -130.5 -16t-49.5 -100q-6 -18 -9 -28
q-23 -74 -23 -113q1 -5 1 -10q4 -39 51 -57q91 -36 107 -48q26 -19 26 -59v-8v-6q-3 -36 -12 -61t-36.5 -41t-49.5 -25t-80 -13t-98 -4.5t-133 -0.5h-29q-192 0 -254 26q-48 20 -47 80q0 17 4 37z" />
    <glyph glyph-name="G" unicode="G" horiz-adv-x="1540" 
d="M84 584q5 133 44.5 263t113 243.5t172.5 199t232 133.5q120 43 252 43h28q108 -3 170 -26t123 -74q12 -10 26.5 -24.5l22 -22t18.5 -13.5t23 -6q20 -1 31 20t15.5 47t23 47t51.5 20q17 -1 29.5 -4.5t22 -13t15 -18t12 -28.5t10 -34.5t10.5 -45.5t13 -53q22 -73 22 -127
q0 -15 -2 -28q-8 -62 -42.5 -95t-100.5 -47q-26 -6 -50 -6q-27 0 -50 8q-43 14 -73 43.5t-75 91.5q-88 116 -231 121h-9q-125 0 -228 -80q-107 -82 -167 -215t-65 -285v-20q0 -139 66 -220q71 -87 204 -87q102 0 177.5 48t103.5 130q14 40 5.5 54t-44.5 16q-77 3 -96 13
t-19 44q4 86 71 122q59 31 164 31q14 0 30 -1q68 -2 169 -2.5t152 -2.5q31 -1 49.5 -8t27.5 -17.5t8.5 -29.5t-6 -38.5t-17.5 -49.5q-8 -21 -16 -36.5t-13.5 -24.5t-17 -18t-17 -12t-22 -10.5t-23.5 -11.5q-37 -14 -51.5 -39t-28.5 -79q-36 -128 -51 -256q-11 -74 -44 -105
q-28 -25 -86 -25q-12 0 -24 1q-35 1 -51.5 19.5t-13.5 47.5q1 22 5.5 48t8 43t5.5 33t-1 23.5t-12 8.5q-7 0 -12.5 -2.5t-13.5 -10.5t-16.5 -17.5t-26.5 -29.5t-38 -41q-61 -71 -147 -99q-78 -25 -184 -25h-23q-244 6 -386 172q-133 157 -133 399q0 15 1 31z" />
    <glyph glyph-name="H" unicode="H" horiz-adv-x="1617" 
d="M-46.5 93q0.5 20 5.5 46q6 42 35 71t90 52q36 15 56 32t47 72.5t57 159.5q25 88 64.5 242t51.5 219q11 50 14 81t-2.5 54t-20.5 35t-42 19q-45 21 -62 46q-13 18 -13 56q0 13 2 29q6 56 36.5 83.5t108.5 41t231 14.5h24q173 0 231 -27q48 -23 48 -85q0 -17 -4 -38
q-8 -51 -34 -80.5t-86 -52.5q-56 -20 -75.5 -53.5t-47.5 -138.5q-2 -7 -3 -11.5t-2.5 -11t-3.5 -12.5q-14 -48 -18 -72t0 -43.5t22.5 -22t48.5 -8.5q15 -3 34 -2q21 0 46 3h22h21h25q159 0 182 3q59 7 84 44q20 30 45 125q14 57 20.5 86.5t9.5 55.5t-4 37.5t-18.5 19.5
t-33.5 14q-43 20 -60 44q-12 17 -12 51q0 13 2 29q7 61 37 90.5t105 43.5q70 13 203 12h20q201 -2 264 -30q49 -22 49 -81q0 -17 -4 -37q-9 -52 -36.5 -81t-90.5 -54q-53 -22 -80.5 -55t-52.5 -115q-79 -258 -148 -565q-14 -66 -15 -98t13.5 -51t53.5 -31q45 -18 63 -44
q14 -20 13 -53q0 -10 -1 -22q-10 -90 -77 -116.5t-269 -26.5q-50 0 -86.5 1t-71.5 2.5t-58.5 5.5t-45 9.5t-34.5 14t-22.5 19t-13 25t-3.5 32t4 40.5q9 47 36 75.5t84 51.5q51 18 70 54t43 137q6 27 9.5 45.5t1.5 34t-3.5 24.5t-13.5 15.5t-20 9.5t-32 4.5t-39.5 1t-53 -1
t-62.5 -0.5q-165 0 -187 -3q-52 -6 -72 -39q-14 -23 -32 -104q-20 -81 -20 -121q0 -13 2 -21q8 -36 59 -50q39 -19 57 -45q14 -21 14 -54q0 -8 -1 -16q-8 -65 -38 -95t-95.5 -41t-204.5 -11q-58 0 -98 1t-78.5 4t-62.5 7.5t-45.5 12.5t-32 19t-17 27t-6 36z" />
    <glyph glyph-name="I" unicode="I" horiz-adv-x="835" 
d="M-46 101.5q1 16.5 5 37.5q6 44 37 72t100 51q29 11 45.5 22t37 38t39.5 75t42 127q81 259 119 457q18 74 18 114q0 13 -2 23q-8 40 -63 58q-58 20 -78 44q-14 18 -14 56q0 13 2 29q6 57 41 86t115 41q74 11 213 10h24q205 0 277 -26q58 -21 58 -81q0 -14 -3 -30
q-10 -61 -39 -89t-105 -55q-54 -20 -81.5 -52t-53.5 -116q-112 -386 -149 -565q-15 -66 -15 -103q0 -15 2 -25q8 -34 64 -52q52 -18 74 -44q19 -22 19 -58q0 -6 -1 -13q-12 -92 -82.5 -116.5t-290.5 -24.5q-48 0 -81 0.5t-68.5 1.5t-59 3.5t-47.5 6.5t-38 10t-27.5 14
t-19.5 18.5t-10.5 24.5t-3.5 30.5z" />
    <glyph glyph-name="J" unicode="J" horiz-adv-x="1273" 
d="M-55 475q17 121 100 206t188 85q94 -2 147 -62q43 -48 43 -124q0 -19 -3 -39q-5 -46 -29.5 -79t-50.5 -47t-47.5 -33t-22.5 -40v-8q0 -55 41 -79q44 -26 123 -26q63 0 108 16t77.5 52.5t54.5 83.5t43 119q112 373 141 506q7 33 10.5 51t5.5 39.5t-1 32t-10.5 22.5
t-20.5 19.5t-33 13.5q-64 19 -85 48q-16 20 -16 54q0 14 3 31q6 32 16.5 53t32 37t48 25t75 14.5t102 7t139.5 2.5h26q175 0 238 -26q53 -22 53 -85q0 -16 -3 -34t-8.5 -32.5t-10.5 -23.5t-17.5 -21t-19 -17.5t-26 -20t-27.5 -20.5q-45 -27 -62.5 -52t-43.5 -112
q-93 -289 -148 -520q-56 -252 -218.5 -386.5t-414.5 -134.5q-265 0 -398 133q-106 107 -106 279q0 44 7 92z" />
    <glyph glyph-name="K" unicode="K" horiz-adv-x="1492" 
d="M-47.5 97.5q-0.5 18.5 4.5 41.5q12 81 127 123q39 15 60 32t50 76t64 173q94 311 125 479q6 31 6 56q0 28 -8 46q-14 34 -64 54q-51 18 -70 44q-12 17 -12 47q0 15 3 34q13 87 91 115t292 28q183 0 247 -28q52 -23 53 -88q0 -14 -3 -30q-9 -64 -30.5 -85.5t-99.5 -53.5
q-52 -18 -73 -52t-53 -136q-34 -115 -34 -145.5t38 -30.5q70 0 284 176q169 137 180 147q29 28 29 47q0 13 -8 20t-29 17q-40 12 -57.5 29.5t-13.5 52.5q10 62 39.5 96t103.5 52q63 15 166 14h37q168 -3 222 -31q46 -24 46 -87q0 -12 -2 -25q-9 -71 -35.5 -97t-109.5 -51
q-21 -6 -35.5 -10t-31.5 -11t-26 -11t-28 -16.5t-29.5 -19.5t-37 -27.5t-43 -34.5t-56 -46t-68.5 -55q-38 -31 -75.5 -58t-59 -40.5t-39 -26t-24.5 -21.5t-7 -20q0 -15 10 -21.5t35 -20t48 -38.5q40 -41 57 -80t46 -144q2 -6 3 -10t2.5 -10.5t3.5 -11.5q21 -72 45.5 -103.5
t65.5 -31.5q29 0 47 14.5t25.5 31.5t22.5 31.5t38 14.5q27 0 42 -22.5t13 -51.5q-12 -162 -98 -257t-219 -95q-82 0 -139.5 24.5t-96.5 79.5t-63 123.5t-45 175.5q-30 149 -56 197.5t-79 48.5q-31 0 -49.5 -4t-34.5 -13.5t-26 -32.5t-18.5 -55t-17.5 -85q-24 -87 -24 -120
q0 -35 41 -46q33 -19 49 -45q12 -21 12 -55v-19q-10 -89 -71 -116t-236 -27q-49 0 -84.5 1t-70.5 2.5t-59 5.5t-46 9.5t-35.5 14t-24 20t-14.5 26t-4.5 33z" />
    <glyph glyph-name="L" unicode="L" horiz-adv-x="1320" 
d="M-41 145q7 45 36 73t95 56q58 23 83.5 58.5t53.5 132.5q128 426 150 545q5 33 5 58q0 28 -6 46q-11 36 -50 64q-6 4 -18.5 9.5t-20.5 9.5t-20 12t-18 15.5t-13 20.5t-6 27.5t3 36.5q10 50 32 78.5t76 41t94 14.5q27 1 82 1h62h64h29q218 0 274 -24q47 -19 47 -101
q0 -17 -2 -37q-6 -56 -39.5 -80t-126.5 -55q-60 -20 -83 -53t-50 -131q-97 -313 -135 -492q-13 -50 -18 -80.5t-2.5 -55.5t11.5 -36.5t33 -19.5t51.5 -9.5t76.5 -1.5q122 0 172 25.5t108 112.5q70 112 93 136q35 37 85 37h7q4 -1 8 -1q39 -4 63 -12.5t35 -27.5
q12 -20 14 -42v-7q0 -21 -8 -57q-10 -42 -25.5 -85t-43.5 -114q-9 -27 -20 -61.5t-17 -52t-15 -40.5t-17 -33.5t-21 -23t-29 -17t-38 -8t-52 -3.5q-64 0 -178 4t-220 4q-48 0 -206 -1t-250 -1q-116 0 -162 30q-36 24 -36 81q0 15 3 34z" />
    <glyph glyph-name="M" unicode="M" horiz-adv-x="2056" 
d="M-47 92q0 64 29 106.5t100 82.5q20 10 33.5 20t26.5 23t25 39.5t23.5 54t29 84.5t33.5 113t44 155q70 244 75 263q7 33 7 56q0 30 -12 44q-12 13 -43 24q-60 26 -80 52q-13 18 -14 49q0 14 3 32q17 96 83 128q56 27 211 28h89h72q169 0 191 -2q85 -7 114 -51
q25 -39 27 -127q0 -12 6 -208q6 -170 6 -269v-29q-1 -29 -5 -70t-5.5 -65t-1.5 -48.5t5.5 -35.5t16.5 -11q17 0 35.5 31t43.5 90.5t38 85.5q23 36 78.5 123.5t91 144.5t84 138.5t84.5 148.5q16 31 28.5 52.5t28.5 38.5t26.5 27.5t32.5 18t35 11t45 5t52 1.5h66.5h78.5h39
q161 0 214 -23q47 -21 47 -83q0 -16 -3 -35q-8 -61 -38 -89.5t-99 -58.5q-48 -23 -68 -55.5t-43 -106.5q-20 -67 -77.5 -252t-92.5 -305q-21 -70 -21 -108q0 -8 1 -14q5 -38 51 -64q47 -20 63 -51q9 -17 8 -43q0 -21 -5 -47q-7 -30 -15 -48.5t-25 -33.5t-36 -22t-57.5 -12
t-79.5 -6t-111 -1q-178 0 -244 22q-60 19 -60 79q0 6 1 13q8 91 115 152q41 21 63.5 56t46.5 110q21 68 83.5 272t86.5 277q20 60 20 91v7q-2 31 -38 31q-13 0 -23 -5t-20.5 -20t-17.5 -28.5t-23 -44t-29 -54.5q-281 -485 -430 -778q-46 -114 -64 -140q-28 -39 -85 -47
q-29 -4 -90 -4q-79 0 -110 34.5t-34 121.5q-1 29 -1 95q0 108 3 318q4 280 4 374v30q0 14 1 34.5t1.5 32t0.5 26.5t-1.5 23.5t-5.5 16.5t-10.5 11.5t-15.5 3.5q-28 0 -41 -22.5t-35 -96.5q-25 -78 -82.5 -271t-73.5 -243q-4 -14 -11 -34.5t-11 -32t-9 -28t-6.5 -26t-3 -22.5
t0 -21t5 -17t10 -15.5t15.5 -12.5q44 -34 58 -59q9 -17 9 -45q0 -12 -2 -27q-5 -39 -19 -64.5t-35 -41t-61.5 -23t-84 -10t-117.5 -2.5q-128 0 -173.5 20.5t-45.5 87.5z" />
    <glyph glyph-name="N" unicode="N" horiz-adv-x="1662" 
d="M-49.5 99.5q0.5 16.5 4.5 37.5q14 82 129 123q37 14 56.5 31.5t45 71t62.5 165.5q82 246 125 463q16 59 16 98q0 19 -4 32q-11 43 -68 57q-45 17 -64 44q-12 18 -12 49q0 16 3 36q6 33 15.5 54.5t30 37.5t44 24.5t69.5 13.5t93 6.5t127 2.5h34q57 0 97 -2q51 -4 94 -15
t66 -33t36 -56t15 -85q10 -117 120 -518q10 -41 19 -86t13 -66t10 -40.5t13 -26t19 -6.5q9 0 15.5 3t11.5 11t9 17t8.5 26t8 32.5t10.5 42t13 50.5q5 15 25.5 76t35.5 111t31 114q12 40 16 56t7.5 43t-1.5 40t-18 28t-37 26q-42 25 -56 47q-9 15 -9 42q0 14 2 30
q13 87 80 114t231 27q179 0 233 -28q41 -21 41 -81q0 -19 -4 -41q-8 -50 -36 -75.5t-82 -46.5q-21 -10 -32.5 -18t-24 -18t-23.5 -34t-21 -47t-26 -77t-30 -103.5t-40 -145.5q-23 -91 -42.5 -175t-34 -157.5t-22.5 -115.5t-18.5 -104.5t-11.5 -69.5q-13 -77 -56.5 -107.5
t-135.5 -30.5q-36 0 -65 1t-53 5t-41.5 6.5t-33 11.5t-25 13.5t-19.5 18.5t-14.5 20.5t-11.5 26t-10 29t-10 34.5q-133 501 -188 701q-5 21 -10.5 48.5t-9 42.5t-9 30t-14 21.5t-21.5 6.5q-11 0 -20 -14t-19.5 -45t-19 -63.5t-23 -89t-27.5 -101.5q-15 -49 -29 -100.5
t-29.5 -107t-22.5 -81.5q-10 -47 -10 -73q-1 -14 3 -22q8 -22 54 -44q39 -22 55 -46q12 -18 11 -45q0 -10 -1 -22q-8 -65 -34.5 -96t-81 -42t-168.5 -11q-42 0 -72.5 0.5t-62 2t-53.5 4t-44 7t-36 10.5t-27 14.5t-19.5 19.5t-10.5 25t-3.5 30.5z" />
    <glyph glyph-name="O" unicode="O" horiz-adv-x="1579" 
d="M112 391q-23 85 -23 182q0 101 24 215q27 115 77 218.5t129 195.5t178 155.5t231 93.5q88 20 184 20q48 0 98 -5q312 -32 460 -238q109 -152 109 -365q0 -77 -14 -161q-43 -255 -163 -428q-120 -174 -316 -252q-140 -56 -310 -56q-67 0 -139 9q-206 25 -342.5 134.5
t-182.5 281.5zM485 745q-18 -79 -18 -148q-1 -93 33 -169q58 -130 215 -154q41 -7 78 -7q134 0 226 87q118 111 155 314q17 79 17 151q-1 15 -1 31q-4 86 -28.5 152.5t-79.5 110t-136 54.5q-32 5 -62 5q-57 0 -108 -18q-79 -28 -135 -90t-95.5 -142.5t-60.5 -176.5z" />
    <glyph glyph-name="P" unicode="P" horiz-adv-x="1370" 
d="M-41 143q6 44 35.5 70t93.5 49q34 13 53.5 32.5t47.5 79.5t65 177q86 263 123 469q8 40 8 67q0 23 -6 36q-12 29 -62 53t-67 48q-12 17 -12 48q0 13 2 28q10 85 58.5 115.5t158.5 30.5q52 0 231 2t262 2q244 0 371 -98t127 -295q0 -75 -17 -146t-59 -141t-105 -122
t-163.5 -84t-226.5 -32q-36 0 -80.5 0.5t-66.5 1t-50.5 0t-41.5 -2t-29.5 -5.5t-23.5 -9.5t-16 -15t-14 -21.5t-10 -29q-11 -33 -16.5 -51t-11 -40t-5 -33.5t3 -24.5t11 -20t20.5 -14t31 -12q63 -24 84.5 -51.5t21.5 -63.5q0 -98 -89.5 -127.5t-326.5 -29.5q-139 1 -207 15
t-91 47q-15 22 -15 57q0 18 4 40zM630 824q0 -38 33 -47q17 -5 90 -5h46h41q138 0 210 72.5t72 185.5q0 168 -229 168h-19q-115 0 -138.5 -16.5t-48.5 -116.5q-9 -36 -15 -57q-42 -150 -42 -184z" />
    <glyph glyph-name="Q" unicode="Q" horiz-adv-x="1597" 
d="M93 616q4 135 48 283q29 97 80 184.5t127.5 163.5t171 129t216.5 79q86 18 178 18q39 0 79 -3q139 -11 249 -60.5t180 -128.5t110 -185q39 -103 39 -223q0 -4 -1 -9q-1 -124 -34 -264q-31 -117 -84.5 -206.5t-138.5 -162.5q-40 -35 -48 -71q-4 -16 -4 -36q0 -23 5 -50
q12 -111 82 -117q26 -3 43.5 5t26 19t23.5 20.5t36 8.5q36 -2 36 -36q0 -12 -4 -27q-32 -120 -115 -185q-71 -56 -177 -56q-16 0 -33 1q-99 7 -151.5 60.5t-78.5 158.5q-9 38 -20 52t-29.5 13t-48 -8t-76.5 -12q-24 -3 -52 -3t-62 3q-142 13 -252.5 65t-181.5 137t-107 197
q-32 100 -32 219v27zM413 596q2 -83 31 -133q17 -28 32.5 -24t21.5 38q20 120 104 193q73 64 185 64q16 0 34 -1q156 -14 226 -160q18 -30 30 -30t33 22q87 76 107 172q12 58 12 110q0 108 -53 189q-77 119 -238 133q-24 2 -46 2q-74 0 -137 -20q-83 -26 -143 -81.5
t-101.5 -126.5t-68.5 -161q-29 -98 -29 -176v-10zM590 338q-2 -29 9 -50.5t34 -33.5t47.5 -18.5t58.5 -10.5q29 -3 54 -3q58 0 102 14q32 9 40.5 23.5t2.5 53.5q-10 79 -49.5 117.5t-112.5 44.5q-12 1 -22 1q-69 0 -110 -32q-49 -38 -54 -106z" />
    <glyph glyph-name="R" unicode="R" horiz-adv-x="1509" 
d="M-48 97.5q0 18.5 5 41.5q6 42 35 71t88 50q40 16 62 34.5t50 77t62 171.5q81 269 117 446q6 35 6 61q-1 27 -7 43q-14 33 -59 54q-46 16 -61 47q-8 17 -8 46q0 25 6 60q14 82 75 111t220 29q44 0 228 1t263 1q206 0 321 -90t115 -260q0 -293 -317 -371
q-27 -11 -60.5 -17.5t-45 -12.5t-11.5 -23q0 -13 13.5 -20t40 -18t47.5 -28q29 -25 42 -63t23 -111q5 -44 9.5 -68.5t13 -48t22 -33.5t33.5 -10q24 0 40.5 13t24 29t20.5 29t30 13q43 0 43 -45q0 -9 -2 -20q-58 -303 -320 -303q-143 0 -221 91.5t-78 282.5
q-1 129 -29.5 176.5t-103.5 47.5h-19q-36 0 -57 -3q-26 -4 -44 -21.5t-25 -40.5t-17 -73q-19 -89 -19 -132q1 -8 1 -15q4 -40 43 -49q64 -27 64 -94q0 -10 -1 -21q-13 -92 -79 -119.5t-246 -27.5q-49 0 -83.5 0.5t-69.5 2.5t-58 5.5t-45.5 9.5t-35.5 14t-23.5 19.5t-14 26.5
t-3.5 33.5zM634.5 825.5q1.5 -7.5 11.5 -19.5t22 -14t39 -6t53 -4h74q138 0 208 72t70 180q0 148 -203 148h-83.5t-55.5 -8t-37.5 -11.5t-22.5 -29.5t-17.5 -40.5t-15.5 -64.5q-6 -24 -9 -37q-4 -15 -11 -41q-10 -38 -14.5 -54t-7 -39.5t-1 -31z" />
    <glyph glyph-name="S" unicode="S" horiz-adv-x="1349" 
d="M41 268q-4 43 -4.5 77t4.5 59q9 50 41.5 70.5t110.5 25.5q27 2 46.5 -1.5t38 -15.5t30.5 -23t37.5 -37t45.5 -44q79 -74 147.5 -110t159.5 -36q98 0 151.5 45t53.5 123q-1 69 -57 113q-58 44 -187 74q-82 21 -141 41.5t-122 60t-99 90.5q-64 88 -64 221q1 107 46 197
t119 148t167 90q88 30 179 30h12q95 -1 159.5 -24.5t122.5 -67.5q15 -11 34 -26t27.5 -21.5t21.5 -12t28 -5.5q26 0 36 21t11.5 45.5t21 45.5t60.5 21q29 0 49 -9t31.5 -24t18.5 -44.5t11 -60t8 -82.5q1 -9 1 -14q3 -45 3 -84v-37q-2 -54 -32 -90t-88 -43q-16 -2 -31 -2
q-25 0 -44 6q-31 8 -46 20t-45 43t-53 50q-78 68 -140.5 99.5t-146.5 31.5h-4q-99 0 -151 -46q-56 -49 -56 -128q-1 -54 47 -90q50 -38 174 -70q159 -45 243.5 -86t139.5 -112q70 -88 70 -238q0 -114 -45.5 -206.5t-120 -149.5t-165 -87t-185.5 -30q-188 0 -289 94
q-13 11 -30.5 26.5t-24 21.5t-17 14.5t-16.5 11t-13.5 4.5t-15.5 2q-23 0 -35.5 -23.5t-17.5 -52t-27.5 -52t-62.5 -23.5q-28 0 -48.5 6t-34 21.5t-21.5 31t-12.5 47.5t-6.5 56.5t-5 71.5q-2 34 -3 52z" />
    <glyph glyph-name="T" unicode="T" horiz-adv-x="1503" 
d="M132 1058q10 62 56 159q39 85 64.5 130.5t54.5 70.5t53 30.5t70 5.5q34 0 104 -14.5t119 -14.5h584q41 1 115 13q64 11 100 11q6 0 10 -1q49 -2 74.5 -17.5t41.5 -59t26 -132.5q11 -90 11 -155q0 -28 -2 -52q-7 -78 -34 -112t-84 -43q-24 -4 -44 -4q-49 0 -75 27
q-36 38 -47 142q-9 73 -19 89q-14 23 -71 25q-15 1 -37 1q-39 0 -55 -0.5t-38 -5t-29 -10.5t-19 -22.5t-19 -36t-18 -54.5q-158 -504 -193 -641q-9 -32 -11.5 -53t3.5 -36t17 -24t32 -20q57 -26 73 -42q22 -23 22 -61q0 -11 -2 -22q-6 -39 -20 -63.5t-38.5 -41.5t-71.5 -25
t-106 -11.5t-154 -3.5q-59 0 -101 1t-81.5 4t-64.5 8t-47 13.5t-33 19.5t-17.5 27t-6 36t6.5 46q10 50 39.5 78.5t89.5 50.5q54 18 85.5 53.5t60.5 120.5q78 237 192 623q8 25 11 40t-1.5 26t-9.5 16t-25.5 8t-36.5 3.5t-54 0.5q-35 0 -57 -3.5t-36.5 -8.5t-26 -21.5
t-18 -30t-20.5 -46.5q-38 -87 -82 -119q-30 -22 -72 -22q-20 0 -43 5q-61 11 -83 47q-15 24 -15 61q0 17 3 37z" />
    <glyph glyph-name="U" unicode="U" horiz-adv-x="1521" 
d="M156 541q22 81 69 230.5t56 191.5q28 101 28 143.5t-49 60.5q-42 25 -55 49q-8 16 -8 43q0 15 2 33q7 48 22.5 74t58 45t113.5 25t195 6q194 -2 257 -30q51 -23 51 -87q0 -15 -3 -33q-7 -51 -32 -75.5t-93 -61.5q-39 -17 -60.5 -60.5t-58.5 -160.5q-65 -208 -112 -397
q-12 -47 -12 -86q1 -61 29 -105q48 -74 183 -74q112 0 174.5 58t94.5 164q61 179 131 467q4 15 12 42q27 85 27 117v6q-2 30 -48 43q-39 17 -54 43q-10 17 -10 45q0 15 3 33q9 64 38.5 95t98.5 44t209 13q177 -2 231 -30q42 -21 41 -80q0 -18 -4 -40q-5 -30 -14 -50t-29 -36
t-35.5 -24.5t-52.5 -26.5q-18 -8 -30 -17t-19.5 -16t-15.5 -24t-11.5 -26.5t-13.5 -40t-16 -48.5q-88 -260 -148 -534q-53 -241 -219 -365.5t-420 -124.5q-307 0 -439 158q-87 103 -86 253q0 79 24 171z" />
    <glyph glyph-name="V" unicode="V" horiz-adv-x="1556" 
d="M208 1226q-5 13 -5 32q0 21 6 49q10 62 42 90.5t105 39.5t228 11q183 0 248 -23.5t65 -91.5q0 -39 -6.5 -65.5t-23.5 -46t-34 -31t-49 -27.5q-54 -27 -66 -51q-10 -21 -9 -84v-24v-69q-1 -99 1 -267q2 -234 3 -291q-2 -28 -2 -49q-1 -18 1 -29q4 -25 23 -25q14 0 24 4
t19 15.5t14.5 19.5t15.5 27.5t15 28.5q266 430 400 678q16 33 23.5 51.5t9 36t-7 29t-27.5 22.5q-34 22 -47 33t-22 32.5t-3 51.5q13 53 36.5 80.5t90.5 44t192 16.5q111 0 168 -16t73 -47q10 -20 10 -50q0 -17 -3 -37q-6 -33 -20.5 -55t-28.5 -31.5t-42.5 -25t-45.5 -27.5
q-44 -26 -77 -67t-89 -138q-406 -677 -508 -864q-39 -90 -73 -106q-32 -16 -141 -15h-14h-59q-24 0 -66 -1h-34h-44q-34 2 -57.5 7.5t-39 20.5t-23.5 41.5t-10 68.5q-9 157 -18 458.5t-13 402.5q-1 25 -1.5 54.5t-1.5 42.5t-1 29.5t-2.5 23t-4.5 14.5t-8 14l-11 11t-17 15
q-48 31 -58 59z" />
    <glyph glyph-name="W" unicode="W" horiz-adv-x="2248" 
d="M181 1271.5q0 17.5 5 41.5q18 87 84.5 110t268.5 23q44 0 70.5 -0.5t60 -1.5t53 -3t42.5 -6t35 -9.5t25.5 -14t19 -19t10 -25t4 -32t-4.5 -39.5q-6 -38 -28.5 -61.5t-69.5 -42.5q-16 -8 -27 -17t-20 -21t-14 -27t-8.5 -35.5t-4.5 -45.5q-2 -26 -2 -60q0 -17 0.5 -35.5
t0.5 -39v-43.5q-1 -24 -1 -49v-112q-1 -127 -8 -279q-3 -50 -3 -80q0 -24 2 -34q4 -24 25 -25q13 0 21 4.5t14.5 17t11 26t14.5 42t21 53.5q162 327 285 596q39 82 45 118q1 7 1 14q0 27 -19 44q-24 21 -32.5 40.5t-2.5 53.5q7 42 27 70t47.5 44.5t79 24.5t103 10.5
t138.5 2.5q168 0 226 -24q47 -19 47 -86q0 -16 -3 -35q-6 -37 -28 -62.5t-66 -52.5q-37 -24 -52.5 -56.5t-21.5 -95.5q-28 -414 -28 -602q0 -15 -2.5 -39t-3.5 -39t-0.5 -30.5t6.5 -23t18 -7.5q13 0 22 4.5t17.5 17.5t13.5 24.5t15.5 39t19.5 47.5q90 173 143 282t98 207.5
t50 108.5q30 69 40 98.5t8 48t-21 31.5q-35 26 -45 45.5t-7 53.5q10 78 74 109q62 30 222 30h10q140 0 182 -26q29 -18 29 -67q0 -20 -5 -46q-8 -50 -34 -74.5t-86 -52.5q-42 -20 -64 -49.5t-57 -101.5q-1 -4 -2 -5.5t-2.5 -4.5t-3 -5.5t-2.5 -5.5q-195 -387 -431 -881
q-43 -94 -82.5 -111.5t-187.5 -17.5h-26q-145 0 -181 10q-49 13 -64 60q-13 42 -14 202q-1 112 -2 160q-2 71 -2 172q0 98 -4.5 125t-25.5 27q-14 0 -23 -9.5t-21 -36.5t-25 -61t-41.5 -97.5t-63.5 -131.5q-26 -55 -57.5 -123t-44 -98.5t-35 -72t-31 -55.5t-30.5 -35
t-34 -24.5t-41.5 -10.5t-53.5 -7h-69q-201 0 -235 41q-31 37 -31 219v44q3 103 3 184q0 40 -1 75q-1 106 -1 189.5t1 145.5q0 31 0.5 57.5t-0.5 48.5q-1 46 -2.5 76.5t-7.5 51.5t-15.5 33.5t-25.5 22.5q-22 14 -32.5 21.5t-22 19.5t-14 23.5t-2.5 29z" />
    <glyph glyph-name="X" unicode="X" horiz-adv-x="1527" 
d="M-86 166q5 31 17.5 53.5t39.5 41t48 28.5t67 30q69 28 117.5 70.5t214.5 214.5q80 82 111 127t34 88q1 10 1 23q0 36 -11 86q-21 119 -62 177t-114 58q-41 0 -69.5 -18.5t-46.5 -36.5t-34 -18q-47 0 -47 67v6q6 133 96 223.5t240 90.5q173 0 262.5 -113t106.5 -356
q8 -115 41 -117q18 -1 41.5 19t84.5 82q6 6 10 10.5t9 9.5q43 45 68.5 77t37.5 57.5t8 41.5t-24 26q-42 24 -55 40t-12 49q4 86 71 113.5t262 27.5q151 0 203 -32q42 -26 42 -96q0 -17 -3 -38q-7 -44 -48 -74.5t-118 -62.5q-72 -29 -117.5 -66t-164.5 -164q-30 -33 -69 -72
t-55.5 -56.5t-30.5 -38.5t-17 -39q-1 -10 -1 -23q0 -47 21 -119q15 -69 28.5 -113t32.5 -83t43.5 -56.5t57.5 -17.5q32 0 52.5 16.5t29 36.5t24.5 36.5t39 16.5q37 0 47 -25q8 -19 8 -60q0 -12 -1 -27q-8 -132 -97.5 -227t-236.5 -95q-169 0 -265 137t-108 408
q-2 25 -3.5 37.5t-6 30t-12 25.5t-19.5 9q-9 0 -19.5 -7t-25 -23t-28.5 -32.5t-38 -45.5t-45 -53q-92 -101 -108 -140q-6 -13 -5 -24q0 -21 21 -33q41 -30 54 -50t12 -52q-4 -82 -80.5 -115t-251.5 -33q-162 0 -216 32q-42 24 -42 87q0 20 4 43z" />
    <glyph glyph-name="Y" unicode="Y" horiz-adv-x="1585" 
d="M204.5 1258q-1.5 13 0.5 28.5t6 34.5q18 84 84 104.5t270 20.5q160 0 235 -10.5t100 -35.5q20 -20 20 -57q0 -10 -2 -22q-4 -34 -18 -56t-30 -32.5t-55 -30.5q-38 -15 -50 -33t-5.5 -62.5t37.5 -141.5q8 -24 16.5 -51.5t14 -44.5t11.5 -36t10 -30t9 -22.5t9 -17.5
t9.5 -11t11.5 -7t13 -2t13.5 2.5t16 11t19 18.5t27 30.5t34.5 41t47.5 56.5t59.5 70q18 21 50 58q40 46 56 66.5t28.5 46.5t1 40t-43.5 26q-44 16 -60 37q-11 15 -11 41q0 11 2 25q15 81 79 105t253 24q41 0 69.5 -0.5t58 -2t49 -4.5t38.5 -7.5t30 -11t20 -16t12 -21.5
t3 -27.5t-4 -34.5q-7 -37 -15.5 -58.5t-27.5 -38.5t-33.5 -25t-54.5 -28q-26 -10 -48 -24t-55.5 -48t-54.5 -57.5t-80.5 -93.5t-99.5 -115q-60 -71 -123 -143t-86 -98.5t-47.5 -58.5t-32.5 -50.5t-16 -46.5q-10 -36 -14 -51t-8 -38t-2 -32t7.5 -21.5t17 -18.5t30.5 -11
q57 -27 76 -56q13 -19 13 -49q0 -14 -3 -30q-7 -34 -16 -55t-30.5 -38t-47.5 -25.5t-78.5 -14t-111.5 -7t-157 -1.5q-222 0 -291 26q-55 21 -55 81q0 16 4 34q12 53 41 81t92 52q36 16 51.5 29.5t31 46.5t34.5 102q10 36 11 61t-4 54t-25 83.5t-48 125.5q-22 54 -34 86
q-13 34 -31 85.5t-26 71.5t-21.5 51t-24.5 45t-27.5 30t-37.5 28q-5 3 -19 11t-18.5 11.5t-15.5 11t-14 12.5t-9.5 14t-7.5 18.5t-2.5 22.5z" />
    <glyph glyph-name="Z" unicode="Z" horiz-adv-x="1257" 
d="M-61 172q2 96 24.5 152.5t77.5 95.5q423 316 823 649q5 4 14.5 11.5t13.5 11t11 9.5l10.5 9t8.5 8t7.5 8t5.5 7.5t4 8.5l2 8t1 9q0 26 -30 31.5t-138 5.5h-106h-24q-34 0 -58 -2q-32 -3 -53 -7.5t-35.5 -19.5t-21.5 -26.5t-21 -40.5q-41 -83 -78 -118.5t-96 -35.5
q-70 0 -99 42q-21 31 -21 77q0 17 3 37q11 71 55 166q57 117 99.5 154.5t117.5 37.5q35 0 113 -18.5t147 -20.5h26q95 0 482 4q93 0 135 -35q41 -34 41 -110q0 -106 -31 -171t-124 -140q-513 -428 -746 -602q-72 -48 -90 -66.5t-18 -38.5q0 -27 28 -32q8 -2 41.5 -2t91.5 2
q45 1 86 1q85 0 136.5 12.5t80 36t54.5 68.5q48 88 78 120t82 32q55 0 85 -25t34 -71q1 -11 1 -23q0 -37 -11 -81q-14 -58 -46 -132q-55 -125 -97.5 -165t-119.5 -40q-27 0 -85 13t-75 16q-85 16 -368 16q-49 0 -147.5 -8t-172.5 -8q-37 0 -59 12.5t-35.5 53t-13.5 114.5z
" />
    <glyph glyph-name="bracketleft" unicode="[" horiz-adv-x="628" 
d="M-80 -146q-4 73 53 319q10 43 34 142q43 184 69 297q33 143 80 360q61 286 88 357q31 85 79 106q39 17 144 6q12 -1 39 -4q28 -3 43 -5q37 -4 61.5 -7t50 -7.5t41 -9.5t30 -13t21.5 -17.5t12 -22.5t4 -29.5t-5 -37.5q-20 -96 -49.5 -122t-106.5 -17q-3 0 -8 1
q-50 5 -63 -3q-17 -12 -30 -81q-3 -16 -10 -57q-37 -221 -87 -431q-42 -178 -101 -387q-40 -144 -36.5 -168.5t67.5 -31.5q5 -1 8 -1q77 -8 94 -38.5t-2 -127.5q-12 -55 -40 -78t-82.5 -25t-143.5 9q-16 2 -47 5q-121 12 -154 28q-50 23 -53 91z" />
    <glyph glyph-name="backslash" unicode="\" horiz-adv-x="1007" 
d="M192.5 1447.5q-1.5 34.5 18 55.5t56 27t106.5 6q53 0 82 -5t47 -21.5t25 -38.5t14 -66q18 -83 40.5 -177t41 -167.5t50 -184t47.5 -167.5t53.5 -182t49 -163.5t53.5 -175t48 -157.5q29 -117 -4 -155t-156 -38q-38 0 -60 1t-41 7.5t-27.5 12t-17.5 24.5t-12.5 34.5
t-11.5 51.5q-172 696 -383 1381q-17 63 -18.5 97.5z" />
    <glyph glyph-name="bracketright" unicode="]" horiz-adv-x="628" 
d="M-106 -121q19 96 48 122t107 17q3 0 9 -1q50 -5 63 4q17 12 30 84q3 16 10 55q37 221 87 430q34 144 115 442q28 100 19 121q-6 16 -46 21q-3 0 -27 2q-78 9 -95 39.5t3 127.5q16 79 74 95.5t192 -2.5q15 -2 44 -4q122 -12 156 -28q50 -23 54 -91q4 -74 -53 -322
q-10 -46 -36 -155q-42 -175 -66 -281q-34 -146 -82 -368q-61 -283 -88 -353q-31 -84 -79 -104q-39 -16 -144 -5q-11 1 -36 4q-28 3 -44 5q-145 14 -189 40t-26 105z" />
    <glyph glyph-name="underscore" unicode="_" horiz-adv-x="688" 
d="M-164 -222q-2 16 0.5 31.5t7.5 43.5q6 33 10.5 52t13.5 37t15.5 26t24.5 15.5t32 8.5t46.5 2t60.5 -0.5t80 -2.5t100 -1q65 0 160 3q42 1 59.5 2t42.5 -1.5t32 -3.5t18 -11t11.5 -16t0.5 -26.5t-3 -35t-9 -48.5q-1 -4 -2 -10q-15 -80 -28 -98q-18 -22 -75 -23
q-19 0 -74 2q-98 4 -170 4q-60 0 -153 -2q-49 -1 -69.5 -1t-50 1.5t-39 3.5t-23.5 9.5t-15.5 15t-3.5 23.5z" />
    <glyph glyph-name="grave" unicode="`" horiz-adv-x="710" 
d="M316.5 1386q-6.5 21 2.5 32t37 18.5t78 7.5q150 0 182 -19.5t68 -127.5q7 -19 10 -29q6 -17 18.5 -47t17.5 -45t6 -35.5t-10.5 -30.5t-38 -17.5t-71.5 -7.5h-53.5t-38 6.5t-27.5 9.5t-23 23t-23 32.5t-28 51.5q-15 27 -24 43q-11 19 -32.5 49.5t-32.5 47.5t-17.5 38z" />
    <glyph glyph-name="a" unicode="a" 
d="M20 383q5 96 37.5 199.5t90 199.5t131.5 173t169 123t195 46q94 0 144 -22t77 -64q11 -17 25 -43t21.5 -35.5t15.5 -9.5q18 0 31.5 11t21 27.5t20 35.5t27.5 35.5t45.5 27.5t71.5 11q90 0 116 -13.5t25 -64.5q-15 -60 -38.5 -112t-73.5 -155.5t-101 -222.5
q-37 -83 -46 -119t-9 -73q0 -76 71 -76q27 0 58 14.5t43 14.5q45 0 45 -73v-9q-7 -93 -88.5 -166.5t-214.5 -73.5q-142 0 -217 133q-9 17 -20.5 44t-19.5 37t-22 10q-12 0 -20.5 -9t-21.5 -34.5t-23 -40.5q-44 -66 -106 -97.5t-158 -31.5q-166 0 -243 106q-62 86 -62 228
q0 33 3 69zM370 489v-12q0 -47 14 -85q16 -42 53 -67.5t93 -25.5q89 0 144 64.5t100 187.5q31 83 35 151v16q0 57 -26 96q-30 44 -97 46h-10q-93 0 -171 -73q-82 -77 -114 -181q-19 -62 -21 -117z" />
    <glyph glyph-name="b" unicode="b" 
d="M0 98q10 98 74 250q8 21 46 119.5t68 178t63.5 173t47.5 142.5q23 73 27.5 114t-7.5 57.5t-43 16.5q-24 0 -53 -12.5t-45 -12.5q-36 0 -50 34q-6 14 -6 35q0 28 11 67q44 120 136.5 196t217.5 76q108 0 169 -52q56 -48 56 -135q0 -9 -1 -18q0 -52 -24.5 -110.5
t-92.5 -149.5q-28 -38 -37 -65t-3.5 -39t21.5 -13q16 0 29.5 9t33 31t26.5 28q115 100 245 100q227 0 311 -174q42 -88 43 -207q0 -118 -42 -266q-61 -219 -211 -357.5t-359 -138.5q-101 0 -155.5 30t-92.5 83q-14 18 -28 38.5t-21.5 31.5t-15.5 21t-15.5 14t-15.5 4
q-53 0 -71 -136q-3 -42 -32.5 -53.5t-121.5 -11.5q-83 0 -83 80q0 10 1 22zM472 479q-2 -20 -2 -39q0 -32 6 -64q10 -48 45.5 -80.5t92.5 -35.5h10q92 0 158 70q68 74 103 188q18 59 21 113q1 10 1 21q-1 42 -11 77q-12 44 -45 71.5t-83 30.5q-9 1 -17 1q-84 0 -141 -54
q-63 -60 -112 -190q-20 -54 -26 -109z" />
    <glyph glyph-name="c" unicode="c" horiz-adv-x="1099" 
d="M31 403q0 91 27.5 189.5t80.5 190.5t122.5 165.5t162 117.5t190.5 44q131 0 195 -90q3 -4 9 -11q29 -34 39 -37q3 -1 7 -1q14 1 23 20t14 41.5t24 41t52 18.5q58 0 79 -39.5t40 -153.5q13 -74 13 -131q0 -70 -19 -114q-34 -80 -162 -89h-14q-64 1 -99 35q-39 38 -55 117
q-14 53 -42.5 77.5t-80.5 24.5q-73 0 -129.5 -52.5t-83.5 -128t-27 -155.5q0 -113 61 -168t167 -57q131 0 233 66q29 15 51 15q23 -1 38 -17q15 -17 15 -39q0 -21 -12 -47q-56 -117 -177 -194t-292 -77q-101 0 -187 35t-142 94q-56 56 -88.5 137t-32.5 172z" />
    <glyph glyph-name="d" unicode="d" horiz-adv-x="1335" 
d="M16 408q10 92 41 188q33 105 90 199t130.5 168t166.5 117.5t191 43.5q138 0 207 -86q16 -21 30 -53t25.5 -48.5t30.5 -16.5q23 0 39 21t51 83q39 66 39 115q0 73 -74 73q-19 0 -39 -6t-26 -6q-33 0 -50 30q-10 17 -10 37q0 15 6 33q27 89 123 143t209 54q124 0 195 -64.5
t71 -172.5q0 -52 -23 -113.5t-48.5 -104.5t-81.5 -131q-71 -110 -104.5 -163t-73.5 -126.5t-66 -138.5q-29 -59 -29 -121q0 -48 22 -74t58 -26q32 1 68.5 23t52.5 22q45 0 45 -66v-8q-2 -46 -23.5 -92t-58.5 -84.5t-94.5 -63t-124.5 -24.5q-158 0 -236 140q-11 15 -21.5 34
t-16 28t-12.5 15.5t-15 6.5q-14 0 -22.5 -9.5t-21.5 -37t-24 -44.5q-46 -67 -106.5 -101t-153.5 -34q-95 0 -165.5 34.5t-110.5 94.5q-38 61 -54 141q-10 50 -10 104q0 32 4 67zM374 489v-9q0 -46 14 -83q15 -41 52 -65.5t92 -24.5q84 0 139.5 64t96.5 180q30 81 32 147v9
q0 59 -28 99q-30 43 -94 44h-7q-89 0 -165 -71q-79 -74 -113 -183q-17 -56 -19 -107z" />
    <glyph glyph-name="e" unicode="e" horiz-adv-x="1105" 
d="M27 412q0 104 27 204.5t82 191t131.5 159t184 109t230.5 40.5q215 0 326 -121q73 -82 73 -205v-10q-6 -311 -329 -352q-24 -3 -48 -3q-41 0 -81 8q-63 12 -95 27t-76.5 41.5t-48.5 28.5q-22 9 -34 -6t-15 -55q-2 -14 -2 -28q0 -87 67 -141q75 -61 202 -60h8q140 3 250 79
q27 15 48 15q19 0 33 -11q20 -15 19 -42q0 -15 -6 -35q-18 -55 -54.5 -104t-93.5 -90t-141.5 -65t-185.5 -24q-258 0 -381 162q-90 115 -90 287zM434 725q-1 -6 -1 -12q1 -31 31 -55q36 -28 87 -38q42 -8 84 -9q8 0 16 1q64 3 104.5 32.5t41.5 90.5q0 131 -146 131
q-81 0 -145 -46t-72 -95z" />
    <glyph glyph-name="f" unicode="f" horiz-adv-x="843" 
d="M-77 -166q-10 19 -10 42q0 31 19 71q151 396 254 680q8 23 22 61q28 69 28 95v6q-4 22 -55 22h-5h-12q-42 0 -56 12q-17 14 -10 60q11 85 37.5 123.5t95.5 66.5q20 6 30.5 10t21 10.5t14.5 10t11 15.5t9.5 20t11 30t15.5 39q62 147 190.5 240.5t313.5 93.5q128 0 216 -60
q80 -55 80 -141q0 -9 -1 -18q-7 -89 -69 -133.5t-159 -44.5q-37 0 -52.5 16.5t-14.5 57.5v17q0 44 -14 59q-17 18 -70 20h-3q-80 0 -124 -57q-45 -58 -53 -144q-1 -7 -1 -14q0 -33 29.5 -41t122.5 -8h39h9q92 0 114 -19q13 -11 13 -36q0 -21 -9 -52q-28 -94 -61.5 -119
t-124.5 -28q-26 -1 -56.5 0t-44 2.5t-31.5 -2.5t-26 -12.5t-20 -29t-21.5 -50.5t-23.5 -80q-31 -108 -71 -314.5t-73 -322.5q-55 -202 -281 -202q-17 0 -36 1q-84 4 -108 47z" />
    <glyph glyph-name="g" unicode="g" horiz-adv-x="1159" 
d="M-190 -311q3 75 38.5 131.5t92.5 79.5q32 13 73.5 24.5t54 19t13.5 23.5q1 11 -4 19t-12 12.5t-23.5 14.5t-30.5 20q-43 29 -43 84q0 76 45.5 121.5t143.5 62.5q13 2 30.5 4t28 3.5t21 4.5t15.5 9.5t5 17.5q0 15 -19.5 28t-51.5 34.5t-52 48.5q-49 68 -49 174v12
q2 207 151 344t394 137q84 0 170 -28q26 -12 38.5 -7.5t18.5 31.5q2 11 4 39.5t8.5 59.5t22.5 67q19 42 68 68.5t114 27.5h3q110 0 192 -76q84 -77 86 -182v-9q0 -59 -26 -93q-27 -37 -79 -37q-37 -1 -61.5 8t-63.5 35q-47 41 -84 41q-30 0 -48.5 -24t-18.5 -54
q0 -10 4 -19.5t9.5 -16t15.5 -19t16 -21.5q57 -75 57 -189v-11q-6 -227 -161 -351q-137 -110 -352 -110q-29 0 -60 2h-16q-58 0 -89 -13q-35 -15 -41 -51q-3 -21 14.5 -32t48.5 -16.5t90 -11.5q32 -3 50 -5q92 -10 159 -24.5t124 -37.5t91 -55t51 -78q12 -35 12 -79
q0 -13 -1 -27q-19 -204 -219 -302q-158 -78 -402 -78q-62 0 -130 5q-217 13 -330 77q-106 60 -106 157v10zM102 -209v-5q0 -47 51 -66q54 -21 185 -27q85 -8 147 -8q41 0 72 3q76 10 100 29.5t25 57.5v5q0 48 -52 72q-54 25 -192 37q-83 9 -144 9q-72 0 -114 -12
q-76 -23 -78 -95zM397 670v-12q0 -75 37 -119q39 -47 113 -47q102 0 163.5 54.5t65.5 151.5v8q0 79 -40 128q-43 52 -128 53h-3q-96 0 -151 -57q-55 -58 -57 -160z" />
    <glyph glyph-name="h" unicode="h" horiz-adv-x="1294" 
d="M-45 127q0 98 86 156q41 26 74.5 82.5t53 108t64.5 186.5l3 9t3 8t3 9q20 62 50.5 151t45.5 135t20 70q5 23 5 42q0 20 -6 34q-11 27 -42 27q-25 0 -54 -14.5t-44 -14.5q-33 0 -51 34q-9 17 -10 39q0 24 10 54q39 124 131 198.5t219 74.5q105 0 164 -55q55 -52 55 -138
v-12q0 -116 -110 -252q-34 -45 -46.5 -77.5t-7.5 -46t19 -13.5q10 0 22 7t20.5 15t28.5 28t35 34q58 50 118.5 77t141.5 27q133 0 211 -72.5t78 -189.5q0 -27 -4 -53t-15 -54.5t-18.5 -47t-27 -50t-26.5 -43t-31.5 -47t-28.5 -41.5q-80 -121 -80 -184q0 -74 69 -74
q25 0 58 15.5t47 15.5q22 0 31 -17.5t6 -42.5q-7 -99 -97 -178.5t-233 -79.5q-122 0 -186 62t-64 166q0 43 8 82t27 81t30.5 63t39.5 68q4 6 16 24.5t16 25.5t13.5 23.5t13.5 25.5t10.5 25t9.5 28t5 27.5t2 31.5q0 37 -27.5 61.5t-65.5 24.5q-75 0 -137 -65
q-109 -115 -149 -336q-14 -49 -14 -120q1 -7 1 -14q1 -48 0 -70v-19q-2 -92 -64.5 -133t-205.5 -41q-125 0 -172 28t-47 111z" />
    <glyph glyph-name="i" unicode="i" horiz-adv-x="706" 
d="M31 236q9 171 180 378q59 73 59 113q0 13 -6 23q-12 18 -47 18q-25 0 -48.5 -9.5t-31.5 -8.5q-43 0 -55 33q-5 13 -4 27q0 23 12 50q37 91 165 160q124 67 238 67h7q98 -1 150 -49q46 -43 47 -114q0 -8 -1 -17q-2 -54 -28 -101.5t-81.5 -121t-90.5 -135.5
q-49 -82 -68.5 -126.5t-19.5 -86.5q0 -26 12 -40.5t31 -16.5h10q26 1 54 13q34 16 44 15q26 0 36 -22.5t7 -55.5q-8 -103 -98 -181q-89 -78 -228 -77h-4q-116 3 -182 75q-59 65 -60 168q0 11 1 22zM484 1452q78 59 200 59h12q85 -1 132 -37q46 -35 46 -99v-3
q-2 -92 -70 -144q-64 -50 -197 -50h-15q-90 0 -140 34q-49 33 -49 98q-1 80 81 142z" />
    <glyph glyph-name="j" unicode="j" horiz-adv-x="655" 
d="M-481 -147q0 100 50.5 166.5t143.5 66.5q80 0 125 -48t45 -112q0 -35 -24.5 -67.5t-24.5 -46.5q0 -29 21.5 -43.5t54.5 -12.5q57 1 99.5 45.5t47.5 102.5q2 32 -12 61.5t-28 68.5q-12 31 -12 73q0 9 1 18q10 94 59 210.5t138 282.5q18 35 27.5 61t11 47t-10 31.5
t-36.5 10.5q-27 0 -55 -15.5t-38 -15.5q-36 0 -50 31q-9 18 -9 38q0 14 4 30q21 70 89 129.5t154 92t165 32.5q102 0 156 -50q51 -48 51 -132v-9q-1 -51 -21.5 -105t-60.5 -133.5t-62 -136.5q-45 -116 -107.5 -323.5t-66.5 -220.5q-66 -203 -182.5 -304.5t-298.5 -101.5h-8
q-148 0 -241 73q-95 75 -95 206zM330 1319q0 76 82 138.5t211 62.5q95 0 140.5 -40t45.5 -112q0 -84 -73.5 -137t-215.5 -53q-190 0 -190 141z" />
    <glyph glyph-name="k" unicode="k" horiz-adv-x="1273" 
d="M-39 125q0 24 4 44t7.5 31.5t16.5 27t16.5 20t23.5 21.5t24 20q32 27 57 63.5t51 101.5t42 113t51 158.5t57 177.5q48 147 49 186q-2 51 -51 52q-25 0 -50.5 -13.5t-41.5 -13.5q-36 0 -52 31q-8 15 -8 37q0 23 9 55q38 120 131 195t217 75q109 0 167 -56.5t58 -158.5
q0 -58 -25 -127t-87 -192q-91 -168 -91 -218q0 -22 17 -22q10 0 18 4t19.5 15.5t21.5 24t31.5 38.5t42.5 49q56 66 95 105.5t85.5 74t93.5 49.5t103 15q106 0 162 -60.5t67 -160.5q1 -95 -45.5 -150t-116.5 -55q-61 0 -98 43q-49 68 -123 68q-43 0 -78 -25t-38 -55
q-1 -13 9.5 -25t27.5 -26.5t35.5 -35.5t37 -62t29.5 -95q9 -44 14.5 -66.5t17.5 -50t29.5 -39.5t42.5 -12q27 0 56 21.5t41 21.5q24 0 36 -27q10 -22 10 -54q0 -8 -1 -17q-6 -115 -78 -192t-203 -77t-203.5 94.5t-81.5 268.5q-2 29 -2 54v13v56t-3.5 43t-13 27.5t-26.5 9.5
q-9 1 -19.5 -5t-15.5 -10.5t-22 -21.5q-46 -49 -66 -148q-1 -14 -1 -34q0 -26 2 -62t2 -61q0 -19 -1 -31q-2 -95 -66 -138t-212 -46q-111 0 -159 33.5t-48 105.5z" />
    <glyph glyph-name="l" unicode="l" horiz-adv-x="696" 
d="M-2 238q0 98 29.5 180t97.5 209q33 61 122.5 230.5t102.5 193.5q20 39 20 68q0 9 -2 17q-8 34 -51 33q-20 0 -40.5 -8t-30.5 -8q-30 -1 -44 25q-7 13 -6 34q0 22 7 52q29 94 120.5 153.5t208.5 59.5q83 0 140.5 -31t83.5 -84q21 -44 21 -100q1 -12 -1 -24
q-6 -72 -45 -151q-17 -33 -86.5 -151.5t-116.5 -208.5q-151 -292 -151 -391q0 -33 21.5 -53.5t50.5 -20.5h3q32 0 65 21q35 22 48 22q23 0 36.5 -21t10.5 -53q-4 -43 -31.5 -88.5t-72 -84.5t-109 -64t-135.5 -25q-114 0 -190 70t-76 199z" />
    <glyph glyph-name="m" unicode="m" horiz-adv-x="1966" 
d="M6 125q0 90 96 158q109 73 164 301q16 58 18.5 92.5t-12 54t-49.5 19.5q-22 0 -46 -13.5t-36 -13.5q-35 0 -55 25q-12 14 -11 37q0 18 7 42q32 110 118.5 189.5t192.5 79.5q119 0 164 -84q11 -20 18 -47t12 -40.5t15 -13.5q16 0 31 11.5t42.5 43t45.5 48.5
q107 102 264 102q149 0 211 -106q10 -18 16.5 -39t9.5 -33t9 -20.5t18 -8.5q15 0 27.5 10.5t40.5 42t57 58.5q102 90 242 90q139 0 220 -72t81 -188q0 -37 -7.5 -72.5t-29 -78t-31.5 -61t-44 -69.5l-38 -57q-41 -65 -59 -105.5t-18 -78.5q0 -76 67 -76q30 0 60.5 17.5
t44.5 17.5q36 0 36 -48v-10q-7 -101 -98.5 -181.5t-236.5 -80.5q-124 0 -192 64.5t-68 173.5q1 76 29.5 140t80.5 144q1 2 15.5 25t17 27.5t14 24.5t14 27.5t10.5 24.5t10 28t4.5 26.5t2.5 29.5q0 43 -28.5 68t-75.5 25q-75 0 -129 -72q-54 -76 -105 -211q-51 -141 -51 -236
q1 -20 7 -64q5 -37 5 -61v-8q-1 -32 -5 -53.5t-17.5 -42.5t-37 -32.5t-64 -19t-97.5 -7.5q-138 0 -185.5 31.5t-47.5 111.5q0 66 65 166q50 73 101 184q59 133 59 213q0 48 -29 74.5t-78 26.5q-66 0 -129 -66q-76 -79 -127 -225q-44 -125 -47 -189v-8q0 -33 7.5 -76t7.5 -67
v-6q-2 -91 -64.5 -131.5t-208.5 -40.5q-120 0 -170.5 29t-50.5 110z" />
    <glyph glyph-name="n" unicode="n" horiz-adv-x="1341" 
d="M0 125q0 87 94 156q62 44 98.5 116t63.5 178q23 67 23 109q0 10 -1 19q-7 45 -57 45q-24 0 -48.5 -14.5t-31.5 -14.5q-35 -1 -57 23q-12 13 -13 38q0 18 7 41q36 119 133 201q86 73 177 73q11 0 22 -1q57 -6 89 -26.5t54 -59.5q10 -19 17 -46t12.5 -40t15.5 -13
q15 0 31 11t45.5 40t46.5 44q56 50 118 78t146 28q142 0 223.5 -73t81.5 -191q0 -37 -8 -72.5t-27 -74.5t-31 -60.5t-42 -67t-37 -57.5q-44 -70 -62 -109.5t-18 -76.5q0 -78 68 -78q23 0 57 17.5t45 17.5q37 0 37 -51v-11q-7 -98 -96 -177t-230 -79q-120 0 -184 63t-64 167
q0 53 17.5 108.5t31 81.5t50.5 89q7 12 10 18q3 5 19 32t20 35t15 31t14.5 37.5t7.5 36t4 43.5q0 39 -26.5 62.5t-65.5 23.5q-41 0 -72.5 -14t-67.5 -50q-73 -76 -125 -223q-42 -108 -53 -195v-9q0 -33 6 -75t6 -66v-7q-2 -90 -62 -130t-204 -40q-113 0 -168 30t-55 109z
" />
    <glyph glyph-name="o" unicode="o" horiz-adv-x="1161" 
d="M66 197q-43 89 -43 202q0 116 45 258q80 257 257 376q134 90 315 90q58 0 120 -9q241 -35 329 -204q49 -95 49 -219q0 -97 -30 -212q-71 -283 -254 -413q-137 -97 -327 -97q-65 0 -136 11q-238 37 -325 217zM364 359q28 -92 130 -105q16 -2 31 -2q83 0 147 66
q76 78 108 202q21 76 21 138q0 49 -13 88q-30 90 -124 100q-17 2 -34 2q-84 0 -145 -60q-73 -72 -108 -198q-25 -83 -25 -149q0 -45 12 -82z" />
    <glyph glyph-name="p" unicode="p" horiz-adv-x="1333" 
d="M-170 -256q8 58 33.5 84t97.5 66q28 14 47.5 33t38 46.5t43.5 89.5t50 131t71 203q20 56 32 94t24.5 82t15 72.5t0 54t-16 38t-37.5 12.5q-29 1 -60.5 -17t-47.5 -18q-30 0 -47 27q-7 12 -7 31q0 20 9 48q41 121 134.5 199t197.5 78q45 0 83.5 -22t55.5 -60
q7 -14 13.5 -32t9.5 -28t8.5 -17t13.5 -7q11 0 23 11t34 34.5t45 42.5q117 90 254 90q100 0 174.5 -32t117.5 -88t63 -132q17 -63 17 -135q0 -14 -1 -29q-4 -87 -29 -184q-132 -522 -590 -522q-144 0 -217 69q-9 8 -17.5 18.5t-13 16.5t-11 10t-15.5 4q-18 0 -28.5 -17.5
t-28.5 -64.5q-1 -4 -2 -6.5t-2.5 -6.5t-2.5 -7q-16 -42 -16 -67q0 -29 27 -39q8 -5 26 -17t24.5 -17.5t16.5 -16.5t13.5 -23.5t3.5 -30.5q0 -101 -83 -142q-77 -38 -254 -38h-26q-59 1 -97.5 3.5t-76.5 10.5t-57.5 22t-29 37.5t-3.5 57.5zM559 476q-2 -17 -2 -33
q0 -33 7 -64q10 -46 45 -75.5t93 -33.5h12q42 0 78 17q43 20 74.5 57.5t54.5 84t37 101.5q17 72 17 132q0 11 -1 21q-3 68 -40.5 110.5t-104.5 42.5q-91 0 -150 -67.5t-97 -184.5q-18 -56 -23 -108z" />
    <glyph glyph-name="q" unicode="q" horiz-adv-x="1241" 
d="M22 405q4 108 44 222q77 222 234.5 353.5t354.5 131.5q83 0 130.5 -21t82.5 -65q10 -15 23.5 -39.5t22 -32.5t22.5 -8q22 0 34.5 14.5t22.5 35t25.5 40.5t55 34.5t100.5 14.5q66 0 90 -17q20 -13 20 -46q0 -10 -2 -21q-9 -41 -34 -98t-73.5 -161.5t-91.5 -211.5
q-23 -57 -47.5 -124.5t-38.5 -109.5t-37.5 -113.5t-29.5 -88.5q-25 -83 -25 -113v-7q4 -33 49 -33q64 0 93 -13t26 -53q-8 -117 -116 -188.5t-293 -71.5q-101 0 -152 27.5t-51 95.5q0 51 21 88.5t57 75.5q31 23 54.5 54.5t57.5 94.5q24 41 24 63q0 21 -22 23
q-12 3 -23.5 -3.5t-31.5 -25t-33 -28.5q-47 -32 -96.5 -46t-122.5 -14q-111 0 -187.5 52.5t-108.5 138.5q-28 77 -28 173v21zM382 502q-2 -14 -2 -27q0 -38 10 -71q13 -43 49.5 -70t92.5 -27q47 0 89.5 23t73 62t52 81t35.5 88q23 80 24 141q1 2 1 5q0 57 -30 93
q-31 37 -95 42q-8 1 -15 1q-80 0 -147 -58q-73 -63 -112 -171q-22 -57 -26 -112z" />
    <glyph glyph-name="r" unicode="r" horiz-adv-x="1085" 
d="M-27 101.5q0 17.5 4 39.5q2 16 6 29.5t12 25.5t13.5 19.5t18.5 17.5t19 14.5t24 16t24 15.5q46 29 71.5 71t70.5 166q15 40 23.5 66.5t16.5 56.5t8.5 48.5t-4 35t-18 24t-35.5 7.5q-31 0 -55.5 -13.5t-34.5 -13.5q-33 1 -53 23q-11 13 -11 36q0 18 7 43q36 122 126 202
q80 70 177 70q13 0 27 -1q90 -8 127 -80q11 -21 18.5 -49t13 -42t17.5 -14q10 0 21.5 11.5t33.5 39t41 46.5q52 52 102 77t119 25q108 0 169 -68.5t61 -185.5q0 -57 -13.5 -108t-41 -94.5t-75 -69t-110.5 -25.5q-89 -1 -115 35q-18 24 -18 63q0 19 4 41q8 40 8 64
q0 18 -4 28q-10 24 -49 23q-32 0 -59 -22t-49.5 -67.5t-37.5 -86.5t-36 -109q-29 -94 -39 -149q-6 -33 -6 -55q0 -14 4 -26q6 -26 28 -42q9 -6 23.5 -13.5t23.5 -12.5t21.5 -13.5t17.5 -16t12.5 -21.5t5.5 -28.5t-3 -37.5q-5 -31 -15 -52t-35 -35t-43.5 -21t-68.5 -10.5
t-81 -4t-109 -0.5h-44q-35 0 -61.5 0.5t-52.5 2.5t-44 6t-35.5 9.5t-28 13.5t-19 18.5t-12 25t-3.5 32z" />
    <glyph glyph-name="s" unicode="s" horiz-adv-x="1056" 
d="M-4 203q-1 15 -1 28q-1 84 27 119q32 41 121 45q15 1 28 -0.5t22 -3t20.5 -8t17.5 -10t18 -15t16.5 -16.5t20 -21.5t21.5 -23.5q47 -49 99 -77t135 -32h11q40 0 70 20q35 24 35 72q1 42 -37 70q-40 30 -169 68q-166 49 -241 124t-75 210q1 115 61 200q62 84 154 122
q86 36 184 36h15q145 -3 221 -82q8 -7 19 -18.5t16 -16.5t13.5 -9.5t17.5 -4.5q14 0 21 17t10.5 37t23 37t55.5 17q49 -1 68.5 -39t42.5 -145q10 -45 10 -80q0 -39 -13 -64q-25 -47 -102 -61q-17 -3 -33 -3q-21 -1 -41 5q-34 10 -54.5 25.5t-63.5 54.5q-57 53 -106.5 78
t-114.5 25h-7q-42 -1 -73 -23q-35 -25 -35 -69q0 -36 30 -58q31 -22 126 -53q105 -36 169 -67.5t109.5 -75t63.5 -99.5q16 -50 16 -119v-16q-1 -82 -37.5 -149.5t-94 -109.5t-126.5 -64q-63 -20 -127 -19h-12q-92 3 -148 24t-98 58q-12 9 -25.5 21t-20.5 17.5t-17.5 10
t-22.5 4.5q-15 1 -21.5 -16.5t-9 -38.5t-20 -38.5t-52.5 -16.5q-58 0 -81 46t-29 171z" />
    <glyph glyph-name="t" unicode="t" horiz-adv-x="854" 
d="M39 227v17q0 50 15 108q18 68 39.5 118t62.5 136q3 5 4 7.5t3 6.5t3.5 8t3.5 7q44 91 45 114q1 26 -32 32q-11 3 -29 3q-19 0 -32.5 4t-22 7.5t-12 13.5t-5.5 15t1 19t4.5 19t7.5 21.5t7 19.5q13 38 27 63t27.5 40t39 27t46 18.5t64 20t79.5 26.5q46 17 138 68t130 51
q37 0 49 -30q4 -11 4 -24q0 -24 -14 -57q-11 -27 -11 -41t11.5 -19.5t33 -6t52.5 0.5h21q84 0 103 -22q9 -10 9 -31q0 -31 -18 -84q-12 -35 -26 -57t-27 -34.5t-40 -18t-47 -6.5t-67 -1h-12h-49t-33.5 -4.5t-23.5 -7.5t-16.5 -17t-15 -23.5t-16.5 -37.5q-106 -227 -106 -329
q0 -54 27 -73.5t71 -19.5q46 0 89 20.5t52 20.5q41 0 41 -46v-7q-5 -49 -31 -101t-68.5 -97t-106 -74t-134.5 -29q-132 0 -220 69t-95 197z" />
    <glyph glyph-name="u" unicode="u" horiz-adv-x="1353" 
d="M57 223q0 32 8 66t15 55.5t29 60t28.5 49.5t36 54.5t31.5 46.5q42 59 56.5 92.5t14.5 69.5q0 27 -16 43t-47 16q-20 0 -44 -11t-34 -11q-56 0 -56 49q0 8 1 16q19 111 108 197t220 86q121 0 185 -64.5t64 -171.5q0 -55 -18 -111t-35 -87t-55 -93q-60 -89 -60 -167
q0 -39 26 -62.5t67 -23.5q69 0 131 65q65 71 123 246q20 61 28 109q6 38 6 62v10q-2 24 -1 57.5t8 66.5q20 79 74 117.5t165 38.5q133 0 189 -40q40 -29 40 -86q0 -23 -6 -50q-7 -29 -25 -53.5t-38 -41t-45 -51t-43 -78.5q-113 -231 -113 -346q0 -80 62 -80q29 0 56 15.5
t38 15.5q53 0 53 -67v-7q-6 -126 -110 -196q-83 -56 -192 -56q-28 0 -58 4q-52 4 -97 34.5t-67 64.5q-14 21 -26 53t-21 49t-21 17q-17 0 -29.5 -18.5t-30.5 -52.5t-38 -56q-44 -53 -96 -78t-133 -25q-142 0 -225 71.5t-83 186.5z" />
    <glyph glyph-name="v" unicode="v" horiz-adv-x="1085" 
d="M33 279q0 63 18 130t54.5 158t48.5 127q19 56 19 83q0 28 -21 54q-28 25 -36 49q-5 13 -4 31q0 15 3 33q17 73 78 102t190 29q157 0 213 -32q46 -26 46 -92q0 -15 -3 -33q-5 -43 -23 -65.5t-53 -45.5q-33 -22 -54 -58t-40 -96q-9 -29 -34 -93t-39.5 -114t-14.5 -90
q0 -48 26.5 -74t71.5 -26q94 0 181.5 87t130.5 202q32 77 32 138q-1 9 -1 18q-6 67 -62 108q-18 13 -26.5 22t-16.5 33.5t-8 61.5q0 78 46 122t124 44q85 0 137 -35t69 -93q12 -41 12 -91q0 -21 -2 -45q-7 -78 -33.5 -160.5t-68.5 -171.5q-48 -102 -115.5 -195t-149 -169
t-177.5 -121.5t-191 -45.5q-148 0 -237.5 80.5t-89.5 233.5z" />
    <glyph glyph-name="w" unicode="w" horiz-adv-x="1736" 
d="M70 242q0 146 120 331q53 79 64 108q8 23 8 46q0 61 -67 61q-22 0 -42 -11t-28 -11q-26 0 -35.5 13t-7.5 40q8 106 97.5 194.5t211.5 88.5q119 0 186.5 -67t67.5 -181q0 -47 -18 -97t-35 -78.5t-55 -86.5q-27 -42 -42 -70t-28.5 -67t-13.5 -74q0 -47 23.5 -73.5
t66.5 -26.5q22 0 42.5 8t40 26.5t35 35.5t34 49.5t29.5 53t29 61.5t25.5 59t24.5 61q26 70 34.5 112.5t4.5 63.5t-19 43q-29 29 -40 51t-7 58q11 72 67.5 98t172.5 26q146 0 199 -29.5t53 -121.5q0 -13 -3.5 -25t-12.5 -25t-13.5 -18.5t-19 -20.5t-15.5 -16q-26 -26 -42 -55
t-44 -106q-9 -23 -28.5 -68.5t-30.5 -74.5t-21 -68.5t-10 -71.5q0 -108 121 -108q73 0 149.5 75.5t123.5 171.5t51 168q3 37 -6.5 62.5t-20.5 36t-35 28.5q-18 11 -28 21t-18.5 35t-8.5 63q0 73 45 115.5t121 42.5q213 0 213 -219q0 -92 -24.5 -196.5t-67.5 -205.5
t-106.5 -194t-136.5 -163.5t-162.5 -112.5t-180.5 -42q-86 0 -150.5 29t-93.5 80q-12 23 -20 51.5t-14 40.5t-19 12q-16 0 -30 -12.5t-40.5 -42t-50.5 -51.5q-106 -99 -262 -99q-147 0 -227 71t-80 198z" />
    <glyph glyph-name="x" unicode="x" horiz-adv-x="1206" 
d="M-84 150q8 50 33 70t96 48q5 2 25 9.5t26 10.5t23.5 12t28.5 18.5t29.5 25.5t38.5 38.5t44 51.5q18 25 42 56.5t34 45t21 30.5t15 27.5t5 20.5t1 19q0 33 -9 59q-14 66 -40.5 97.5t-74.5 31.5q-37 0 -69.5 -18.5t-43.5 -18.5q-41 0 -41 65v9q5 106 84.5 178t214.5 72
q126 0 195 -84t78 -248q8 -96 35 -96q7 0 13 2t13.5 9t13 13t18.5 20.5t23 25.5q25 30 38 48t20.5 34.5t5 27t-13.5 19.5q-5 8 -13 17.5t-12 15.5t-6.5 20t-1.5 35q7 75 62 97.5t200 22.5q121 1 163 -17q35 -15 35 -66q0 -10 -1 -21q-6 -60 -34.5 -95t-103.5 -63
q-93 -29 -202 -161q-92 -105 -99 -150q-1 -9 -1 -19q0 -36 20 -81q20 -74 44.5 -109t72.5 -35q30 0 56.5 16.5t41.5 16.5q42 0 42 -68q0 -9 -1 -18q-8 -101 -81 -172.5t-194 -71.5q-248 0 -301 346q-4 24 -6.5 50t-3.5 38t-4 23.5t-9 15t-18 3.5q-13 0 -30.5 -16.5
t-49.5 -55.5q-32 -45 -45.5 -71.5t-13.5 -48t18 -36.5q5 -6 14 -16t12.5 -14.5t10 -17t5.5 -22.5t-1 -32q-5 -49 -29 -74.5t-82 -37.5q-54 -11 -152 -11h-17q-143 0 -185 29q-28 19 -29 69q0 24 7 56z" />
    <glyph glyph-name="y" unicode="y" horiz-adv-x="1185" 
d="M-174 -152q0 96 56 160t147 68h11q70 0 101 -38q33 -41 33 -99q0 -27 -5 -49.5t-5 -45.5q0 -28 20 -43.5t52 -13.5q62 0 115 63t61 132q6 31 -7.5 50t-60.5 48q-63 37 -82.5 106t-39.5 272q-3 35 -5 54q-6 48 -10 111.5t-7 92t-14 63t-32 61.5q-38 31 -46 47.5t1 58.5
q5 20 11 36t16.5 29t19 22.5t26.5 17t29 12t37 8t41 5t50 2.5t54.5 1h63.5h7h6h7q137 0 185 -23q38 -18 38 -66q0 -11 -2 -25q-4 -24 -15 -43t-18 -26.5t-27 -21.5t-22 -16q-15 -9 -22.5 -16l-15 -14t-9.5 -19t-4.5 -22.5t-1.5 -35t2 -46t3 -65t3 -83.5q7 -210 17 -244
q11 -31 35 -32q8 0 15.5 3t17 11.5t17.5 18.5t23.5 31t29 40.5t39 55.5t48.5 69q37 52 53 77t31.5 63t15.5 73q0 27 -9 46.5t-20.5 30t-33.5 25.5q-34 23 -46 45q-9 16 -9 43q0 13 2 29q11 75 63 117.5t141 42.5q99 0 150 -56t51 -145q0 -98 -56.5 -204.5t-172.5 -266.5
q-79 -106 -137.5 -190.5t-112.5 -167.5t-84 -127q-126 -184 -241.5 -257t-280.5 -73h-7q-116 0 -198 60q-86 62 -86 173z" />
    <glyph glyph-name="z" unicode="z" horiz-adv-x="1056" 
d="M-18 147q0 79 26 134.5t90 99.5q92 68 257.5 194.5t219.5 165.5q16 12 48 31.5t44.5 31.5t12.5 25q0 24 -26 29q-22 4 -85 4h-26h-47q-47 0 -75 -10t-40.5 -23t-30.5 -42q-5 -9 -8 -13q-27 -41 -42 -60q-16 -18 -46 -32q-22 -10 -50 -9q-11 0 -22 1q-85 12 -85 93
q0 55 40 142q47 108 85.5 144.5t111.5 36.5q32 0 98 -16t123 -17q126 0 360 4h16q73 1 104 -25q34 -28 34 -104q0 -89 -27.5 -145t-111.5 -119q-48 -38 -416 -332q-24 -15 -52.5 -32t-41.5 -25t-26.5 -17.5t-18 -18t-4.5 -18.5q0 -23 25 -27q20 -4 71 -3h24h44q89 0 124 21
t70 83q33 59 62 79q21 15 59 15q15 0 33 -2q80 -10 80 -92q0 -57 -39 -149q-48 -107 -87 -144t-114 -37q-17 0 -36.5 4t-46.5 12t-40 11q-74 14 -285 14q-54 0 -128 -8t-99 -8q-106 0 -106 153z" />
    <glyph glyph-name="braceleft" unicode="{" horiz-adv-x="794" 
d="M48 583q1 12 3 28t6 34q8 37 19 64.5t19 41.5t24 26.5t23 15.5l28 12q52 14 84.5 64.5t56.5 166.5q43 200 149 293t294 76q112 -9 141 -39.5t8 -108.5q-18 -67 -41.5 -90.5t-75.5 -38.5q-57 -9 -86.5 -56t-52.5 -152q-30 -144 -78.5 -208.5t-128.5 -82.5
q-35 -7 -38.5 -24t26.5 -32q77 -39 93.5 -114t-15.5 -207q-23 -101 -15.5 -149.5t52.5 -69.5q53 -27 65 -57t-4 -109q-17 -76 -62.5 -100.5t-115.5 -14.5q-207 27 -272 131t-21 312q24 94 18 160t-55 106q-2 2 -9.5 10.5t-9 11t-8 11.5t-8 13.5t-6 14t-5 17t-2 20t-0.5 24.5
z" />
    <glyph glyph-name="braceright" unicode="}" horiz-adv-x="794" 
d="M-88 -102q19 69 43 92.5t76 38.5q57 9 86.5 56t52.5 153q29 143 77.5 206.5t129.5 83.5q35 7 38.5 24t-26.5 30q-77 40 -93.5 115.5t15.5 207.5q23 101 15.5 149.5t-52.5 69.5q-53 27 -65 57t4 109q17 76 62 99.5t116 15.5q207 -27 272 -131.5t21 -310.5
q-24 -94 -18 -161.5t55 -105.5q2 -3 11.5 -14t11.5 -14.5t9 -14.5t8.5 -18.5t5 -21.5t2.5 -27l-2.5 -32.5t-6.5 -41.5q-8 -37 -19 -64.5t-19 -41.5t-24 -26.5t-23 -15.5l-28 -12q-52 -14 -84.5 -65t-56.5 -168q-43 -198 -149 -291t-294 -78q-113 10 -141.5 40.5t-9.5 107.5z
" />
    <glyph glyph-name="uni00A0" unicode="&#xa0;" horiz-adv-x="458" 
 />
    <glyph glyph-name="exclamdown" unicode="&#xa1;" horiz-adv-x="649" 
d="M-91 -272q-30 67 42 242q36 89 139 300q26 60 52.5 126.5t40.5 104.5t32 79t33 61.5t36.5 39t49 24.5t65.5 6q109 -2 116 -83.5t-49 -253.5q-37 -137 -56 -220q-9 -45 -20 -105t-17 -94.5t-16 -79t-19.5 -69t-24.5 -53.5t-33.5 -44t-45 -29t-60.5 -19t-78 -5
q-156 1 -187 72zM272 954q0 102 69.5 170t182.5 68q74 0 125 -45.5t51 -118.5q0 -95 -68.5 -164t-182.5 -69q-81 0 -129 43.5t-48 115.5z" />
    <glyph glyph-name="cent" unicode="&#xa2;" horiz-adv-x="1085" 
d="M86 631q1 121 47.5 230.5t123 188.5t181.5 124.5t219 44.5q9 120 41.5 193t81.5 67q46 -3 51 -42.5t-30 -148.5q-25 -74 -31 -88q71 -24 104 -72q3 -4 13 -22t18 -24.5t19 -6.5t17 12.5t11 35.5t9 32q16 27 33 38t50 11q47 0 62 -37t27 -143q6 -69 2.5 -119.5t-21 -85.5
t-53 -55t-94.5 -29q-45 -5 -79 12.5t-47.5 36t-40.5 66.5q-8 13 -12 20q-29 53 -67 75t-96 13q-90 -10 -144.5 -84t-56.5 -176q1 -94 68.5 -150t173.5 -59q143 -5 245 68q32 16 54 16q20 -2 28 -20t-2 -47q-48 -115 -165 -194t-281 -83q-8 -126 -36.5 -192t-74.5 -62
q-55 3 -58.5 43.5t32.5 141.5q17 50 24 76q-161 26 -255 133.5t-91 261.5z" />
    <glyph glyph-name="sterling" unicode="&#xa3;" horiz-adv-x="1343" 
d="M-39 96q0 56 9 94t31 64.5t47 42.5t67 35q64 22 123.5 70.5t76.5 119.5h-102q-138 -1 -160 7q-19 7 -18 34v6q2 29 5.5 45.5t16 30t27.5 19t48.5 8t70.5 1.5t102 -5q-3 11 -17.5 55.5t-20.5 66t-12.5 62.5t-6.5 80q0 143 84 265t231.5 194.5t323.5 72.5
q160 0 281.5 -40.5t194.5 -127t73 -209.5q0 -134 -80 -216t-207 -85q-103 -2 -164 27.5t-61 85.5q0 38 22 73t64 58q4 2 20.5 9.5t21 10.5t14 10.5t12.5 17t3 22.5q0 45 -50.5 75.5t-137.5 30.5q-130 0 -217.5 -78.5t-87.5 -195.5q0 -56 32.5 -152.5t38.5 -130.5h13
q141 -5 335 -6q192 -2 229 -12q36 -12 36 -41q-1 -82 -61 -97t-239 3q-185 13 -315 18q-24 -104 -104 -168q-14 -13 -21.5 -21t-11.5 -16.5t1 -13t19.5 -7.5t39.5 -3q151 -1 371 22q166 27 225.5 0.5t25.5 -157.5q-30 -120 -60 -139t-180 -14q-122 3 -210 3h-652
q-89 0 -114 15.5t-25 80.5z" />
    <glyph glyph-name="yen" unicode="&#xa5;" horiz-adv-x="1589" 
d="M94 442q0 23 3.5 33.5t20 19t44.5 10t83.5 1.5t130.5 -2q125 -3 206 -4q3 41 -11 92q-297 -6 -333 -4q-73 4 -87 29q-8 15 -6 51q3 29 8.5 42.5t23 24.5t53 13t94 2.5t150.5 -1.5q25 -1 38 -1q-4 13 -41 102q-14 37 -34.5 93.5t-30 81t-26 57t-34.5 51t-43 32.5
q-6 3 -21.5 11t-21 11t-16.5 11.5t-14.5 14.5t-9 17t-6 23.5t0.5 30t6 39.5q18 83 82.5 103t267.5 20q97 0 157 -3t103.5 -10.5t63 -22.5t25.5 -35t2 -52q-5 -33 -19 -54t-31.5 -32t-56.5 -29q-37 -14 -48.5 -31t-4.5 -62t41 -138q10 -31 26 -82q27 -88 39.5 -113.5
t36.5 -25.5q7 0 13.5 3t16.5 11.5t20 18.5t28.5 30.5t35.5 40.5t48 56t61 69q14 15 41 43q82 86 97 116q25 49 -35 72q-2 0 -4 1q-47 16 -64 36t-10 62q15 79 79 103t251 24q42 0 70.5 -0.5t58.5 -2t49 -4.5t38 -7.5t29.5 -11t19.5 -16t12 -21.5t3 -27.5t-4 -34.5
q-9 -44 -25 -68.5t-31.5 -34.5t-62.5 -32q-2 -2 -3.5 -2.5t-4 -1.5t-4.5 -2q-32 -13 -65.5 -40.5t-61 -58t-92 -104t-121.5 -135.5q-46 -52 -84 -93q230 2 277 -10t47 -73q0 -34 -8.5 -49.5t-35 -24t-75.5 -6.5t-130 3q-128 5 -214 7q-55 -61 -70 -94q346 3 398 -1
q77 -6 92 -32q6 -12 6 -35q0 -38 -14.5 -57.5t-50.5 -28t-96 -7.5t-152 4q-138 5 -226 7q-8 -43 2.5 -63.5t51.5 -30.5q56 -26 75 -54t9 -79q-7 -33 -15.5 -53t-29.5 -37t-47 -25t-77.5 -13.5t-110 -7t-155.5 -1.5q-219 0 -287.5 25t-50.5 110q11 54 40.5 81t93.5 50
q39 15 58 32.5t36 63.5q-301 -4 -352 0q-74 6 -90 35q-10 17 -9 61z" />
    <glyph glyph-name="dieresis" unicode="&#xa8;" horiz-adv-x="819" 
d="M209.5 1199.5q1.5 15.5 6 28.5t12.5 36t12 41q5 19 9.5 47t7.5 40.5t13.5 29.5t28 23.5t50 11.5t81.5 5q43 0 72 -3t44.5 -10.5t22 -15t4.5 -23t-6.5 -28.5t-12.5 -36t-13 -41q-5 -19 -9 -47t-7 -41t-13 -29.5t-27.5 -23.5t-51 -12t-83.5 -5q-43 0 -71 3t-43 10.5
t-21.5 15.5t-5 23.5zM652 1200.5q1 16.5 4 28t10.5 36t11.5 40.5t9 41t8 36t10 27.5t18 24t30 15.5t48 10.5t69 2.5q43 0 71 -3t43.5 -10.5t22.5 -15t5 -23.5t-6 -28l-12 -36t-13 -41q-5 -19 -9.5 -46.5t-7.5 -40.5t-13.5 -29.5t-28 -23.5t-50 -12.5t-81.5 -5.5
q-40 0 -67.5 3t-42.5 11t-22.5 15.5t-6.5 24z" />
    <glyph glyph-name="guillemotleft" unicode="&#xab;" horiz-adv-x="1288" 
d="M63 442q0 65 19 107.5t96 126.5q44 51 65 76t50.5 55t39.5 41.5t34 25.5t30.5 17t32 6.5t36 2.5t44.5 -2q18 -1 27 -1q140 -3 164 -13q29 -11 4 -49q-17 -25 -126 -143q-44 -47 -79 -86q-79 -84 -96 -109t-17 -48q0 -26 19 -51t102 -111q49 -55 124 -134
q102 -109 95 -127t-156 -21q-22 -1 -34 -1q-17 -1 -46.5 -2.5t-38 -2t-30.5 2t-29 6.5t-27.5 16.5t-32.5 26t-38 40.5t-49.5 55.5t-61.5 74.5q-82 90 -101.5 129.5t-19.5 91.5zM596 442q0 65 19.5 107.5t97.5 126.5q46 53 65.5 76t51.5 55t40.5 41.5t33.5 25t31 17.5t32 6
t37 3t46 -2q17 -1 27 -1h1h1h1h1h1h1h2q137 -3 161 -14q27 -12 -2 -52q-19 -25 -99 -111l-107 -114q-80 -84 -97 -109t-17 -48q0 -25 18.5 -49t104.5 -113q49 -54 124 -132q107 -110 99.5 -128.5t-158.5 -21.5q-23 -1 -35 -1q-17 -1 -47.5 -2.5t-39 -2.5t-31 2.5t-29 6.5
t-27.5 16t-32.5 26t-38.5 41t-50 55.5t-63 74.5q-83 90 -103 129t-20 92z" />
    <glyph glyph-name="uni00AD" unicode="&#xad;" horiz-adv-x="753" 
d="M47.5 545.5q0.5 8.5 0 24t2.5 30t7 37.5q6 34 10 54t13 39t15.5 27t24 16t32 9t46.5 2t60 -0.5t80 -2.5t100 -1q65 0 160 3q42 1 59.5 2t42.5 -1.5t32.5 -4t18.5 -11t11 -16.5t0.5 -28t-3 -36.5t-9.5 -50.5q-1 -4 -2 -11q-15 -85 -29 -103q-17 -24 -72 -25q-21 0 -77 2
q-98 4 -169 4q-60 0 -153 -2q-39 -1 -56.5 -1t-44.5 0.5t-36.5 1.5t-25.5 5t-19.5 7.5t-11 12.5t-7 17.5z" />
    <glyph glyph-name="macron" unicode="&#xaf;" horiz-adv-x="776" 
d="M211 1238q3 21 22 73q12 32 19.5 51t20 37t21 25.5t29 15t37 8.5t52.5 2t67 -0.5t89.5 -2.5t111.5 -1q74 0 182 3q48 -1 83.5 1.5t54.5 -3t29.5 -11.5t9 -24t-8 -39.5t-19.5 -59.5q-1 -1 -1 -2q-1 -3 -4 -10q-28 -78 -45 -95q-23 -24 -87 -25q-23 -1 -88 1q-108 4 -186 4
q-68 0 -172 -2q-156 -2 -188 7q-33 10 -29 47z" />
    <glyph glyph-name="acute" unicode="&#xb4;" horiz-adv-x="512" 
d="M231.5 1165q0.5 12 8.5 29.5t16.5 33.5t20 38.5t18.5 40.5q10 27 18.5 47.5t17.5 38.5t17 30t18 22.5t20.5 16t23 10.5t27 6.5t32 3.5t37.5 1t45 0h27q31 0 53 -2.5t33.5 -8.5t19 -11.5t4.5 -17t-6 -19.5t-15 -23.5t-20.5 -25.5t-25.5 -29q-34 -38 -50 -58
q-85 -106 -104 -123q-35 -34 -86 -39q-22 -2 -72 -2q-30 0 -48 4.5t-24 14.5t-5.5 22z" />
    <glyph glyph-name="periodcentered" unicode="&#xb7;" horiz-adv-x="706" 
d="M-18 635q0 81 41 155t122 122.5t183 48.5q111 0 159 -54q70 -70 70 -174q0 -135 -88.5 -225t-237.5 -90q-119 0 -196 80q-53 56 -53 137z" />
    <glyph glyph-name="cedilla" unicode="&#xb8;" horiz-adv-x="481" 
d="M-8 -283q6 48 47.5 75.5t107.5 35.5q26 4 60 8q30 3 35 29q2 17 -8.5 32t-36 29t-47 23t-62.5 24.5t-61 24.5l73 45q174 -21 263.5 -97t72.5 -196q-25 -156 -258 -156q-99 -2 -149 26t-37 97z" />
    <glyph glyph-name="guillemotright" unicode="&#xbb;" horiz-adv-x="1331" 
d="M54 26.5q-8 18.5 96 126.5q77 79 126 134q86 89 104.5 113t18.5 49q0 17 -3.5 27t-28.5 41t-82 89q-41 44 -106 114q-34 36 -49 51.5t-34.5 39t-24 31t-7.5 21t4 16t21 8.5t33 6t52 1.5t66 2.5h8q10 0 27 1q32 1 45 2t37 -3t31.5 -6t31 -17.5t33 -25t40.5 -41.5t51 -55
t66 -76q78 -84 97.5 -126.5t19.5 -107.5q0 -53 -20 -92t-103 -129q-40 -47 -63 -74.5t-50 -55.5t-38.5 -41t-32.5 -25.5t-27.5 -16t-28.5 -7t-30.5 -2.5t-38.5 2.5t-47 2.5q-12 0 -35 1q-151 3 -159 21.5zM596 26.5q-8 18.5 95 126.5q75 79 124 134q83 86 102 111t19 51
q0 17 -4 27t-28.5 40.5t-80.5 89.5q-39 44 -103 112q-34 37 -48.5 52.5t-34 39t-24 31.5t-7.5 21t3.5 15.5t20.5 9t32.5 6.5t51 1.5t64.5 2.5h8q96 4 119 -1q46 -9 103 -65q36 -37 137 -155q77 -84 96 -126.5t19 -107.5q0 -52 -19.5 -91.5t-101.5 -129.5
q-38 -46 -61.5 -74.5t-49.5 -55.5t-38 -40.5t-32.5 -26t-27.5 -16.5t-29 -6.5t-30.5 -2t-38 2t-46.5 2.5q-12 0 -34 1q-148 3 -156 21.5z" />
    <glyph glyph-name="questiondown" unicode="&#xbf;" horiz-adv-x="1085" 
d="M-113 63q0 188 86 291t275 174q121 47 169.5 80.5t86.5 83.5q41 41 106 41q84 0 125.5 -39t34.5 -129q-12 -109 -76 -175.5t-223 -121.5q-105 -38 -145.5 -71t-40.5 -88q0 -70 71 -105t176 -35q167 0 277 72q59 22 88 -10q40 -48 -4 -125q-72 -111 -188.5 -182.5
t-280.5 -71.5q-249 0 -393 109t-144 302zM420 1004q0 80 60 122.5t179 42.5q112 0 171 -44t59 -124q0 -170 -230 -170q-239 0 -239 173z" />
    <glyph glyph-name="Agrave" unicode="&#xc0;" horiz-adv-x="1593" 
d="M-78 129q10 52 36.5 77t86.5 54q41 19 72.5 54.5t87.5 119.5q26 38 87.5 128t89 130.5t71 106t74.5 115.5t59 98q18 31 27 49t13.5 38.5t-4.5 34t-30 23.5q-29 16 -43.5 27t-25 37t-3.5 63q8 28 18.5 49.5t21.5 38t28 28t31.5 19t39.5 12t44.5 7t54 2.5t60.5 -0.5t71 -1
t80 -0.5q41 0 113 2q73 2 125.5 -0.5t85.5 -16t46.5 -46.5t8.5 -93q-12 -173 12 -616q3 -54 6.5 -109t4.5 -87t3.5 -65.5t3.5 -50t4 -34.5t5.5 -25.5t8 -17t11.5 -14.5t16 -13q45 -30 54 -41q17 -22 14 -76q-2 -28 -7.5 -48.5t-18 -36.5t-26 -27t-39.5 -19t-50 -12
t-66.5 -6.5t-80.5 -3t-99 -0.5q-175 0 -236 17.5t-61 82.5q0 64 31 95t90 54q42 15 53.5 38.5t7.5 82.5q-6 69 -23.5 89t-68.5 20q-60 -1 -118 -1t-115 0.5t-80 0.5q-57 -1 -80.5 -16.5t-61.5 -75.5q-19 -30 -27 -48t-8.5 -36t13.5 -30t43 -24q75 -27 72 -86
q-1 -99 -76 -129t-307 -30q-141 0 -194 33t-36 110zM632 684q-17 -42 10 -51q16 -5 111 -3q29 1 52 1q31 0 78 -2q85 -4 98.5 21.5t9.5 182.5q-1 12 -1 19t-0.5 18t-0.5 21q-1 26 -2 70q-5 136 -13 157q-11 19 -38 19q-10 0 -16.5 -1.5t-13 -5t-13.5 -12.5t-14 -19
t-19.5 -31t-25.5 -42.5t-35.5 -58.5t-46.5 -74q-106 -174 -120 -209zM778.5 1756q0.5 8 6 18t21.5 14.5t43 8t66 3.5q79 0 109.5 -1.5t64.5 -5.5t45 -17.5t23 -32.5t28 -55q4 -11 7 -17q5 -13 14 -32t14.5 -30t10 -25.5t3.5 -23t-7.5 -17.5t-20 -14t-36.5 -8t-56 -3
q-58 0 -79.5 -0.5t-54 5.5t-40 9t-29 23t-30 33.5t-35.5 53.5q-8 12 -23 32.5t-22 31t-15 26.5t-7.5 24z" />
    <glyph glyph-name="Aacute" unicode="&#xc1;" horiz-adv-x="1593" 
d="M-78 129q10 52 36.5 77t86.5 54q41 19 72.5 54.5t87.5 119.5q26 38 87.5 128t89 130.5t71 106t74.5 115.5t59 98q18 31 27 49t13.5 38.5t-4.5 34t-30 23.5q-29 16 -43.5 27t-25 37t-3.5 63q8 28 18.5 49.5t21.5 38t28 28t31.5 19t39.5 12t44.5 7t54 2.5t60.5 -0.5t71 -1
t80 -0.5q41 0 113 2q73 2 125.5 -0.5t85.5 -16t46.5 -46.5t8.5 -93q-12 -173 12 -616q3 -54 6.5 -109t4.5 -87t3.5 -65.5t3.5 -50t4 -34.5t5.5 -25.5t8 -17t11.5 -14.5t16 -13q45 -30 54 -41q17 -22 14 -76q-2 -28 -7.5 -48.5t-18 -36.5t-26 -27t-39.5 -19t-50 -12
t-66.5 -6.5t-80.5 -3t-99 -0.5q-175 0 -236 17.5t-61 82.5q0 64 31 95t90 54q42 15 53.5 38.5t7.5 82.5q-6 69 -23.5 89t-68.5 20q-60 -1 -118 -1t-115 0.5t-80 0.5q-57 -1 -80.5 -16.5t-61.5 -75.5q-19 -30 -27 -48t-8.5 -36t13.5 -30t43 -24q75 -27 72 -86
q-1 -99 -76 -129t-307 -30q-141 0 -194 33t-36 110zM632 684q-17 -42 10 -51q16 -5 111 -3q29 1 52 1q31 0 78 -2q85 -4 98.5 21.5t9.5 182.5q-1 12 -1 19t-0.5 18t-0.5 21q-1 26 -2 70q-5 136 -13 157q-11 19 -38 19q-10 0 -16.5 -1.5t-13 -5t-13.5 -12.5t-14 -19
t-19.5 -31t-25.5 -42.5t-35.5 -58.5t-46.5 -74q-106 -174 -120 -209zM832 1566q1 8 10.5 22.5t18 25.5t24 29.5t24.5 31.5q6 7 16 21q20 26 28 37t24.5 27t22 21t25.5 12.5t29 8.5t39 3.5t49.5 2.5h65.5q39 0 67 -2t44 -7.5t26 -10.5t8.5 -15t-4 -18t-16 -22.5t-23.5 -24.5
t-29.5 -28.5t-31.5 -30.5q-40 -39 -54 -53.5t-41.5 -34t-36.5 -23t-41.5 -9t-54 -5.5h-75.5q-35 0 -58 3t-36.5 8t-17 14t-2.5 17z" />
    <glyph glyph-name="Acircumflex" unicode="&#xc2;" horiz-adv-x="1593" 
d="M-78 129q10 52 36.5 77t86.5 54q41 19 72.5 54.5t87.5 119.5q26 38 87.5 128t89 130.5t71 106t74.5 115.5t59 98q18 31 27 49t13.5 38.5t-4.5 34t-30 23.5q-29 16 -43.5 27t-25 37t-3.5 63q8 28 18.5 49.5t21.5 38t28 28t31.5 19t39.5 12t44.5 7t54 2.5t60.5 -0.5t71 -1
t80 -0.5q41 0 113 2q73 2 125.5 -0.5t85.5 -16t46.5 -46.5t8.5 -93q-12 -173 12 -616q3 -54 6.5 -109t4.5 -87t3.5 -65.5t3.5 -50t4 -34.5t5.5 -25.5t8 -17t11.5 -14.5t16 -13q45 -30 54 -41q17 -22 14 -76q-2 -28 -7.5 -48.5t-18 -36.5t-26 -27t-39.5 -19t-50 -12
t-66.5 -6.5t-80.5 -3t-99 -0.5q-175 0 -236 17.5t-61 82.5q0 64 31 95t90 54q42 15 53.5 38.5t7.5 82.5q-6 69 -23.5 89t-68.5 20q-60 -1 -118 -1t-115 0.5t-80 0.5q-57 -1 -80.5 -16.5t-61.5 -75.5q-19 -30 -27 -48t-8.5 -36t13.5 -30t43 -24q75 -27 72 -86
q-1 -99 -76 -129t-307 -30q-141 0 -194 33t-36 110zM628.5 1549q-4.5 23 69.5 83q29 27 45 43q45 44 61.5 60.5t47.5 38.5t43 26.5t48.5 11.5t64 7h88.5h94.5t65 -7t46.5 -11.5t32 -26.5t30.5 -38.5t34.5 -60.5q9 -14 22 -34.5t19 -30t13 -24t7 -20.5t-3 -14.5t-14 -12
t-28 -7.5t-42.5 -5t-61.5 -1h-24q-48 0 -67.5 1t-43 8.5t-36.5 22.5t-30 44q-6 10 -12.5 22t-10 17.5t-8 11.5t-9 8t-11.5 2q-8 0 -13 -1.5t-11.5 -7t-11 -10.5t-17.5 -19.5t-23 -25.5q-46 -52 -79 -62.5t-124 -10.5h-30q-117 0 -121.5 23zM632 684q-17 -42 10 -51
q16 -5 111 -3q29 1 52 1q31 0 78 -2q85 -4 98.5 21.5t9.5 182.5q-1 12 -1 19t-0.5 18t-0.5 21q-1 26 -2 70q-5 136 -13 157q-11 19 -38 19q-10 0 -16.5 -1.5t-13 -5t-13.5 -12.5t-14 -19t-19.5 -31t-25.5 -42.5t-35.5 -58.5t-46.5 -74q-106 -174 -120 -209z" />
    <glyph glyph-name="Atilde" unicode="&#xc3;" horiz-adv-x="1593" 
d="M-78 129q10 52 36.5 77t86.5 54q41 19 72.5 54.5t87.5 119.5q26 38 87.5 128t89 130.5t71 106t74.5 115.5t59 98q18 31 27 49t13.5 38.5t-4.5 34t-30 23.5q-29 16 -43.5 27t-25 37t-3.5 63q8 28 18.5 49.5t21.5 38t28 28t31.5 19t39.5 12t44.5 7t54 2.5t60.5 -0.5t71 -1
t80 -0.5q41 0 113 2q73 2 125.5 -0.5t85.5 -16t46.5 -46.5t8.5 -93q-12 -173 12 -616q3 -54 6.5 -109t4.5 -87t3.5 -65.5t3.5 -50t4 -34.5t5.5 -25.5t8 -17t11.5 -14.5t16 -13q45 -30 54 -41q17 -22 14 -76q-2 -28 -7.5 -48.5t-18 -36.5t-26 -27t-39.5 -19t-50 -12
t-66.5 -6.5t-80.5 -3t-99 -0.5q-175 0 -236 17.5t-61 82.5q0 64 31 95t90 54q42 15 53.5 38.5t7.5 82.5q-6 69 -23.5 89t-68.5 20q-60 -1 -118 -1t-115 0.5t-80 0.5q-57 -1 -80.5 -16.5t-61.5 -75.5q-19 -30 -27 -48t-8.5 -36t13.5 -30t43 -24q75 -27 72 -86
q-1 -99 -76 -129t-307 -30q-141 0 -194 33t-36 110zM606 1614q6 101 82 161.5t217 61.5q57 1 108 -9.5t104 -28.5t75 -23q114 -31 156 -31q36 0 63 11.5t40 24.5t32 24.5t41 11.5q25 0 37 -26.5t4 -80.5q-13 -102 -69 -155.5t-183 -53.5q-33 0 -63.5 6.5t-91.5 23t-126 30.5
q-121 34 -180 34q-37 0 -67 -12.5t-46 -27t-35.5 -27t-37.5 -12.5q-27 0 -45 26.5t-15 71.5zM632 684q-17 -42 10 -51q16 -5 111 -3q29 1 52 1q31 0 78 -2q85 -4 98.5 21.5t9.5 182.5q-1 12 -1 19t-0.5 18t-0.5 21q-1 26 -2 70q-5 136 -13 157q-11 19 -38 19
q-10 0 -16.5 -1.5t-13 -5t-13.5 -12.5t-14 -19t-19.5 -31t-25.5 -42.5t-35.5 -58.5t-46.5 -74q-106 -174 -120 -209z" />
    <glyph glyph-name="Adieresis" unicode="&#xc4;" horiz-adv-x="1593" 
d="M-78 129q10 52 36.5 77t86.5 54q41 19 72.5 54.5t87.5 119.5q26 38 87.5 128t89 130.5t71 106t74.5 115.5t59 98q18 31 27 49t13.5 38.5t-4.5 34t-30 23.5q-29 16 -43.5 27t-25 37t-3.5 63q8 28 18.5 49.5t21.5 38t28 28t31.5 19t39.5 12t44.5 7t54 2.5t60.5 -0.5t71 -1
t80 -0.5q41 0 113 2q73 2 125.5 -0.5t85.5 -16t46.5 -46.5t8.5 -93q-12 -173 12 -616q3 -54 6.5 -109t4.5 -87t3.5 -65.5t3.5 -50t4 -34.5t5.5 -25.5t8 -17t11.5 -14.5t16 -13q45 -30 54 -41q17 -22 14 -76q-2 -28 -7.5 -48.5t-18 -36.5t-26 -27t-39.5 -19t-50 -12
t-66.5 -6.5t-80.5 -3t-99 -0.5q-175 0 -236 17.5t-61 82.5q0 64 31 95t90 54q42 15 53.5 38.5t7.5 82.5q-6 69 -23.5 89t-68.5 20q-60 -1 -118 -1t-115 0.5t-80 0.5q-57 -1 -80.5 -16.5t-61.5 -75.5q-19 -30 -27 -48t-8.5 -36t13.5 -30t43 -24q75 -27 72 -86
q-1 -99 -76 -129t-307 -30q-141 0 -194 33t-36 110zM632 684q-17 -42 10 -51q16 -5 111 -3q29 1 52 1q31 0 78 -2q85 -4 98.5 21.5t9.5 182.5q-1 12 -1 19t-0.5 18t-0.5 21q-1 26 -2 70q-5 136 -13 157q-11 19 -38 19q-10 0 -16.5 -1.5t-13 -5t-13.5 -12.5t-14 -19
t-19.5 -31t-25.5 -42.5t-35.5 -58.5t-46.5 -74q-106 -174 -120 -209zM638.5 1573q-1.5 13 0.5 22.5t7.5 32.5t8.5 39q2 15 4 35t3 29.5t4.5 22t10.5 17.5t18.5 11.5t31 8.5t46.5 3.5t65 1.5q45 0 73 -1t46.5 -6t26.5 -9t10 -17t0 -22.5t-7 -32.5t-8 -41t-6 -41t-4 -32.5
t-7.5 -22.5t-15.5 -17t-30 -9t-49.5 -6t-73.5 -1q-44 0 -72 1t-46 6.5t-26.5 10t-10 17.5zM1099 1580.5q-1 13.5 1 23t7 29.5t7 34q2 13 4 34t3.5 30.5t7 23t16.5 19t30.5 12t49.5 8.5t73 2q39 0 65 -1.5t45 -4t28.5 -9t14.5 -12t4 -18t-3 -22t-6.5 -28.5t-7.5 -34
q-2 -15 -4.5 -37.5t-4 -31.5t-7.5 -22.5t-16 -18t-30 -10.5t-49.5 -7.5t-73.5 -1.5q-43 0 -72.5 2t-46.5 8.5t-25.5 12.5t-9.5 19.5z" />
    <glyph glyph-name="Aring" unicode="&#xc5;" horiz-adv-x="1576" 
d="M-89 70q1 19 7 43q4 14 8 25.5t10 21.5t9.5 16.5t12 15l12.5 12.5t15.5 12.5t16 11t20 12.5t21.5 14q47 29 77.5 64t88.5 124q298 447 393 596q44 71 48 99t-23 45q-3 2 -14.5 9.5t-15.5 11t-13.5 12t-12 16t-6 18.5t-2.5 24.5t6 29.5q12 46 36.5 71.5t51.5 31.5t53 7
t44.5 4.5t21.5 16.5q4 12 0 20.5t-15.5 21t-17.5 23.5q-26 43 -10 100q24 92 131.5 143.5t292.5 51.5q181 0 254 -51.5t47 -143.5q-15 -65 -74 -114q-19 -16 -42.5 -29.5t-37 -22t-16.5 -18.5q-5 -21 1 -28t23.5 -19.5t30.5 -40.5q12 -21 12.5 -55t-4 -80t-3.5 -72
q16 -278 28 -669q2 -102 9.5 -134.5t41.5 -56.5q37 -31 48 -57.5t0 -71.5q-7 -23 -13 -39t-16 -31t-17 -24.5t-24 -18t-28 -13.5t-37.5 -9t-44.5 -5.5t-57.5 -3t-68.5 -1.5h-84q-201 -1 -243 5q-64 9 -73 46q-6 24 7 72q10 38 34.5 61t76.5 47q58 21 70 43t10 100
q0 16 0.5 39.5t0.5 31t-2 21t-6 16t-13 7.5t-21.5 5.5t-32.5 0.5h-318q-51 0 -70 -16t-66 -95q-8 -14 -13 -22q-49 -76 -51.5 -100.5t35.5 -42.5q6 -5 15.5 -12t14.5 -11.5t11.5 -12.5t8.5 -16t1.5 -20.5t-4.5 -28.5q-23 -87 -76 -104.5t-242 -17.5h-6q-138 2 -175 14
q-51 16 -47 74zM611.5 681q5.5 -15 58.5 -15h233q57 0 73.5 19t14.5 79q-9 170 -12 326q0 65 -5 82.5t-28 17.5q-7 0 -12 -1.5t-10.5 -5.5t-9.5 -7.5t-10.5 -12.5t-11 -15.5t-14 -21t-16.5 -24.5q-33 -57 -125.5 -202.5t-95.5 -149.5q-35 -54 -29.5 -69zM973 1552
q-12 -44 15.5 -78t84.5 -34q45 0 77.5 23t43.5 59q12 46 -14.5 80t-83.5 34q-46 0 -79 -23t-44 -61z" />
    <glyph glyph-name="AE" unicode="&#xc6;" horiz-adv-x="2127" 
d="M-111.5 55.5q-0.5 16.5 5.5 38.5q7 25 16 45t16 32t23.5 26t22.5 19t30 20t31 20q44 27 81 65.5t105 122.5q305 364 498 609q26 35 39 57.5t16 39.5t-6 26.5t-31 15.5q-70 21 -83 34q-14 14 -7 40q12 46 25.5 75.5t43 50t52 30.5t82.5 15.5t102 6t142 0.5h32
q89 0 351.5 -4.5t400.5 -1.5q42 0 103 9t98 9q29 0 46 -3t34 -14.5t26.5 -34.5t18 -61.5t14.5 -97.5q18 -174 -16 -242.5t-154 -78.5q-33 -3 -55 6.5t-35 33t-20 49.5t-13 68q-7 48 -15.5 71t-34 35.5t-57 14.5t-100.5 2h-13.5h-12.5h-15q-55 1 -88 0t-61 -8.5t-41 -14
t-26.5 -27t-19.5 -38t-18 -55.5q-28 -90 -47 -172q-12 -48 6 -60t103 -12q82 0 106.5 12.5t44.5 63.5q22 52 38.5 68t58.5 22q50 7 65 -30.5t10 -118.5q-10 -314 -151 -328q-49 -4 -64.5 11.5t-23.5 62.5q-6 43 -26.5 53t-102.5 10q-95 0 -118.5 -23.5t-57.5 -147.5
q-5 -15 -7 -23q-35 -126 -33 -158q2 -39 43 -51q34 -9 189 -9q119 0 178.5 29.5t112.5 118.5q57 97 80 121q39 41 96 41q40 0 66 -7t39 -24t13.5 -40.5t-11.5 -61.5t-33.5 -82.5t-55.5 -106.5q-83 -153 -106 -183q-35 -46 -82 -53q-14 -3 -33 -3q-30 0 -94 10t-123 10
q-56 0 -299.5 -4t-367.5 -4q-112 0 -140 10q-41 15 -36 73q2 19 8 44q12 48 34.5 68t90.5 53q13 7 20 10q52 22 77 50.5t40 84.5q18 60 12 78t-55 18h-279q-56 0 -78 -14.5t-80 -85.5q-15 -18 -24 -29q-33 -41 -47.5 -62t-21 -39t1 -27t28.5 -17q4 -4 11.5 -10l12.5 -10
t10 -11t7 -13.5t2 -17.5t-4 -24q-9 -33 -21.5 -55.5t-35 -38t-45.5 -24t-66.5 -13t-82 -5.5t-107.5 -1q-32 1 -52 1.5t-43 3t-35.5 7.5t-25 12.5t-17 19t-5 28zM678.5 682q4.5 -16 50.5 -16h201q48 0 65.5 16t30.5 61l88 316q26 92 21 112q-6 18 -29 19q-20 0 -36.5 -16
t-61.5 -74q-34 -42 -147.5 -175t-147.5 -175q-39 -52 -34.5 -68z" />
    <glyph glyph-name="Ccedilla" unicode="&#xc7;" horiz-adv-x="1437" 
d="M86 602q6 114 38.5 226.5t86.5 210.5t129 181t162 141t190 89t209 27q176 -8 279 -111q10 -10 20 -21.5t14.5 -17t11 -10.5t13.5 -7t18 -3q24 0 36 21.5t15.5 46.5t21.5 45t52 18q19 -1 32.5 -6.5t24 -18t17 -25t13 -39t11 -47.5t12.5 -62.5t15 -72.5q24 -107 -5.5 -172
t-117.5 -77q-48 -5 -81.5 0.5t-62.5 28.5t-46.5 44.5t-50.5 69.5q-44 66 -92.5 95t-128.5 32q-114 5 -214 -66t-161 -193.5t-68 -266.5q-6 -170 87.5 -268t256.5 -103q172 -5 346 90q45 18 76.5 -0.5t32 -58.5t-30.5 -93q-74 -106 -204 -173t-285 -79q100 -81 82 -204
q-25 -156 -258 -156q-99 -2 -149.5 26t-37.5 97q6 48 48.5 78t107.5 35l59 6q30 3 35 28q2 11 -2.5 21.5t-16 20.5t-23 17.5t-33 17.5t-35.5 15.5t-41 16t-41 16.5q-183 62 -279.5 215t-87.5 375z" />
    <glyph glyph-name="Egrave" unicode="&#xc8;" horiz-adv-x="1425" 
d="M-43 137q6 44 38.5 72t94.5 49q51 18 78 56t63 155q144 471 160 565q8 58 -3 90t-50 56q-11 6 -34 18.5t-31 18.5t-19.5 18.5t-14 29t0.5 40.5q10 80 57.5 109.5t157.5 29.5q81 0 289.5 -4.5t275.5 -3.5q77 1 138.5 2.5t77 2t89.5 -0.5q44 -1 69.5 -7.5t43 -29.5
t26.5 -53t21 -90q13 -60 18.5 -90.5t10 -68.5t0.5 -55.5t-14.5 -36t-30.5 -27.5t-50 -15q-36 -5 -62 -0.5t-46 20.5t-33 32.5t-34.5 46.5t-39.5 50q-45 51 -104 64.5t-203 13.5q-89 0 -120 -21t-52 -90q-10 -33 -27 -84.5t-26 -83t-10 -47.5q-1 -29 23.5 -36t105.5 -9
q34 -1 56.5 1.5t35 5.5t21.5 16t11.5 20t10.5 31q5 20 8 29t11 22.5t22 19t34 5.5q33 0 55.5 -11.5t35.5 -35.5t19 -47.5t11 -61.5q31 -314 -147 -309q-38 1 -55.5 20t-32.5 72q-10 34 -38.5 50t-103.5 16h-64t-44.5 -8t-30 -14t-20.5 -29.5t-17 -41t-17 -63.5
q-9 -35 -15 -55q-14 -50 -20 -80.5t-2.5 -55.5t14.5 -37.5t39 -21t62.5 -10.5t92.5 -2q99 0 150 3.5t95 17.5t68.5 37.5t55.5 68.5q9 13 22 34.5t18.5 29.5t16 20.5t19 16t22 6.5t31.5 3q101 -5 117.5 -66.5t-50.5 -219.5q-7 -16 -20.5 -49l-18 -44t-15.5 -33t-18 -28.5
t-19.5 -19t-26 -15.5t-31.5 -6.5t-41 -3.5q-91 0 -198.5 1t-166.5 1q-50 0 -254 -7.5t-325 -10.5q-132 -2 -171 28.5t-26 124.5zM703 1756q1 8 6.5 18t21.5 14.5t43 8t66 3.5h93.5t62 -5t43.5 -8t25.5 -20.5t23 -30t20.5 -47.5l3 -6t2.5 -5.5t2.5 -6.5q5 -13 14 -32
t14.5 -30t10 -25.5t3.5 -23t-7.5 -17.5t-20 -14t-36.5 -8t-56 -3q-58 0 -79.5 -0.5t-54 5.5t-40 9t-29 23t-30 33.5t-35.5 53.5q-8 12 -23 32.5t-22 31t-15 26.5t-7 24z" />
    <glyph glyph-name="Eacute" unicode="&#xc9;" horiz-adv-x="1425" 
d="M-43 137q6 44 38.5 72t94.5 49q51 18 78 56t63 155q144 471 160 565q8 58 -3 90t-50 56q-11 6 -34 18.5t-31 18.5t-19.5 18.5t-14 29t0.5 40.5q10 80 57.5 109.5t157.5 29.5q81 0 289.5 -4.5t275.5 -3.5q77 1 138.5 2.5t77 2t89.5 -0.5q44 -1 69.5 -7.5t43 -29.5
t26.5 -53t21 -90q13 -60 18.5 -90.5t10 -68.5t0.5 -55.5t-14.5 -36t-30.5 -27.5t-50 -15q-36 -5 -62 -0.5t-46 20.5t-33 32.5t-34.5 46.5t-39.5 50q-45 51 -104 64.5t-203 13.5q-89 0 -120 -21t-52 -90q-10 -33 -27 -84.5t-26 -83t-10 -47.5q-1 -29 23.5 -36t105.5 -9
q34 -1 56.5 1.5t35 5.5t21.5 16t11.5 20t10.5 31q5 20 8 29t11 22.5t22 19t34 5.5q33 0 55.5 -11.5t35.5 -35.5t19 -47.5t11 -61.5q31 -314 -147 -309q-38 1 -55.5 20t-32.5 72q-10 34 -38.5 50t-103.5 16h-64t-44.5 -8t-30 -14t-20.5 -29.5t-17 -41t-17 -63.5
q-9 -35 -15 -55q-14 -50 -20 -80.5t-2.5 -55.5t14.5 -37.5t39 -21t62.5 -10.5t92.5 -2q99 0 150 3.5t95 17.5t68.5 37.5t55.5 68.5q9 13 22 34.5t18.5 29.5t16 20.5t19 16t22 6.5t31.5 3q101 -5 117.5 -66.5t-50.5 -219.5q-7 -16 -20.5 -49l-18 -44t-15.5 -33t-18 -28.5
t-19.5 -19t-26 -15.5t-31.5 -6.5t-41 -3.5q-91 0 -198.5 1t-166.5 1q-50 0 -254 -7.5t-325 -10.5q-132 -2 -171 28.5t-26 124.5zM756.5 1566q1.5 8 10.5 22.5t18 25.5t24 29.5t25 31.5q6 7 16 21q20 26 28 37t24.5 27t22 21t25.5 12.5t29 8.5t39 3.5t49.5 2.5h65.5
q39 0 67 -2t44 -7.5t26 -10.5t8.5 -15t-4 -18t-16 -22.5t-23.5 -24.5t-29.5 -28.5t-31.5 -30.5q-39 -39 -54 -53.5t-42 -33.5t-36.5 -23t-42 -9.5t-54 -5.5h-75.5q-35 0 -58 3t-36.5 8t-17 14t-2 17z" />
    <glyph glyph-name="Ecircumflex" unicode="&#xca;" horiz-adv-x="1425" 
d="M-43 137q6 44 38.5 72t94.5 49q51 18 78 56t63 155q144 471 160 565q8 58 -3 90t-50 56q-11 6 -34 18.5t-31 18.5t-19.5 18.5t-14 29t0.5 40.5q10 80 57.5 109.5t157.5 29.5q81 0 289.5 -4.5t275.5 -3.5q77 1 138.5 2.5t77 2t89.5 -0.5q44 -1 69.5 -7.5t43 -29.5
t26.5 -53t21 -90q13 -60 18.5 -90.5t10 -68.5t0.5 -55.5t-14.5 -36t-30.5 -27.5t-50 -15q-36 -5 -62 -0.5t-46 20.5t-33 32.5t-34.5 46.5t-39.5 50q-45 51 -104 64.5t-203 13.5q-89 0 -120 -21t-52 -90q-10 -33 -27 -84.5t-26 -83t-10 -47.5q-1 -29 23.5 -36t105.5 -9
q34 -1 56.5 1.5t35 5.5t21.5 16t11.5 20t10.5 31q5 20 8 29t11 22.5t22 19t34 5.5q33 0 55.5 -11.5t35.5 -35.5t19 -47.5t11 -61.5q31 -314 -147 -309q-38 1 -55.5 20t-32.5 72q-10 34 -38.5 50t-103.5 16h-64t-44.5 -8t-30 -14t-20.5 -29.5t-17 -41t-17 -63.5
q-9 -35 -15 -55q-14 -50 -20 -80.5t-2.5 -55.5t14.5 -37.5t39 -21t62.5 -10.5t92.5 -2q99 0 150 3.5t95 17.5t68.5 37.5t55.5 68.5q9 13 22 34.5t18.5 29.5t16 20.5t19 16t22 6.5t31.5 3q101 -5 117.5 -66.5t-50.5 -219.5q-7 -16 -20.5 -49l-18 -44t-15.5 -33t-18 -28.5
t-19.5 -19t-26 -15.5t-31.5 -6.5t-41 -3.5q-91 0 -198.5 1t-166.5 1q-50 0 -254 -7.5t-325 -10.5q-132 -2 -171 28.5t-26 124.5zM553 1548.5q-4 22.5 69 82.5q29 28 46 44q45 45 61 60.5t47.5 38.5t43 27t48 11t64 7h88.5h94.5t65 -7t46.5 -11.5t32 -26.5t30.5 -38.5
t34.5 -60.5q9 -14 22 -34.5t19 -30t13 -24t7 -20.5t-3 -14.5t-14 -12t-28 -7.5t-42.5 -5t-61.5 -1h-24q-48 0 -67.5 1t-43 8.5t-36.5 22.5t-30 44q-6 10 -12.5 22t-10 17.5t-8 11.5t-9 8t-11.5 2q-8 0 -13 -1.5t-11.5 -7t-11 -10.5t-17.5 -19.5t-23 -25.5q-46 -52 -79 -62.5
t-124 -10.5h-30q-117 0 -121 22.5z" />
    <glyph glyph-name="Edieresis" unicode="&#xcb;" horiz-adv-x="1425" 
d="M-43 137q6 44 38.5 72t94.5 49q51 18 78 56t63 155q144 471 160 565q8 58 -3 90t-50 56q-11 6 -34 18.5t-31 18.5t-19.5 18.5t-14 29t0.5 40.5q10 80 57.5 109.5t157.5 29.5q81 0 289.5 -4.5t275.5 -3.5q77 1 138.5 2.5t77 2t89.5 -0.5q44 -1 69.5 -7.5t43 -29.5
t26.5 -53t21 -90q13 -60 18.5 -90.5t10 -68.5t0.5 -55.5t-14.5 -36t-30.5 -27.5t-50 -15q-36 -5 -62 -0.5t-46 20.5t-33 32.5t-34.5 46.5t-39.5 50q-45 51 -104 64.5t-203 13.5q-89 0 -120 -21t-52 -90q-10 -33 -27 -84.5t-26 -83t-10 -47.5q-1 -29 23.5 -36t105.5 -9
q34 -1 56.5 1.5t35 5.5t21.5 16t11.5 20t10.5 31q5 20 8 29t11 22.5t22 19t34 5.5q33 0 55.5 -11.5t35.5 -35.5t19 -47.5t11 -61.5q31 -314 -147 -309q-38 1 -55.5 20t-32.5 72q-10 34 -38.5 50t-103.5 16h-64t-44.5 -8t-30 -14t-20.5 -29.5t-17 -41t-17 -63.5
q-9 -35 -15 -55q-14 -50 -20 -80.5t-2.5 -55.5t14.5 -37.5t39 -21t62.5 -10.5t92.5 -2q99 0 150 3.5t95 17.5t68.5 37.5t55.5 68.5q9 13 22 34.5t18.5 29.5t16 20.5t19 16t22 6.5t31.5 3q101 -5 117.5 -66.5t-50.5 -219.5q-7 -16 -20.5 -49l-18 -44t-15.5 -33t-18 -28.5
t-19.5 -19t-26 -15.5t-31.5 -6.5t-41 -3.5q-91 0 -198.5 1t-166.5 1q-50 0 -254 -7.5t-325 -10.5q-132 -2 -171 28.5t-26 124.5zM565.5 1573q-1.5 13 0.5 22.5t7.5 32t8.5 39.5q2 16 4.5 39.5t3.5 32t7 22t16 18t30 10t48.5 6.5t72.5 1q45 0 73 -1t46.5 -6t26.5 -9t10 -17
t0 -22.5t-7 -32.5t-8 -41t-6 -41t-4 -32.5t-7.5 -22.5t-15.5 -17t-30 -9t-49.5 -6t-73.5 -1q-44 0 -72 1t-46 6.5t-26 10t-9.5 17.5zM1024.5 1588.5q0.5 12.5 3 22t6.5 26.5t6 30t3.5 31t2.5 27t5 21.5t10.5 18.5t19 13t31.5 10.5t47 5.5t66 2q44 0 72.5 -1.5t46.5 -7
t26.5 -10t10 -18t-0.5 -22.5t-7.5 -31.5t-8.5 -38.5q-2 -15 -4.5 -37.5l-3.5 -31.5t-7 -22.5t-16.5 -18t-30 -10.5t-49 -7.5t-73.5 -1.5q-38 0 -65 2.5t-44.5 5.5t-27.5 10.5t-14.5 13.5t-4 18.5z" />
    <glyph glyph-name="Igrave" unicode="&#xcc;" horiz-adv-x="835" 
d="M-46 101.5q1 16.5 5 37.5q6 44 37 72t100 51q29 11 45.5 22t37 38t39.5 75t42 127q81 259 119 457q24 98 16 137.5t-63 57.5q-58 20 -77.5 44.5t-12.5 84.5q6 57 41 86t115.5 40.5t236.5 10.5q206 0 277.5 -26t54.5 -111q-10 -61 -39 -89t-105 -55q-54 -20 -81.5 -52
t-53.5 -116q-112 -386 -149 -565q-21 -93 -12.5 -127.5t63.5 -52.5q52 -18 74 -44t18 -71q-12 -92 -82.5 -116.5t-290.5 -24.5q-48 0 -81 0.5t-68.5 1.5t-59 3.5t-47.5 6.5t-38 10t-27.5 14t-19.5 18.5t-10.5 24.5t-3.5 30.5zM404 1754q1 8 6.5 18t21.5 14.5t43 8t66 3.5
h93.5t62 -5t43.5 -8t25.5 -20.5t23 -30t20.5 -47.5l3 -6t2.5 -5.5t2.5 -6.5q5 -13 14 -32t14.5 -30t10 -25.5t3.5 -23t-7.5 -17.5t-20 -14t-36.5 -8t-56 -3q-58 0 -79.5 -0.5t-54 5.5t-40 9t-29 23t-30 33.5t-35.5 53.5q-8 12 -23 32.5t-22 31t-15 26.5t-7 24z" />
    <glyph glyph-name="Iacute" unicode="&#xcd;" horiz-adv-x="835" 
d="M-46 101.5q1 16.5 5 37.5q6 44 37 72t100 51q29 11 45.5 22t37 38t39.5 75t42 127q81 259 119 457q24 98 16 137.5t-63 57.5q-58 20 -77.5 44.5t-12.5 84.5q6 57 41 86t115.5 40.5t236.5 10.5q206 0 277.5 -26t54.5 -111q-10 -61 -39 -89t-105 -55q-54 -20 -81.5 -52
t-53.5 -116q-112 -386 -149 -565q-21 -93 -12.5 -127.5t63.5 -52.5q52 -18 74 -44t18 -71q-12 -92 -82.5 -116.5t-290.5 -24.5q-48 0 -81 0.5t-68.5 1.5t-59 3.5t-47.5 6.5t-38 10t-27.5 14t-19.5 18.5t-10.5 24.5t-3.5 30.5zM457.5 1564q1.5 8 10.5 22.5t18 25.5t24 29.5
t25 31.5q6 7 16 21q20 26 28 37t24.5 27t22 21t25.5 12.5t29 8.5t39 3.5t49.5 2.5h65.5q35 0 61 -2t43.5 -5t26.5 -9.5t13 -12t0 -15.5t-8.5 -17.5t-17 -21t-22.5 -23t-27.5 -26t-28.5 -27.5q-40 -39 -54 -53.5t-41.5 -34t-36.5 -23t-41.5 -9t-54 -5.5h-75.5q-35 0 -58 3
t-36.5 8t-17 14t-2 17z" />
    <glyph glyph-name="Icircumflex" unicode="&#xce;" horiz-adv-x="835" 
d="M-46 101.5q1 16.5 5 37.5q6 44 37 72t100 51q29 11 45.5 22t37 38t39.5 75t42 127q81 259 119 457q24 98 16 137.5t-63 57.5q-58 20 -77.5 44.5t-12.5 84.5q6 57 41 86t115.5 40.5t236.5 10.5q206 0 277.5 -26t54.5 -111q-10 -61 -39 -89t-105 -55q-54 -20 -81.5 -52
t-53.5 -116q-112 -386 -149 -565q-21 -93 -12.5 -127.5t63.5 -52.5q52 -18 74 -44t18 -71q-12 -92 -82.5 -116.5t-290.5 -24.5q-48 0 -81 0.5t-68.5 1.5t-59 3.5t-47.5 6.5t-38 10t-27.5 14t-19.5 18.5t-10.5 24.5t-3.5 30.5zM254 1546.5q-4 22.5 69 82.5q29 28 46 44
q45 45 61 60.5t47.5 38.5t43 27t48 11t64 7h88.5h94.5t65 -7t46.5 -11.5t32 -26.5t30.5 -38.5t34.5 -60.5q9 -14 22 -34.5t19 -30t13 -24t7 -20.5t-3 -14.5t-14 -12t-28 -7.5t-42.5 -5t-61.5 -1q-103 0 -125 5q-38 9 -66 54q-5 7 -10 16q-6 10 -12.5 22t-10 18t-8 12t-9 8
t-11.5 2q-8 0 -13 -1.5t-11.5 -7t-11 -10.5t-17.5 -19.5t-23 -25.5q-46 -52 -79 -62.5t-124 -10.5h-30q-117 0 -121 22.5z" />
    <glyph glyph-name="Idieresis" unicode="&#xcf;" horiz-adv-x="835" 
d="M-46 101.5q1 16.5 5 37.5q6 44 37 72t100 51q29 11 45.5 22t37 38t39.5 75t42 127q81 259 119 457q24 98 16 137.5t-63 57.5q-58 20 -77.5 44.5t-12.5 84.5q6 57 41 86t115.5 40.5t236.5 10.5q206 0 277.5 -26t54.5 -111q-10 -61 -39 -89t-105 -55q-54 -20 -81.5 -52
t-53.5 -116q-112 -386 -149 -565q-21 -93 -12.5 -127.5t63.5 -52.5q52 -18 74 -44t18 -71q-12 -92 -82.5 -116.5t-290.5 -24.5q-48 0 -81 0.5t-68.5 1.5t-59 3.5t-47.5 6.5t-38 10t-27.5 14t-19.5 18.5t-10.5 24.5t-3.5 30.5zM264.5 1571q-1.5 13 0.5 22.5t7.5 32t8.5 39.5
q2 16 4.5 39.5t3.5 32t7 22t16 18t30 10t48.5 6.5t72.5 1q45 0 73 -1t46.5 -6t26.5 -9t10 -17t0 -22.5t-7 -32.5t-8 -41t-6 -41t-4 -32.5t-7.5 -22.5t-15.5 -17t-30 -9t-49.5 -6t-73.5 -1q-44 0 -72 1t-46 6.5t-26 10t-9.5 17.5zM723.5 1586.5q0.5 12.5 3 22t6.5 26.5t6 30
t3.5 31t2.5 27t5 21.5t10.5 18.5t19 13t31.5 10.5t47 5.5t66 2q44 0 72.5 -1.5t46.5 -7t26.5 -10t10 -18t-0.5 -22.5t-7.5 -31.5t-8.5 -38.5q-2 -15 -4.5 -37.5l-3.5 -31.5t-7 -22.5t-16.5 -18t-30 -10.5t-49 -7.5t-73.5 -1.5q-38 0 -65 2.5t-44.5 5.5t-27.5 10.5
t-14.5 13.5t-4 18.5z" />
    <glyph glyph-name="Eth" unicode="&#xd0;" horiz-adv-x="1538" 
d="M-41 143q9 51 39 79t98 52q38 12 59.5 33t42 69t50.5 152q19 70 22 82q-32 -1 -53 -1t-42.5 1t-33.5 2.5t-23.5 5.5t-16.5 8.5t-9 13t-3 17t4 23t7.5 28.5t12.5 35q17 46 29 69t26.5 41.5t39 25t53.5 9t83 1.5q9 36 23 98q22 98 13.5 133t-63.5 56q-51 20 -71.5 45.5
t-9.5 78.5q17 90 72.5 118t201.5 28q96 0 252.5 -1t189.5 -1q180 0 309 -55t196.5 -156.5t85.5 -244t-23 -316.5q-143 -680 -883 -680h-496q-102 -2 -149.5 36.5t-32.5 114.5zM520 333q-2 -38 33 -49q28 -8 145 -8q97 0 177.5 34t136 93t91 133.5t52.5 161.5
q22 103 16.5 188.5t-34 147.5t-89 96.5t-147.5 34.5h-16q-36 0 -51 -0.5t-36 -5.5t-28.5 -12.5t-20 -27t-20 -42.5t-20.5 -65q-16 -47 -39 -127q34 1 90 2q154 5 173 -13t-21 -129q-1 -1 -1 -2q-32 -87 -46 -106q-22 -27 -77 -30q-7 0 -180 3h-18q-27 -97 -35 -131
q-34 -121 -35 -146z" />
    <glyph glyph-name="Ntilde" unicode="&#xd1;" horiz-adv-x="1662" 
d="M-49.5 99.5q0.5 16.5 4.5 37.5q14 82 129 123q37 14 56.5 31.5t45 71t62.5 165.5q82 246 125 463q23 87 12 130t-68 57q-45 17 -64 44t-9 85q6 33 15.5 54.5t30 37.5t44 24.5t69.5 13.5t93 6.5t127 2.5t131 -2.5t94 -14.5t66 -33t36 -56t15 -85q10 -117 120 -518
q10 -41 19 -86t13 -66t10 -40.5t13 -26t19 -6.5q9 0 15.5 3t11.5 11t9 17t8.5 26t8 32.5t10.5 42t13 50.5q5 15 25.5 76t35.5 111t31 114q12 40 16 56t7.5 43t-1.5 40t-18 28t-37 26q-42 25 -56 47t-7 72q13 87 80 114t231 27q179 0 233 -28t37 -122q-8 -50 -36 -75.5
t-82 -46.5q-21 -10 -32.5 -18t-24 -18t-23.5 -34t-21 -47t-26 -77t-30 -103.5t-40 -145.5q-23 -91 -42.5 -175t-34 -157.5t-22.5 -115.5t-18.5 -104.5t-11.5 -69.5q-13 -77 -56.5 -107.5t-135.5 -30.5q-36 0 -65 1t-53 5t-41.5 6.5t-33 11.5t-25 13.5t-19.5 18.5t-14.5 20.5
t-11.5 26t-10 29t-10 34.5q-133 501 -188 701q-5 21 -10.5 48.5t-9 42.5t-9 30t-14 21.5t-21.5 6.5q-11 0 -20 -14t-19.5 -45t-19 -63.5t-23 -89t-27.5 -101.5q-15 -49 -29 -100.5t-29.5 -107t-22.5 -81.5q-15 -73 -6.5 -95.5t53.5 -43.5q39 -22 55 -46.5t10 -66.5
q-8 -65 -34.5 -96t-81 -42t-168.5 -11q-42 0 -72.5 0.5t-62 2t-53.5 4t-44 7t-36 10.5t-27 14.5t-19.5 19.5t-10.5 25t-3.5 30.5zM637 1612q6 101 82 161.5t217 61.5q57 1 108 -9.5t104 -28.5t75 -23q114 -31 155 -31q36 0 63 11.5t40 24.5t32 24.5t41 11.5q25 0 37 -26.5
t4 -80.5q-13 -102 -69 -155.5t-183 -53.5q-33 0 -63.5 6.5t-91 23t-125.5 30.5q-121 34 -180 34q-37 0 -67 -12.5t-46 -27.5t-36 -27.5t-38 -12.5q-26 0 -44 27t-15 72z" />
    <glyph glyph-name="Ograve" unicode="&#xd2;" horiz-adv-x="1579" 
d="M111.5 391q-46.5 172 1.5 397q27 115 77 218.5t129 195.5t178 155.5t231.5 93.5t281.5 15q313 -32 460.5 -238t94.5 -526q-43 -255 -163 -428t-315.5 -251.5t-449.5 -47.5q-206 25 -342.5 134.5t-183 281.5zM485 745q-43 -187 15.5 -317.5t214.5 -153.5q186 -31 304 80
t155 314q21 96 16.5 182t-29 152.5t-79.5 110t-136 54.5q-91 15 -170 -13t-135 -90t-95.5 -142.5t-60.5 -176.5zM766.5 1762q0.5 8 6 18t21.5 14.5t43 8t66 3.5q79 0 109.5 -1.5t64.5 -5.5t45 -17.5t23 -32.5t28 -55q4 -11 7 -17q5 -13 14 -32t14.5 -30t10 -25.5t3.5 -23
t-7.5 -17.5t-20 -14t-36.5 -8t-56 -3h-69t-49 3t-38.5 6t-27 13t-25.5 20.5t-23.5 31.5t-30.5 43q-3 5 -5 8q-8 13 -23 33t-22 30.5t-15 26t-7.5 23.5z" />
    <glyph glyph-name="Oacute" unicode="&#xd3;" horiz-adv-x="1579" 
d="M111.5 391q-46.5 172 1.5 397q27 115 77 218.5t129 195.5t178 155.5t231.5 93.5t281.5 15q313 -32 460.5 -238t94.5 -526q-43 -255 -163 -428t-315.5 -251.5t-449.5 -47.5q-206 25 -342.5 134.5t-183 281.5zM485 745q-43 -187 15.5 -317.5t214.5 -153.5q186 -31 304 80
t155 314q21 96 16.5 182t-29 152.5t-79.5 110t-136 54.5q-91 15 -170 -13t-135 -90t-95.5 -142.5t-60.5 -176.5zM820 1572q1 8 10.5 22.5t18 25.5t24 29.5t24.5 31.5q62 81 79 96q34 31 97 36q31 2 123 2q39 0 67 -2t44 -7.5t26 -10.5t8.5 -15.5t-4 -18t-16 -22.5
t-23.5 -24.5t-30 -29t-31 -30.5q-40 -39 -54 -53.5t-41.5 -34t-36.5 -23t-41.5 -9t-54 -5.5h-75.5q-35 0 -58 3t-36.5 8t-17 14t-2.5 17z" />
    <glyph glyph-name="Ocircumflex" unicode="&#xd4;" horiz-adv-x="1579" 
d="M111.5 391q-46.5 172 1.5 397q27 115 77 218.5t129 195.5t178 155.5t231.5 93.5t281.5 15q313 -32 460.5 -238t94.5 -526q-43 -255 -163 -428t-315.5 -251.5t-449.5 -47.5q-206 25 -342.5 134.5t-183 281.5zM485 745q-43 -187 15.5 -317.5t214.5 -153.5q186 -31 304 80
t155 314q21 96 16.5 182t-29 152.5t-79.5 110t-136 54.5q-91 15 -170 -13t-135 -90t-95.5 -142.5t-60.5 -176.5zM616 1554.5q-4 22.5 69 82.5q29 28 46 44q45 45 61 60.5t47.5 38.5t43 27t48 11t64 7h88.5h94.5t65 -7t46.5 -11.5t32 -26.5t30.5 -38.5t34.5 -60.5
q9 -14 22 -34.5t19 -30t13 -24t7 -20.5t-3 -14.5t-14 -12t-28 -7.5t-42.5 -5t-61.5 -1h-24q-48 0 -67.5 1t-42.5 8.5t-36 22.5t-30 44q-6 10 -12.5 22t-10 17.5t-8 11.5t-9 8t-11.5 2q-6 0 -11 -1.5t-9 -3.5t-10 -8t-10.5 -11t-15.5 -17t-20 -22q-46 -53 -80 -63.5
t-127 -10.5h-27q-117 0 -121 22.5z" />
    <glyph glyph-name="Otilde" unicode="&#xd5;" horiz-adv-x="1579" 
d="M111.5 391q-46.5 172 1.5 397q27 115 77 218.5t129 195.5t178 155.5t231.5 93.5t281.5 15q313 -32 460.5 -238t94.5 -526q-43 -255 -163 -428t-315.5 -251.5t-449.5 -47.5q-206 25 -342.5 134.5t-183 281.5zM485 745q-43 -187 15.5 -317.5t214.5 -153.5q186 -31 304 80
t155 314q21 96 16.5 182t-29 152.5t-79.5 110t-136 54.5q-91 15 -170 -13t-135 -90t-95.5 -142.5t-60.5 -176.5zM594 1620q6 101 82 161.5t217 61.5q57 1 108 -9.5t104 -28.5t75 -23q114 -31 155 -31q36 0 63 11.5t40 24.5t32 24.5t41 11.5q25 0 37 -26.5t4 -80.5
q-13 -102 -69 -155.5t-183 -53.5q-33 0 -63.5 6.5t-91 23t-125.5 30.5q-125 35 -180 35q-37 0 -67 -12.5t-46 -27.5t-36 -27.5t-38 -12.5q-26 0 -44 26.5t-15 71.5z" />
    <glyph glyph-name="Odieresis" unicode="&#xd6;" horiz-adv-x="1579" 
d="M111.5 391q-46.5 172 1.5 397q27 115 77 218.5t129 195.5t178 155.5t231.5 93.5t281.5 15q313 -32 460.5 -238t94.5 -526q-43 -255 -163 -428t-315.5 -251.5t-449.5 -47.5q-206 25 -342.5 134.5t-183 281.5zM485 745q-43 -187 15.5 -317.5t214.5 -153.5q186 -31 304 80
t155 314q21 96 16.5 182t-29 152.5t-79.5 110t-136 54.5q-91 15 -170 -13t-135 -90t-95.5 -142.5t-60.5 -176.5zM626.5 1577q-1.5 13 0.5 22.5t7.5 32t8.5 39.5q2 16 4.5 39.5t3.5 32t7 22t16 18t30 10t48.5 6.5t72.5 1q45 0 73 -1t46.5 -6t26.5 -9t10.5 -17t0.5 -22.5
t-7 -33t-8 -40.5t-6 -41t-4 -33t-7.5 -22t-16 -17t-30.5 -9t-49.5 -6t-73.5 -1q-44 0 -72 1t-46 6.5t-26 10t-9.5 17.5zM1087 1584.5q-1 13.5 1 23t7 29.5t7 34q2 13 4 34t3.5 30.5t7 23t16.5 19t30.5 12t49.5 8.5t73 2q44 0 72.5 -1.5t46.5 -7t26.5 -10t10 -18t-0.5 -22.5
t-7.5 -31.5t-8.5 -38.5q-2 -15 -4.5 -37.5l-3.5 -31.5t-7 -22.5t-16.5 -18t-30 -10.5t-49 -7.5t-73.5 -1.5q-43 0 -72.5 2t-46.5 8.5t-25.5 12.5t-9.5 19.5z" />
    <glyph glyph-name="Oslash" unicode="&#xd8;" horiz-adv-x="1579" 
d="M88 -91q-12 32 67 134q32 41 91 111q-107 110 -142 270.5t9 363.5q27 115 77 218.5t129 195.5t178 155.5t231.5 93.5t281.5 15q125 -12 231 -57q24 33 37.5 51.5t29.5 38t22.5 27.5t20 17.5t17 11.5t17.5 4.5t19.5 1.5t24.5 -1.5t31 -0.5q93 -2 107 -25q17 -28 -51 -119
q-32 -44 -99 -125q102 -102 140.5 -252.5t7.5 -335.5q-43 -255 -163 -428t-315.5 -251.5t-449.5 -47.5q-114 14 -219 60q-24 -32 -39.5 -52.5t-33 -39t-25 -29t-22 -19t-18 -12t-19.5 -5.5t-19 -2t-24 1.5t-28 1.5q-92 2 -102 30zM485 745q-42 -175 9 -301q142 172 260 320
q149 187 288 375q-43 22 -96 28q-91 15 -170 -13t-135 -90t-95.5 -142.5t-60.5 -176.5zM621 303q45 -23 94 -29q186 -31 304 80t155 314q36 195 -9 321q-101 -121 -241 -297q-165 -209 -303 -389z" />
    <glyph glyph-name="Ugrave" unicode="&#xd9;" horiz-adv-x="1521" 
d="M156 541q22 81 69 230.5t56 191.5q28 101 28 143.5t-49 60.5q-42 25 -55 49t-6 76q7 48 22.5 74t58 45t113.5 25t195 6q194 -2 257 -30.5t48 -119.5q-7 -51 -32 -75.5t-93 -61.5q-39 -17 -60.5 -60.5t-58.5 -160.5q-65 -208 -112 -397q-31 -118 16.5 -191.5t183.5 -73.5
q112 0 174.5 58t94.5 164q61 179 131 467q4 15 12 42q29 92 26.5 122.5t-47.5 43.5q-39 16 -54 42.5t-7 78.5q9 64 38.5 95t98.5 44t209 13q176 -2 230.5 -30t37.5 -120q-5 -30 -14 -50t-29 -36t-35.5 -24.5t-52.5 -26.5q-18 -8 -30 -17t-19.5 -16t-15.5 -24t-11.5 -26.5
t-13.5 -40t-16 -48.5q-88 -260 -148 -534q-53 -241 -219 -365.5t-420 -124.5q-306 0 -438.5 158t-62.5 424zM740 1754q1 8 6.5 18t21.5 14.5t43 8t66 3.5h93.5t62 -5t43.5 -8t25.5 -20.5t23 -30t20.5 -47.5l3 -6t2.5 -5.5t2.5 -6.5q5 -13 14 -32t14.5 -30t10 -25.5t3.5 -23
t-7.5 -17.5t-20 -14t-36.5 -8t-56 -3q-58 0 -79.5 -0.5t-54 5.5t-40 9t-29 23t-30 33.5t-35.5 53.5q-8 12 -23 32.5t-22 31t-15 26.5t-7 24z" />
    <glyph glyph-name="Uacute" unicode="&#xda;" horiz-adv-x="1521" 
d="M156 541q22 81 69 230.5t56 191.5q28 101 28 143.5t-49 60.5q-42 25 -55 49t-6 76q7 48 22.5 74t58 45t113.5 25t195 6q194 -2 257 -30.5t48 -119.5q-7 -51 -32 -75.5t-93 -61.5q-39 -17 -60.5 -60.5t-58.5 -160.5q-65 -208 -112 -397q-31 -118 16.5 -191.5t183.5 -73.5
q112 0 174.5 58t94.5 164q61 179 131 467q4 15 12 42q29 92 26.5 122.5t-47.5 43.5q-39 16 -54 42.5t-7 78.5q9 64 38.5 95t98.5 44t209 13q176 -2 230.5 -30t37.5 -120q-5 -30 -14 -50t-29 -36t-35.5 -24.5t-52.5 -26.5q-18 -8 -30 -17t-19.5 -16t-15.5 -24t-11.5 -26.5
t-13.5 -40t-16 -48.5q-88 -260 -148 -534q-53 -241 -219 -365.5t-420 -124.5q-306 0 -438.5 158t-62.5 424zM793 1564q1 8 10.5 22.5t18 25.5t24 29.5t24.5 31.5q6 7 16 21q20 26 28 37t24.5 27t22 21t25.5 12.5t29 8.5t39 3.5t49.5 2.5h65.5q39 0 67 -2t44 -7.5t26 -10.5
t8.5 -15t-4 -18t-16 -22.5t-23.5 -24.5t-29.5 -28.5t-31.5 -30.5q-40 -39 -54 -53.5t-41.5 -34t-36.5 -23t-41.5 -9t-54 -5.5h-75.5q-35 0 -58 3t-36.5 8t-17 14t-2.5 17z" />
    <glyph glyph-name="Ucircumflex" unicode="&#xdb;" horiz-adv-x="1521" 
d="M156 541q22 81 69 230.5t56 191.5q28 101 28 143.5t-49 60.5q-42 25 -55 49t-6 76q7 48 22.5 74t58 45t113.5 25t195 6q194 -2 257 -30.5t48 -119.5q-7 -51 -32 -75.5t-93 -61.5q-39 -17 -60.5 -60.5t-58.5 -160.5q-65 -208 -112 -397q-31 -118 16.5 -191.5t183.5 -73.5
q112 0 174.5 58t94.5 164q61 179 131 467q4 15 12 42q29 92 26.5 122.5t-47.5 43.5q-39 16 -54 42.5t-7 78.5q9 64 38.5 95t98.5 44t209 13q176 -2 230.5 -30t37.5 -120q-5 -30 -14 -50t-29 -36t-35.5 -24.5t-52.5 -26.5q-18 -8 -30 -17t-19.5 -16t-15.5 -24t-11.5 -26.5
t-13.5 -40t-16 -48.5q-88 -260 -148 -534q-53 -241 -219 -365.5t-420 -124.5q-306 0 -438.5 158t-62.5 424zM590 1546.5q-4 22.5 69 82.5q29 28 46 44q45 45 61 60.5t47.5 38.5t43 27t48 11t64 7h88.5h94.5t65 -7t46.5 -11.5t32 -26.5t30.5 -38.5t34.5 -60.5q9 -14 22 -34.5
t19 -30t13 -24t7 -20.5t-3 -14.5t-14 -12t-28 -7.5t-42.5 -5t-61.5 -1q-103 0 -125 5q-38 9 -66 54q-5 7 -10 16q-6 10 -12.5 22t-10 18t-8 12t-9 8t-11.5 2q-8 0 -13 -1.5t-11.5 -7t-11 -10.5t-17.5 -19.5t-23 -25.5q-46 -52 -79 -62.5t-124 -10.5h-30q-117 0 -121 22.5z
" />
    <glyph glyph-name="Udieresis" unicode="&#xdc;" horiz-adv-x="1521" 
d="M156 541q22 81 69 230.5t56 191.5q28 101 28 143.5t-49 60.5q-42 25 -55 49t-6 76q7 48 22.5 74t58 45t113.5 25t195 6q194 -2 257 -30.5t48 -119.5q-7 -51 -32 -75.5t-93 -61.5q-39 -17 -60.5 -60.5t-58.5 -160.5q-65 -208 -112 -397q-31 -118 16.5 -191.5t183.5 -73.5
q112 0 174.5 58t94.5 164q61 179 131 467q4 15 12 42q29 92 26.5 122.5t-47.5 43.5q-39 16 -54 42.5t-7 78.5q9 64 38.5 95t98.5 44t209 13q176 -2 230.5 -30t37.5 -120q-5 -30 -14 -50t-29 -36t-35.5 -24.5t-52.5 -26.5q-18 -8 -30 -17t-19.5 -16t-15.5 -24t-11.5 -26.5
t-13.5 -40t-16 -48.5q-88 -260 -148 -534q-53 -241 -219 -365.5t-420 -124.5q-306 0 -438.5 158t-62.5 424zM599.5 1571q-1.5 13 0.5 22.5t7.5 32.5t8.5 39q2 15 4 35t3 29.5t4.5 22t10.5 17.5t18.5 11.5t31 8.5t46.5 3.5t65 1.5q45 0 73 -1t46.5 -6t26.5 -9t10 -17t0 -22.5
t-7 -32.5t-8 -41t-6 -41t-4 -32.5t-7.5 -22.5t-15.5 -17t-30 -9t-49.5 -6t-73.5 -1q-44 0 -72 1t-46 6.5t-26.5 10t-10 17.5zM1060 1578.5q-1 13.5 1 23t7 29.5t7 34q2 13 3.5 31t2.5 27t5 21.5t10.5 18.5t19 13t31.5 10.5t47 5.5t66 2q44 0 72.5 -1.5t46.5 -7t26.5 -10
t10 -18t-0.5 -22.5t-7.5 -31.5t-8.5 -38.5q-2 -15 -4.5 -37.5t-4 -31.5t-7.5 -22.5t-16 -18t-30 -10.5t-49.5 -7.5t-73.5 -1.5q-43 0 -72.5 2t-46.5 8.5t-25.5 12.5t-9.5 19.5z" />
    <glyph glyph-name="Yacute" unicode="&#xdd;" horiz-adv-x="1585" 
d="M204.5 1258q-1.5 13 0.5 28.5t6 34.5q18 84 84 104.5t270 20.5q160 0 235 -10.5t100 -36t18 -78.5q-4 -34 -18 -56t-30 -32.5t-55 -30.5q-38 -15 -50 -33t-5.5 -62.5t37.5 -141.5q8 -24 16.5 -51.5t14 -44.5t11.5 -36t10 -30t9 -22.5t9 -17.5t9.5 -11t11.5 -7t13 -2
t13.5 2.5t16 11t19 18.5t27 30.5t34.5 41t47.5 56.5t59.5 70q18 21 50 58q40 46 56 66.5t28.5 46.5t1 40t-43.5 26q-44 16 -60 37t-9 66q15 81 79 105t253 24q41 0 69.5 -0.5t58 -2t49 -4.5t38.5 -7.5t30 -11t20 -16t12 -21.5t3 -27.5t-4 -34.5q-7 -37 -15.5 -58.5
t-27.5 -38.5t-33.5 -25t-54.5 -28q-26 -10 -48 -24t-55.5 -48t-54.5 -57.5t-80.5 -93.5t-99.5 -115q-60 -71 -123 -143t-86 -98.5t-47.5 -58.5t-32.5 -50.5t-16 -46.5q-10 -36 -14 -51t-8 -38t-2 -32t7.5 -21.5t17 -18.5t30.5 -11q57 -27 76 -55.5t10 -79.5q-7 -34 -16 -55
t-30.5 -38t-47.5 -25.5t-78.5 -14t-111.5 -7t-157 -1.5q-222 0 -291 26t-51 115q12 53 41 81t92 52q36 16 51.5 29.5t31 46.5t34.5 102q10 36 11 61t-4 54t-25 83.5t-48 125.5q-22 54 -34 86q-13 34 -31 85.5t-26 71.5t-21.5 51t-24.5 45t-27.5 30t-37.5 28q-5 3 -19 11
t-18.5 11.5t-15.5 11t-14 12.5t-9.5 14t-7.5 18.5t-2.5 22.5zM818 1564q1 8 10.5 22.5t18 25.5t24 29.5t24.5 31.5q6 7 16 21q20 26 28 37t24.5 27t22 21t25.5 12.5t29 8.5t39 3.5t49.5 2.5h65.5q39 0 67 -2t44 -7.5t26 -10.5t8.5 -15t-4 -18t-16 -22.5t-23.5 -24.5
t-29.5 -28.5t-31.5 -30.5q-40 -39 -54 -53.5t-41.5 -34t-36.5 -23t-41.5 -9t-54 -5.5h-75.5q-35 0 -58 3t-36.5 8t-17 14t-2.5 17z" />
    <glyph glyph-name="germandbls" unicode="&#xdf;" horiz-adv-x="1359" 
d="M-45 168q11 32 31 62t39 55.5t49 93t61 168.5q35 120 84 335t76 308q57 172 194.5 272.5t333.5 100.5q272 0 394.5 -129t60.5 -334q-15 -48 -43 -83t-59.5 -53.5t-61.5 -33t-54.5 -34t-33.5 -44.5q-11 -39 4.5 -66.5t69.5 -74.5q73 -59 117 -114t65.5 -118t16 -134.5
t-36.5 -158.5q-74 -218 -334 -215q-106 3 -162 62q-12 12 -27.5 29t-22.5 24t-17.5 11.5t-22.5 2.5q-12 -3 -18 -20t-8 -35.5t-16.5 -33t-43.5 -13.5q-40 3 -55 34.5t-25 106.5q-10 108 11 154.5t81 60.5q63 13 96 -4.5t74 -81.5q30 -54 60.5 -77.5t72.5 -28.5
q98 -13 125 69q6 18 6.5 32.5t-6.5 32t-15.5 31.5t-30.5 37t-42 42t-57 53q-57 51 -85 83t-50.5 76.5t-20 95.5t24.5 120q18 57 53 102.5t67 70t62.5 56t40.5 63.5q29 94 -24.5 159t-155.5 65q-141 0 -187 -136q-19 -61 -35 -169.5t-44 -249t-78 -287.5q-33 -93 -47.5 -167
t-21 -130t-17.5 -94q-25 -77 -73 -105t-163 -28q-126 -2 -168.5 42.5t-7.5 141.5z" />
    <glyph glyph-name="agrave" unicode="&#xe0;" 
d="M20 383q5 96 37.5 199.5t90 199.5t131.5 173t169 123t195 46q94 0 144 -22t77 -64q11 -17 25 -43t21.5 -35.5t15.5 -9.5q18 0 31.5 11t21 27.5t20 35.5t27.5 35.5t45.5 27.5t71.5 11q90 0 116 -13.5t25 -64.5q-15 -60 -38.5 -112t-73.5 -155.5t-101 -222.5
q-37 -83 -46 -119t-9 -73q0 -76 71 -76q27 0 58 14.5t43 14.5q48 0 45 -82q-7 -93 -88.5 -166.5t-214.5 -73.5q-142 0 -217 133q-9 17 -20.5 44t-19.5 37t-22 10q-12 0 -20.5 -9t-21.5 -34.5t-23 -40.5q-44 -66 -106 -97.5t-158 -31.5q-166 0 -243 106t-59 297zM370 489
q-2 -55 13.5 -97.5t53 -67.5t93.5 -25q89 0 144 64.5t100 187.5q31 84 35 151.5t-26 111.5t-97 46q-99 4 -181 -73t-114 -181q-19 -62 -21 -117zM574.5 1533q-6.5 21 2.5 32t37 18.5t78 7.5q150 0 182 -19.5t68 -127.5q7 -19 10 -29q6 -17 18 -47t17.5 -44.5t6.5 -35.5
t-10.5 -30.5t-38 -17t-71.5 -7.5h-53.5t-38 6.5t-27.5 9.5t-23 23t-23 32.5t-28 51.5q-15 27 -24 43q-11 19 -32 49.5t-32.5 47t-18 37.5z" />
    <glyph glyph-name="aacute" unicode="&#xe1;" 
d="M20 383q5 96 37.5 199.5t90 199.5t131.5 173t169 123t195 46q94 0 144 -22t77 -64q11 -17 25 -43t21.5 -35.5t15.5 -9.5q18 0 31.5 11t21 27.5t20 35.5t27.5 35.5t45.5 27.5t71.5 11q90 0 116 -13.5t25 -64.5q-15 -60 -38.5 -112t-73.5 -155.5t-101 -222.5
q-37 -83 -46 -119t-9 -73q0 -76 71 -76q27 0 58 14.5t43 14.5q48 0 45 -82q-7 -93 -88.5 -166.5t-214.5 -73.5q-142 0 -217 133q-9 17 -20.5 44t-19.5 37t-22 10q-12 0 -20.5 -9t-21.5 -34.5t-23 -40.5q-44 -66 -106 -97.5t-158 -31.5q-166 0 -243 106t-59 297zM370 489
q-2 -55 13.5 -97.5t53 -67.5t93.5 -25q89 0 144 64.5t100 187.5q31 84 35 151.5t-26 111.5t-97 46q-99 4 -181 -73t-114 -181q-19 -62 -21 -117zM720 1290q0 12 7.5 29.5t16 33.5t20 38.5t18.5 40.5q10 27 18.5 47.5t17.5 38.5t17.5 30t18.5 22.5t20.5 16t23 10.5t27 6.5
t32 3.5t37.5 1t44 0h27q49 0 75 -7.5t34.5 -17t-3 -31t-23 -35.5t-39.5 -46q-11 -12 -17 -19t-16 -18.5t-17 -20.5q-85 -106 -104 -124q-35 -33 -86 -38q-21 -2 -70 -2q-30 0 -48.5 4.5t-24.5 14.5t-6 22z" />
    <glyph glyph-name="acircumflex" unicode="&#xe2;" 
d="M20 383q5 96 37.5 199.5t90 199.5t131.5 173t169 123t195 46q94 0 144 -22t77 -64q11 -17 25 -43t21.5 -35.5t15.5 -9.5q18 0 31.5 11t21 27.5t20 35.5t27.5 35.5t45.5 27.5t71.5 11q90 0 116 -13.5t25 -64.5q-15 -60 -38.5 -112t-73.5 -155.5t-101 -222.5
q-37 -83 -46 -119t-9 -73q0 -76 71 -76q27 0 58 14.5t43 14.5q48 0 45 -82q-7 -93 -88.5 -166.5t-214.5 -73.5q-142 0 -217 133q-9 17 -20.5 44t-19.5 37t-22 10q-12 0 -20.5 -9t-21.5 -34.5t-23 -40.5q-44 -66 -106 -97.5t-158 -31.5q-166 0 -243 106t-59 297zM370 489
q-2 -55 13.5 -97.5t53 -67.5t93.5 -25q89 0 144 64.5t100 187.5q31 84 35 151.5t-26 111.5t-97 46q-99 4 -181 -73t-114 -181q-19 -62 -21 -117zM455.5 1282q-1.5 9 10.5 26t25 32t38 42q11 11 17.5 18t16.5 18.5t19 21.5q35 43 46.5 58t36.5 42t32.5 33t29.5 20t32 15
t37 5.5t47.5 4.5h59.5q130 0 162.5 -22t85.5 -143q4 -9 6 -13q9 -19 21 -41.5t19.5 -36.5t15 -30t10 -25.5t1.5 -20t-8.5 -16t-21 -10.5t-35 -7t-51.5 -2q-39 0 -57 0.5t-41 4t-32.5 9.5t-22 18.5t-20 29.5t-17.5 45q-4 12 -10 30.5t-8 25.5t-7 16t-10 11.5t-13 2.5
q-10 0 -18.5 -8t-28 -33.5t-37.5 -46.5q-59 -74 -94.5 -89.5t-130.5 -15.5q-38 0 -62 3t-33 11t-10.5 17z" />
    <glyph glyph-name="atilde" unicode="&#xe3;" 
d="M20 383q5 96 37.5 199.5t90 199.5t131.5 173t169 123t195 46q94 0 144 -22t77 -64q11 -17 25 -43t21.5 -35.5t15.5 -9.5q18 0 31.5 11t21 27.5t20 35.5t27.5 35.5t45.5 27.5t71.5 11q90 0 116 -13.5t25 -64.5q-15 -60 -38.5 -112t-73.5 -155.5t-101 -222.5
q-37 -83 -46 -119t-9 -73q0 -76 71 -76q27 0 58 14.5t43 14.5q48 0 45 -82q-7 -93 -88.5 -166.5t-214.5 -73.5q-142 0 -217 133q-9 17 -20.5 44t-19.5 37t-22 10q-12 0 -20.5 -9t-21.5 -34.5t-23 -40.5q-44 -66 -106 -97.5t-158 -31.5q-166 0 -243 106t-59 297zM370 489
q-2 -55 13.5 -97.5t53 -67.5t93.5 -25q89 0 144 64.5t100 187.5q31 84 35 151.5t-26 111.5t-97 46q-99 4 -181 -73t-114 -181q-19 -62 -21 -117zM489 1327q11 123 84.5 198.5t198.5 78.5q50 0 92.5 -11.5t100.5 -39.5t67 -31q6 -3 25 -11t25.5 -11t22 -9t24 -8t20.5 -4
t22 -2q33 0 59.5 15.5t40.5 33.5t32.5 33.5t37.5 15.5q22 0 32 -29.5t1 -85.5q-20 -131 -77 -199.5t-169 -68.5q-29 0 -58 8.5t-83.5 30t-105.5 37.5q-10 4 -33 14t-35.5 14.5t-31.5 11t-35.5 9t-32.5 2.5q-33 0 -61.5 -16.5t-45 -37t-35.5 -37t-36 -16.5q-25 0 -38.5 29
t-7.5 86z" />
    <glyph glyph-name="adieresis" unicode="&#xe4;" 
d="M20 383q5 96 37.5 199.5t90 199.5t131.5 173t169 123t195 46q94 0 144 -22t77 -64q11 -17 25 -43t21.5 -35.5t15.5 -9.5q18 0 31.5 11t21 27.5t20 35.5t27.5 35.5t45.5 27.5t71.5 11q90 0 116 -13.5t25 -64.5q-15 -60 -38.5 -112t-73.5 -155.5t-101 -222.5
q-37 -83 -46 -119t-9 -73q0 -76 71 -76q27 0 58 14.5t43 14.5q48 0 45 -82q-7 -93 -88.5 -166.5t-214.5 -73.5q-142 0 -217 133q-9 17 -20.5 44t-19.5 37t-22 10q-12 0 -20.5 -9t-21.5 -34.5t-23 -40.5q-44 -66 -106 -97.5t-158 -31.5q-166 0 -243 106t-59 297zM370 489
q-2 -55 13.5 -97.5t53 -67.5t93.5 -25q89 0 144 64.5t100 187.5q31 84 35 151.5t-26 111.5t-97 46q-99 4 -181 -73t-114 -181q-19 -62 -21 -117zM478 1309.5q2 15.5 6 28t12 36t12 41.5q5 18 9.5 46t7.5 41t13.5 29.5t28.5 23.5t51 12.5t82 5.5q50 0 80 -5.5t44.5 -12.5
t16 -23.5t-2.5 -29.5t-14 -40.5t-15 -46.5t-8.5 -47t-6.5 -40.5t-13 -29.5t-28 -24t-51.5 -12t-83.5 -5q-42 0 -70 3t-43 10.5t-22 15.5t-5 23.5zM921.5 1319.5q2.5 15.5 6 26.5t10 32.5t10.5 36.5q4 16 9 40.5t7.5 36t9.5 28t18.5 24t30.5 15.5t48 11t70 3q42 0 70 -3
t43 -11t21.5 -16t4.5 -23.5t-6 -28t-12 -36t-13 -40.5q-4 -18 -8.5 -47t-7.5 -41t-13 -29t-28 -24t-51 -12t-82 -5q-35 0 -60 3t-41 7t-24.5 13t-11.5 16.5t-0.5 23z" />
    <glyph glyph-name="aring" unicode="&#xe5;" 
d="M20 383q5 96 37.5 199.5t90 199.5t131.5 173t169 123t195 46q94 0 144 -22t77 -64q11 -17 25 -43t21.5 -35.5t15.5 -9.5q18 0 31.5 11t21 27.5t20 35.5t27.5 35.5t45.5 27.5t71.5 11q90 0 116 -13.5t25 -64.5q-15 -60 -38.5 -112t-73.5 -155.5t-101 -222.5
q-37 -83 -46 -119t-9 -73q0 -76 71 -76q27 0 58 14.5t43 14.5q48 0 45 -82q-7 -93 -88.5 -166.5t-214.5 -73.5q-142 0 -217 133q-9 17 -20.5 44t-19.5 37t-22 10q-12 0 -20.5 -9t-21.5 -34.5t-23 -40.5q-44 -66 -106 -97.5t-158 -31.5q-166 0 -243 106t-59 297zM370 489
q-2 -55 13.5 -97.5t53 -67.5t93.5 -25q89 0 144 64.5t100 187.5q31 84 35 151.5t-26 111.5t-97 46q-99 4 -181 -73t-114 -181q-19 -62 -21 -117zM639 1485q20 115 109 185.5t206 70.5q119 0 192.5 -78.5t53.5 -194.5q-18 -115 -107 -186.5t-206 -71.5q-119 0 -192 79
t-56 196zM807 1479q-6 -46 25 -82.5t86 -36.5q50 0 80 29.5t36 78.5q8 51 -23 87t-87 36q-50 0 -80.5 -30t-36.5 -82z" />
    <glyph glyph-name="ccedilla" unicode="&#xe7;" horiz-adv-x="1099" 
d="M31 403q0 91 27.5 189.5t80.5 190.5t122.5 165.5t162 117.5t190.5 44q131 0 195 -90q3 -4 9 -11q29 -34 39 -37q3 -1 7 -1q14 1 23 20t14 41.5t24 41t52 18.5q58 0 79 -39.5t40 -153.5q28 -164 -6 -244.5t-162 -89.5q-74 -4 -113 34.5t-55 117.5q-14 53 -42.5 77.5
t-80.5 24.5q-73 0 -129.5 -52.5t-83.5 -128t-27 -155.5q0 -113 61 -168t167 -57q131 0 233 66q60 30 89 -1.5t3 -86.5q-46 -99 -141 -170.5t-229 -92.5q95 -79 77 -200q-25 -156 -258 -156q-99 -2 -149 26t-37 97q6 48 48.5 78t107.5 35l59 6q30 3 35 28q4 28 -26 49.5
t-93 47.5q-115 29 -192 110q-56 56 -88.5 137t-32.5 172z" />
    <glyph glyph-name="egrave" unicode="&#xe8;" horiz-adv-x="1105" 
d="M27 412q0 104 27 204.5t82 191t131.5 159t184 109t230.5 40.5q215 0 326 -121q76 -85 73 -215q-6 -311 -329 -352q-66 -7 -129 5t-95 27t-76.5 41.5t-48.5 28.5q-22 9 -34 -6t-15 -55q-12 -106 65 -168.5t210 -60.5q140 3 250 79q50 27 80.5 4t13.5 -77
q-18 -55 -54.5 -104t-93.5 -90t-141.5 -65t-185.5 -24q-258 0 -381 162q-90 115 -90 287zM434 725q-7 -39 29.5 -67t87.5 -38t100 -8q64 3 104.5 32.5t41.5 90.5q0 131 -146 131q-81 0 -145 -46t-72 -95zM495 1533q-7 21 2 32t37 18.5t78 7.5q150 0 182 -19.5t68 -127.5
q7 -19 10 -29q5 -15 13.5 -36t14.5 -34.5t10.5 -30t4.5 -27.5t-6 -22t-19.5 -17.5t-37 -10.5t-57.5 -4h-53.5t-38 6.5t-27.5 9.5t-23 23t-23 32.5t-28 51.5q-15 27 -24 43q-11 20 -32.5 50t-32.5 46.5t-18 37.5z" />
    <glyph glyph-name="eacute" unicode="&#xe9;" horiz-adv-x="1105" 
d="M27 412q0 104 27 204.5t82 191t131.5 159t184 109t230.5 40.5q215 0 326 -121q76 -85 73 -215q-6 -311 -329 -352q-66 -7 -129 5t-95 27t-76.5 41.5t-48.5 28.5q-22 9 -34 -6t-15 -55q-12 -106 65 -168.5t210 -60.5q140 3 250 79q50 27 80.5 4t13.5 -77
q-18 -55 -54.5 -104t-93.5 -90t-141.5 -65t-185.5 -24q-258 0 -381 162q-90 115 -90 287zM434 725q-7 -39 29.5 -67t87.5 -38t100 -8q64 3 104.5 32.5t41.5 90.5q0 131 -146 131q-81 0 -145 -46t-72 -95zM640 1290q0 12 7.5 29.5t16 33.5t20 38.5t18.5 40.5q10 27 18.5 47.5
t17.5 38.5t17.5 30t18.5 22.5t20.5 16t23 10.5t27 6.5t32 3.5t37.5 1t44 0h27q49 0 75 -7.5t34.5 -17t-3 -31t-23 -35.5t-39.5 -46q-11 -12 -17 -19t-16 -18.5t-17 -20.5q-85 -106 -104 -124q-35 -33 -86 -38q-21 -2 -70 -2q-30 0 -48.5 4.5t-24.5 14.5t-6 22z" />
    <glyph glyph-name="ecircumflex" unicode="&#xea;" horiz-adv-x="1105" 
d="M27 412q0 104 27 204.5t82 191t131.5 159t184 109t230.5 40.5q215 0 326 -121q76 -85 73 -215q-6 -311 -329 -352q-66 -7 -129 5t-95 27t-76.5 41.5t-48.5 28.5q-22 9 -34 -6t-15 -55q-12 -106 65 -168.5t210 -60.5q140 3 250 79q50 27 80.5 4t13.5 -77
q-18 -55 -54.5 -104t-93.5 -90t-141.5 -65t-185.5 -24q-258 0 -381 162q-90 115 -90 287zM375.5 1282q-1.5 9 10.5 26t25 32t38 42q11 11 17.5 18t16.5 18.5t19 21.5q35 43 46.5 58t36.5 42t32.5 33t29.5 20t32 15t37 5.5t47.5 4.5h59.5q130 0 162.5 -22t85.5 -143
q4 -9 6 -13q9 -19 21 -41.5t19.5 -36.5t15 -30t10 -25.5t1.5 -20t-8.5 -16t-21 -10.5t-35 -7t-51.5 -2q-39 0 -57 0.5t-41 4t-32.5 9.5t-22 18.5t-20 29.5t-17.5 45q-4 13 -9.5 31t-8 25.5t-7 16t-9.5 11t-13 2.5q-10 0 -18.5 -8t-28 -33.5t-37.5 -46.5q-59 -74 -95 -89.5
t-131 -15.5q-38 0 -62 3t-33 11t-10.5 17zM434 725q-7 -39 29.5 -67t87.5 -38t100 -8q64 3 104.5 32.5t41.5 90.5q0 131 -146 131q-81 0 -145 -46t-72 -95z" />
    <glyph glyph-name="edieresis" unicode="&#xeb;" horiz-adv-x="1105" 
d="M27 412q0 104 27 204.5t82 191t131.5 159t184 109t230.5 40.5q215 0 326 -121q76 -85 73 -215q-6 -311 -329 -352q-66 -7 -129 5t-95 27t-76.5 41.5t-48.5 28.5q-22 9 -34 -6t-15 -55q-12 -106 65 -168.5t210 -60.5q140 3 250 79q50 27 80.5 4t13.5 -77
q-18 -55 -54.5 -104t-93.5 -90t-141.5 -65t-185.5 -24q-258 0 -381 162q-90 115 -90 287zM398.5 1309.5q1.5 15.5 5.5 28t12 36t12 41.5q5 18 9.5 46.5t8 40.5t14 29.5t28.5 24t51 12t82 5.5q43 0 71.5 -3t43.5 -11t21.5 -16t4 -23.5t-6.5 -28t-12.5 -36t-13.5 -40.5
q-5 -19 -8.5 -47t-6.5 -41t-12.5 -29.5t-27.5 -23.5t-51.5 -12t-83.5 -5q-42 0 -70 3t-43 10.5t-22 15.5t-5.5 23.5zM434 725q-7 -39 29.5 -67t87.5 -38t100 -8q64 3 104.5 32.5t41.5 90.5q0 131 -146 131q-81 0 -145 -46t-72 -95zM841.5 1319.5q2.5 15.5 6 26.5t10 32.5
t10.5 36.5q4 16 9 40.5t7.5 36t9.5 28t18.5 24t30.5 15.5t48 11t70 3q42 0 70 -3t43 -11t21.5 -16t4.5 -23.5t-6 -28t-12 -36t-13 -40.5q-4 -18 -8.5 -47t-7.5 -41t-13 -29t-28 -24t-51 -12t-82 -5q-35 0 -60 3t-41 7t-24.5 13t-11.5 16.5t-0.5 23z" />
    <glyph glyph-name="igrave" unicode="&#xec;" horiz-adv-x="702" 
d="M35 231q9 172 182 383q78 95 59 140q-10 26 -53 26q-28 0 -53.5 -11.5t-32.5 -10.5q-40 0 -52.5 31.5t7.5 74.5q25 59 92.5 111.5t151 81.5t156.5 28q99 -1 149.5 -49.5t44.5 -132.5q-2 -52 -28 -98.5t-80 -118.5t-89 -133q-51 -82 -72.5 -132t-21.5 -95q0 -27 12 -43.5
t33 -18.5q32 -2 68 15.5t47 17.5q25 0 34.5 -22t6.5 -54q-10 -99 -98.5 -175t-225.5 -75q-114 3 -179 74t-58 186zM298.5 1527q-6.5 21 2.5 32t37 18.5t78 7.5q150 0 182 -19.5t68 -127.5q7 -19 10 -29q6 -17 18 -47t17.5 -44.5t6.5 -35.5t-10.5 -30.5t-38 -17t-71.5 -7.5
h-53.5t-38 6.5t-27.5 9.5t-23 23t-23 32.5t-28 51.5q-15 27 -24 43q-11 19 -32 49.5t-32.5 47t-18 37.5z" />
    <glyph glyph-name="iacute" unicode="&#xed;" horiz-adv-x="702" 
d="M35 231q9 172 182 383q78 95 59 140q-10 26 -53 26q-28 0 -53.5 -11.5t-32.5 -10.5q-40 0 -52.5 31.5t7.5 74.5q25 59 92.5 111.5t151 81.5t156.5 28q99 -1 149.5 -49.5t44.5 -132.5q-2 -52 -28 -98.5t-80 -118.5t-89 -133q-51 -82 -72.5 -132t-21.5 -95q0 -27 12 -43.5
t33 -18.5q32 -2 68 15.5t47 17.5q25 0 34.5 -22t6.5 -54q-10 -99 -98.5 -175t-225.5 -75q-114 3 -179 74t-58 186zM445 1281.5q0 11.5 8 29t16.5 33.5t20 38.5t18.5 40.5q10 27 18.5 47.5t17.5 38.5t17.5 30t18.5 22.5t20.5 16t23 10.5t27 6.5t32 3.5t37.5 1t44 0h27
q49 0 75.5 -6.5t32.5 -19t-0.5 -28t-24.5 -37.5t-38 -44q-36 -38 -52 -59q-85 -106 -104 -124q-35 -33 -86 -38q-21 -2 -70 -2q-30 0 -48.5 4.5t-24.5 14.5t-6 21.5z" />
    <glyph glyph-name="icircumflex" unicode="&#xee;" horiz-adv-x="702" 
d="M35 231q9 172 182 383q78 95 59 140q-10 26 -53 26q-28 0 -53.5 -11.5t-32.5 -10.5q-40 0 -52.5 31.5t7.5 74.5q25 59 92.5 111.5t151 81.5t156.5 28q99 -1 149.5 -49.5t44.5 -132.5q-2 -52 -28 -98.5t-80 -118.5t-89 -133q-51 -82 -72.5 -132t-21.5 -95q0 -27 12 -43.5
t33 -18.5q32 -2 68 15.5t47 17.5q25 0 34.5 -22t6.5 -54q-10 -99 -98.5 -175t-225.5 -75q-114 3 -179 74t-58 186zM179.5 1276.5q0.5 8.5 5.5 18.5t15.5 23t23 27t29.5 32q11 11 17 18t16 18t19 21q44 54 60 74t45 47.5t41 33t43.5 14.5t56 9h76.5q130 0 162.5 -22
t85.5 -143q4 -9 6 -13q10 -20 23.5 -46t21 -40t15 -32t7.5 -27t-4.5 -19t-18.5 -14.5t-37 -7.5t-57 -3q-39 0 -57 0.5t-41 4t-32.5 9.5t-22 18.5t-20 29.5t-17.5 45q-4 13 -9.5 31t-8 25.5t-7 16t-9.5 11t-13 2.5q-10 0 -18.5 -8t-28 -33.5t-37.5 -46.5q-59 -74 -94.5 -89.5
t-130.5 -15.5q-29 0 -49.5 2t-32.5 6t-18 9.5t-5.5 14z" />
    <glyph glyph-name="idieresis" unicode="&#xef;" horiz-adv-x="702" 
d="M35 231q9 172 182 383q78 95 59 140q-10 26 -53 26q-28 0 -53.5 -11.5t-32.5 -10.5q-40 0 -52.5 31.5t7.5 74.5q25 59 92.5 111.5t151 81.5t156.5 28q99 -1 149.5 -49.5t44.5 -132.5q-2 -52 -28 -98.5t-80 -118.5t-89 -133q-51 -82 -72.5 -132t-21.5 -95q0 -27 12 -43.5
t33 -18.5q32 -2 68 15.5t47 17.5q25 0 34.5 -22t6.5 -54q-10 -99 -98.5 -175t-225.5 -75q-114 3 -179 74t-58 186zM201.5 1303.5q1.5 15.5 5.5 28t12 36t12 41.5q5 18 9.5 46.5t8 40.5t14 29.5t28.5 24t51 12t82 5.5q43 0 71.5 -3t43.5 -11t21.5 -16t4 -23.5t-6.5 -28
t-12.5 -36t-13.5 -40.5q-5 -19 -8.5 -47t-6.5 -41t-12.5 -29.5t-27.5 -23.5t-51.5 -12t-83.5 -5q-42 0 -70 3t-43 10.5t-22 15.5t-5.5 23.5zM644.5 1313.5q2.5 15.5 6.5 27t10.5 32.5t10.5 36q4 17 10 46.5t9 41t14.5 29t29 24t50 12t79.5 5.5q42 0 70 -3t43 -11t22 -16
t5 -23.5t-6 -28t-12.5 -36t-12.5 -40.5q-4 -18 -8.5 -47t-7.5 -41t-13.5 -29t-28.5 -23.5t-51 -12t-82 -5.5q-35 0 -60 3t-41 7t-24 13t-11.5 16.5t-1 23z" />
    <glyph glyph-name="eth" unicode="&#xf0;" horiz-adv-x="1220" 
d="M58 199q-80 174 18 475q46 140 131.5 236.5t204.5 140.5q50 19 97 23.5t71 0t41.5 -1.5t23.5 19q3 7 4 13.5t-1.5 14.5t-5.5 14t-9 18.5t-10 21.5q-14 30 -25.5 44t-28 17.5t-32.5 1.5t-50.5 -5t-70.5 -1q-63 3 -77 28t-1 89q10 51 38 64.5t91 8.5q40 -3 58 12t16 44
q3 21 5 28.5t7.5 22t16 21.5t26.5 10q126 21 211 -129q18 -31 36.5 -39t45.5 -2t74 10.5t122 -0.5q74 -5 105.5 -21.5t29 -41t-9.5 -58.5q-11 -51 -41.5 -62.5t-124.5 -9.5q-13 1 -29 2.5t-25 2t-20 1t-17 -1t-12 -4.5t-8.5 -9t-2.5 -15q-1 -17 13 -37.5t47 -64.5t61 -95
q80 -136 91.5 -269.5t-50.5 -312.5q-94 -254 -272.5 -365t-430.5 -61q-251 48 -331 222zM347.5 366q26.5 -89 129.5 -112q107 -24 188 44.5t128 199.5q49 139 22.5 236.5t-127.5 115.5q-105 18 -188 -50t-127 -196q-52 -149 -25.5 -238z" />
    <glyph glyph-name="ntilde" unicode="&#xf1;" horiz-adv-x="1341" 
d="M0 125q0 87 94 156q62 44 98.5 116t63.5 178q29 83 22 128t-57 45q-24 0 -48.5 -14.5t-31.5 -14.5q-36 0 -57.5 23.5t-5.5 78.5q36 120 133 201.5t199 71.5q57 -6 89 -26.5t54 -59.5q10 -19 17 -46t12.5 -40t15.5 -13q15 0 31 11t45.5 40t46.5 44q56 50 118 78t146 28
q142 0 223.5 -73t81.5 -191q0 -37 -8 -72.5t-27 -74.5t-31 -60.5t-42 -67t-37 -57.5q-44 -70 -62 -109.5t-18 -76.5q0 -78 68 -78q23 0 57 17.5t45 17.5q41 0 37 -62q-7 -98 -96 -177t-230 -79q-120 0 -184 63t-64 167q0 53 17.5 108.5t31 81.5t50.5 89q7 12 10 18
q3 5 19 32t20 35t15 31t14.5 37.5t7.5 36t4 43.5q0 39 -26.5 62.5t-65.5 23.5q-41 0 -72.5 -14t-67.5 -50q-73 -76 -125 -223q-42 -108 -53 -195q-1 -36 6 -84t6 -73q-2 -90 -62 -130t-204 -40q-113 0 -168 30t-55 109zM461 1327q11 123 84 198.5t198 78.5q50 0 92.5 -11.5
t101.5 -39.5t67 -31q6 -3 25 -11t25.5 -11t22 -9t24 -8t20.5 -4t22 -2q33 0 59.5 15.5t40.5 33.5t32.5 33.5t37.5 15.5q22 0 32 -29.5t1 -85.5q-20 -131 -77 -199.5t-169 -68.5q-29 0 -58 8.5t-84 30t-106 37.5q-10 4 -33 14t-35.5 14.5t-31.5 11t-35.5 9t-32.5 2.5
q-33 0 -61.5 -16.5t-45 -37t-35.5 -37t-36 -16.5q-25 0 -38 29t-7 86z" />
    <glyph glyph-name="ograve" unicode="&#xf2;" horiz-adv-x="1161" 
d="M66 197q-87 180 2 460q80 257 257 376t435 81q241 -35 329 -204t19 -431q-71 -284 -254 -413.5t-463 -85.5q-238 37 -325 217zM363.5 359q28.5 -92 130.5 -105q103 -14 178.5 63.5t107.5 202.5q38 136 8 226t-124 100q-106 14 -179 -58t-108 -198q-42 -139 -13.5 -231z
M505.5 1533q-6.5 21 2.5 32t37 18.5t78 7.5q150 0 182 -19.5t68 -127.5q7 -19 10 -29q6 -17 18 -47t17.5 -44.5t6.5 -35.5t-10.5 -30.5t-38 -17t-71.5 -7.5h-53.5t-38 6.5t-27.5 9.5t-23 23t-23 32.5t-28 51.5q-15 27 -24 43q-11 19 -32 49.5t-32.5 47t-18 37.5z" />
    <glyph glyph-name="oacute" unicode="&#xf3;" horiz-adv-x="1161" 
d="M66 197q-87 180 2 460q80 257 257 376t435 81q241 -35 329 -204t19 -431q-71 -284 -254 -413.5t-463 -85.5q-238 37 -325 217zM363.5 359q28.5 -92 130.5 -105q103 -14 178.5 63.5t107.5 202.5q38 136 8 226t-124 100q-106 14 -179 -58t-108 -198q-42 -139 -13.5 -231z
M650 1290q0 12 8 29.5t16.5 33.5t20 38.5t18.5 40.5q10 27 18.5 47.5t17.5 38.5t17.5 30t18 22.5t20 16t23 10.5t27 6.5t32 3.5t37.5 1t44 0h27q49 0 75 -7.5t34.5 -17t-3 -31t-23 -35.5t-39.5 -46q-11 -12 -17 -19t-16 -18.5t-17 -20.5q-85 -106 -104 -124q-35 -33 -86 -38
q-21 -2 -70 -2q-30 0 -48.5 4.5t-24.5 14.5t-6 22z" />
    <glyph glyph-name="ocircumflex" unicode="&#xf4;" horiz-adv-x="1161" 
d="M66 197q-87 180 2 460q80 257 257 376t435 81q241 -35 329 -204t19 -431q-71 -284 -254 -413.5t-463 -85.5q-238 37 -325 217zM363.5 359q28.5 -92 130.5 -105q103 -14 178.5 63.5t107.5 202.5q38 136 8 226t-124 100q-106 14 -179 -58t-108 -198q-42 -139 -13.5 -231z
M383.5 1282q-1.5 9 10.5 26t25 32t38 42q11 11 17.5 18t16.5 18.5t19 21.5q35 43 46.5 58t36.5 42t32.5 33t29.5 20t32 15t37 5.5t47.5 4.5h59.5q130 0 162.5 -22t85.5 -143q4 -9 6 -13q9 -19 21 -41.5t19.5 -36.5t15 -30t10 -25.5t1.5 -20t-8.5 -16t-21 -10.5t-35 -7
t-51.5 -2q-39 0 -57 0.5t-41 4t-32.5 9.5t-22 18.5t-20 29.5t-17.5 45q-4 13 -9.5 31t-8 25.5t-7 16t-9.5 11t-13 2.5q-10 0 -18.5 -8t-28 -33.5t-37.5 -46.5q-59 -74 -95 -89.5t-131 -15.5q-38 0 -62 3t-33 11t-10.5 17z" />
    <glyph glyph-name="otilde" unicode="&#xf5;" horiz-adv-x="1161" 
d="M66 197q-87 180 2 460q80 257 257 376t435 81q241 -35 329 -204t19 -431q-71 -284 -254 -413.5t-463 -85.5q-238 37 -325 217zM363.5 359q28.5 -92 130.5 -105q103 -14 178.5 63.5t107.5 202.5q38 136 8 226t-124 100q-106 14 -179 -58t-108 -198q-42 -139 -13.5 -231z
M420 1327q11 123 84 198.5t198 78.5q50 0 92.5 -11.5t101.5 -39.5t67 -31q6 -3 25 -11t25.5 -11t22 -9t24 -8t20.5 -4t22 -2q33 0 59.5 15.5t40.5 33.5t32.5 33.5t37.5 15.5q22 0 32 -29.5t1 -85.5q-20 -131 -77 -199.5t-169 -68.5q-29 0 -58 8.5t-84 30t-106 37.5
q-10 4 -33 14t-35.5 14.5t-31.5 11t-35.5 9t-32.5 2.5q-33 0 -61.5 -16.5t-45 -37t-35.5 -37t-36 -16.5q-25 0 -38 29t-7 86z" />
    <glyph glyph-name="odieresis" unicode="&#xf6;" horiz-adv-x="1161" 
d="M66 197q-87 180 2 460q80 257 257 376t435 81q241 -35 329 -204t19 -431q-71 -284 -254 -413.5t-463 -85.5q-238 37 -325 217zM363.5 359q28.5 -92 130.5 -105q103 -14 178.5 63.5t107.5 202.5q38 136 8 226t-124 100q-106 14 -179 -58t-108 -198q-42 -139 -13.5 -231z
M406.5 1309.5q1.5 15.5 5.5 28t12 36t12 41.5q5 18 9.5 46.5t8 40.5t14 29.5t28.5 24t51 12t82 5.5q43 0 71.5 -3t43.5 -11t21.5 -16t4 -23.5t-6.5 -28t-12.5 -36t-13.5 -40.5q-5 -19 -8.5 -47t-6.5 -41t-12.5 -29.5t-27.5 -23.5t-51.5 -12t-83.5 -5q-42 0 -70 3t-43 10.5
t-22 15.5t-5.5 23.5zM849.5 1319.5q2.5 15.5 6.5 27t10.5 32.5t10.5 36q4 17 10 46.5t9 41t14.5 29t29 24t50 12t79.5 5.5q42 0 70 -3t43 -11t22 -16t5 -23.5t-6 -28t-12.5 -36t-12.5 -40.5q-4 -18 -8.5 -47t-7.5 -41t-13.5 -29t-28.5 -23.5t-51 -12t-82 -5.5q-35 0 -60 3
t-41 7t-24 13t-11.5 16.5t-1 23z" />
    <glyph glyph-name="oslash" unicode="&#xf8;" horiz-adv-x="1196" 
d="M3 -147q-8 28 68 128q28 36 83 105q-102 88 -124 234t40 337q84 257 265.5 376t446.5 81q60 -8 121 -29l1 1v1l1 1l1 1l1 1v1l1 1l1 1v1l1 1l1 1l1 2q78 114 99 132q20 18 55 16h12q15 -1 24 -1q77 -2 86 -23q12 -26 -55 -117l-82 -106q91 -84 114 -218t-24 -302
q-73 -284 -262 -413.5t-478 -85.5q-49 8 -102 24q-27 -39 -41.5 -59.5t-33 -44t-24.5 -33t-20.5 -21t-17 -14t-16 -5.5t-16.5 -2.5t-21 1t-25 0.5q-74 2 -81 27zM373 360l164 213q94 126 192 263q-27 8 -45 10q-109 14 -184.5 -58t-110.5 -198q-42 -144 -16 -230zM483 258
q4 -1 12.5 -2t12.5 -2q106 -14 185 63.5t112 202.5q29 107 16 189q-1 -2 -149 -195q-144 -191 -189 -256z" />
    <glyph glyph-name="ugrave" unicode="&#xf9;" horiz-adv-x="1353" 
d="M57 223q0 32 8 66t15 55.5t29 60t28.5 49.5t36 54.5t31.5 46.5q42 59 56.5 92.5t14.5 69.5q0 27 -16 43t-47 16q-20 0 -44 -11t-34 -11q-65 0 -55 65q19 111 108 197t220 86q121 0 185 -64.5t64 -171.5q0 -55 -18 -111t-35 -87t-55 -93q-60 -89 -60 -167q0 -39 26 -62.5
t67 -23.5q69 0 131 65q65 71 123 246q20 62 28 109.5t6 72t-1 57.5t8 66q20 79 74 117.5t165 38.5q133 0 189 -40t34 -136q-7 -29 -25 -53.5t-38 -41t-45 -51t-43 -78.5q-115 -235 -113 -350q0 -76 62 -76q29 0 56 15.5t38 15.5q56 0 53 -74q-6 -126 -110.5 -196t-249.5 -52
q-52 4 -97 34.5t-67 64.5q-14 21 -26 53t-21 49t-21 17q-17 0 -29.5 -18.5t-30.5 -52.5t-38 -56q-44 -53 -96 -78t-133 -25q-142 0 -225 71.5t-83 186.5zM576.5 1533q-6.5 21 2.5 32t37 18.5t78 7.5q150 0 182 -19.5t68 -127.5q7 -19 10 -29q5 -15 13.5 -36t14.5 -34.5
t10.5 -30t4.5 -27.5t-6 -22t-19.5 -17.5t-37 -10.5t-57.5 -4q-93 0 -118.5 17t-76.5 108q-15 26 -23 41q-11 19 -32 49.5t-32.5 47t-18 37.5z" />
    <glyph glyph-name="uacute" unicode="&#xfa;" horiz-adv-x="1353" 
d="M57 223q0 32 8 66t15 55.5t29 60t28.5 49.5t36 54.5t31.5 46.5q42 59 56.5 92.5t14.5 69.5q0 27 -16 43t-47 16q-20 0 -44 -11t-34 -11q-65 0 -55 65q19 111 108 197t220 86q121 0 185 -64.5t64 -171.5q0 -55 -18 -111t-35 -87t-55 -93q-60 -89 -60 -167q0 -39 26 -62.5
t67 -23.5q69 0 131 65q65 71 123 246q20 62 28 109.5t6 72t-1 57.5t8 66q20 79 74 117.5t165 38.5q133 0 189 -40t34 -136q-7 -29 -25 -53.5t-38 -41t-45 -51t-43 -78.5q-115 -235 -113 -350q0 -76 62 -76q29 0 56 15.5t38 15.5q56 0 53 -74q-6 -126 -110.5 -196t-249.5 -52
q-52 4 -97 34.5t-67 64.5q-14 21 -26 53t-21 49t-21 17q-17 0 -29.5 -18.5t-30.5 -52.5t-38 -56q-44 -53 -96 -78t-133 -25q-142 0 -225 71.5t-83 186.5zM724 1290q0 12 7.5 29.5t16 33.5t20 38.5t18.5 40.5q10 27 18.5 47.5t17.5 38.5t17.5 30t18.5 22.5t20.5 16t23 10.5
t27 6.5t32 3.5t37.5 1t44 0h27q49 0 75 -7.5t34.5 -17t-3 -31t-23 -35.5t-39.5 -46q-11 -12 -17 -19t-16 -18.5t-17 -20.5q-85 -106 -104 -124q-35 -33 -86 -38q-21 -2 -70 -2q-30 0 -48.5 4.5t-24.5 14.5t-6 22z" />
    <glyph glyph-name="ucircumflex" unicode="&#xfb;" horiz-adv-x="1353" 
d="M57 223q0 32 8 66t15 55.5t29 60t28.5 49.5t36 54.5t31.5 46.5q42 59 56.5 92.5t14.5 69.5q0 27 -16 43t-47 16q-20 0 -44 -11t-34 -11q-65 0 -55 65q19 111 108 197t220 86q121 0 185 -64.5t64 -171.5q0 -55 -18 -111t-35 -87t-55 -93q-60 -89 -60 -167q0 -39 26 -62.5
t67 -23.5q69 0 131 65q65 71 123 246q20 62 28 109.5t6 72t-1 57.5t8 66q20 79 74 117.5t165 38.5q133 0 189 -40t34 -136q-7 -29 -25 -53.5t-38 -41t-45 -51t-43 -78.5q-115 -235 -113 -350q0 -76 62 -76q29 0 56 15.5t38 15.5q56 0 53 -74q-6 -126 -110.5 -196t-249.5 -52
q-52 4 -97 34.5t-67 64.5q-14 21 -26 53t-21 49t-21 17q-17 0 -29.5 -18.5t-30.5 -52.5t-38 -56q-44 -53 -96 -78t-133 -25q-142 0 -225 71.5t-83 186.5zM457.5 1282q-1.5 9 10.5 26t25 32t38 42q11 11 17.5 18t16.5 18.5t19 21.5q35 43 46.5 58t36.5 42t32.5 33t29.5 20
t32 15t37 5.5t47.5 4.5h59.5q130 0 162.5 -22t85.5 -143q4 -9 6 -13q9 -19 21 -41.5t19.5 -36.5t15 -30t10 -25.5t1.5 -20t-8.5 -16t-21 -10.5t-35 -7t-51.5 -2q-39 0 -57 0.5t-41 4t-32.5 9.5t-22 18.5t-20 29.5t-17.5 45q-4 12 -10 30.5t-8 25.5t-7 16t-10 11.5t-13 2.5
q-10 0 -18.5 -8t-28 -33.5t-37.5 -46.5q-59 -74 -94.5 -89.5t-130.5 -15.5q-38 0 -62 3t-33 11t-10.5 17z" />
    <glyph glyph-name="udieresis" unicode="&#xfc;" horiz-adv-x="1353" 
d="M57 223q0 32 8 66t15 55.5t29 60t28.5 49.5t36 54.5t31.5 46.5q42 59 56.5 92.5t14.5 69.5q0 27 -16 43t-47 16q-20 0 -44 -11t-34 -11q-65 0 -55 65q19 111 108 197t220 86q121 0 185 -64.5t64 -171.5q0 -55 -18 -111t-35 -87t-55 -93q-60 -89 -60 -167q0 -39 26 -62.5
t67 -23.5q69 0 131 65q65 71 123 246q20 62 28 109.5t6 72t-1 57.5t8 66q20 79 74 117.5t165 38.5q133 0 189 -40t34 -136q-7 -29 -25 -53.5t-38 -41t-45 -51t-43 -78.5q-115 -235 -113 -350q0 -76 62 -76q29 0 56 15.5t38 15.5q56 0 53 -74q-6 -126 -110.5 -196t-249.5 -52
q-52 4 -97 34.5t-67 64.5q-14 21 -26 53t-21 49t-21 17q-17 0 -29.5 -18.5t-30.5 -52.5t-38 -56q-44 -53 -96 -78t-133 -25q-142 0 -225 71.5t-83 186.5zM480.5 1309.5q1.5 15.5 5.5 28t12 36t12 41.5q5 18 9.5 46t7.5 41t13.5 29.5t28.5 23.5t51 12.5t82 5.5q50 0 80 -5.5
t44.5 -12.5t16 -23.5t-2.5 -29.5t-14 -40.5t-15 -46.5t-8.5 -47t-6.5 -41t-12.5 -29.5t-27.5 -23.5t-51.5 -12t-83.5 -5q-42 0 -70 3t-43 10.5t-22 15.5t-5.5 23.5zM923.5 1319.5q2.5 15.5 6 26.5t10 32.5t10.5 36.5q4 16 9 40.5t7.5 36t9.5 28t18.5 24t30.5 15.5t48 11
t70 3q42 0 70 -3t43 -11t21.5 -16t4.5 -23.5t-6 -28t-12 -36t-13 -40.5q-4 -18 -8.5 -47t-7.5 -41t-13 -29t-28 -24t-51 -12t-82 -5q-35 0 -60 3t-41 7t-24.5 13t-11.5 16.5t-0.5 23z" />
    <glyph glyph-name="yacute" unicode="&#xfd;" horiz-adv-x="1185" 
d="M-174 -152q0 96 56 160t147 68q79 3 112 -38t33 -99q0 -27 -5 -49.5t-5 -45.5q0 -28 20 -43.5t52 -13.5q62 0 115 63t61 132q6 31 -7.5 50t-60.5 48q-63 37 -82.5 106t-39.5 272q-3 35 -5 54q-6 48 -10 111.5t-7 92t-14 63t-32 61.5q-38 31 -46 47.5t1 58.5q5 20 11 36
t16.5 29t19 22.5t26.5 17t29 12t37 8t41 5t50 2.5t54.5 1h63.5h7h6h7q137 0 185 -23t36 -91q-4 -24 -15 -43t-18 -26.5t-27 -21.5t-22 -16q-15 -9 -22.5 -16l-15 -14t-9.5 -19t-4.5 -22.5t-1.5 -35t2 -46t3 -65t3 -83.5q7 -210 17 -244q11 -31 35 -32q8 0 15.5 3t17 11.5
t17.5 18.5t23.5 31t29 40.5t39 55.5t48.5 69q37 52 53 77t31.5 63t15.5 73q0 27 -9 46.5t-20.5 30t-33.5 25.5q-34 23 -46.5 45.5t-6.5 71.5q11 75 63 117.5t141 42.5q99 0 150 -56t51 -145q0 -98 -56.5 -204.5t-172.5 -266.5q-79 -106 -137.5 -190.5t-112.5 -167.5
t-84 -127q-126 -184 -241.5 -257t-280.5 -73q-120 -2 -205.5 60t-85.5 173zM652 1290q0 12 8 29.5t16.5 33.5t20 38.5t18.5 40.5q10 27 18.5 47.5t17.5 38.5t17.5 30t18 22.5t20 16t23 10.5t27 6.5t32 3.5t37.5 1t44 0h27q49 0 75 -7.5t34.5 -17t-3 -31t-23 -35.5t-39.5 -46
q-11 -12 -17 -19t-16 -18.5t-17 -20.5q-85 -106 -104 -124q-35 -33 -86 -38q-21 -2 -70 -2q-30 0 -48.5 4.5t-24.5 14.5t-6 22z" />
    <glyph glyph-name="ydieresis" unicode="&#xff;" horiz-adv-x="1185" 
d="M-174 -152q0 96 56 160t147 68q79 3 112 -38t33 -99q0 -27 -5 -49.5t-5 -45.5q0 -28 20 -43.5t52 -13.5q62 0 115 63t61 132q6 31 -7.5 50t-60.5 48q-63 37 -82.5 106t-39.5 272q-3 35 -5 54q-6 48 -10 111.5t-7 92t-14 63t-32 61.5q-38 31 -46 47.5t1 58.5q5 20 11 36
t16.5 29t19 22.5t26.5 17t29 12t37 8t41 5t50 2.5t54.5 1h63.5h7h6h7q137 0 185 -23t36 -91q-4 -24 -15 -43t-18 -26.5t-27 -21.5t-22 -16q-15 -9 -22.5 -16l-15 -14t-9.5 -19t-4.5 -22.5t-1.5 -35t2 -46t3 -65t3 -83.5q7 -210 17 -244q11 -31 35 -32q8 0 15.5 3t17 11.5
t17.5 18.5t23.5 31t29 40.5t39 55.5t48.5 69q37 52 53 77t31.5 63t15.5 73q0 27 -9 46.5t-20.5 30t-33.5 25.5q-34 23 -46.5 45.5t-6.5 71.5q11 75 63 117.5t141 42.5q99 0 150 -56t51 -145q0 -98 -56.5 -204.5t-172.5 -266.5q-79 -106 -137.5 -190.5t-112.5 -167.5
t-84 -127q-126 -184 -241.5 -257t-280.5 -73q-120 -2 -205.5 60t-85.5 173zM408.5 1309.5q1.5 15.5 5.5 28t12 36t12 41.5q5 18 9.5 46.5t8 40.5t14 29.5t28.5 24t51 12t82 5.5q43 0 71.5 -3t43.5 -11t21.5 -16t4 -23.5t-6.5 -28t-12.5 -36t-13.5 -40.5q-5 -19 -8.5 -47
t-6.5 -41t-12.5 -29.5t-27.5 -23.5t-51.5 -12t-83.5 -5q-42 0 -70 3t-43 10.5t-22 15.5t-5.5 23.5zM851.5 1319.5q2.5 15.5 6.5 27t10.5 32.5t10.5 36q4 17 10 46.5t9 41t14.5 29t29 24t50 12t79.5 5.5q42 0 70 -3t43 -11t22 -16t5 -23.5t-6 -28t-12.5 -36t-12.5 -40.5
q-4 -18 -8.5 -47t-7.5 -41t-13.5 -29t-28.5 -23.5t-51 -12t-82 -5.5q-35 0 -60 3t-41 7t-24 13t-11.5 16.5t-1 23z" />
    <glyph glyph-name="OE" unicode="&#x152;" horiz-adv-x="2312" 
d="M75.5 351q-31.5 149 18.5 349q43 160 131.5 299t209.5 241.5t276 161t323 58.5q144 0 238 -30q31 8 96 8q39 0 188 -1.5t285 -1.5t227 3q40 0 98 9t95 9q49 0 71.5 -11.5t39.5 -56t28 -141.5q19 -174 -15 -243.5t-153 -79.5q-43 -4 -66 22t-43 82.5t-34 79.5
q-27 65 -83.5 80.5t-207.5 15.5q-36 0 -60.5 -2t-43.5 -9.5t-30 -15t-21.5 -25.5t-16.5 -33.5t-16 -47.5q-28 -94 -51 -182q-12 -48 5.5 -60t104.5 -12q55 0 81 7.5t37 21t25 49.5q21 48 39 65t58 23q49 7 65 -31.5t11 -117.5q-8 -155 -45 -238t-111 -90q-47 -4 -62.5 12
t-23.5 64q-4 41 -24.5 51t-92.5 10q-97 0 -121 -24.5t-59 -149.5q-4 -13 -6 -20q-35 -128 -33 -160q3 -38 44 -49q34 -9 187 -9q120 0 179 29.5t112 120.5q4 7 12 19q27 43 40.5 62t34 41.5t41.5 30t48 7.5q60 0 88.5 -17t29 -57t-23.5 -98.5t-75 -149.5q-83 -154 -107 -185
q-34 -44 -81 -52q-14 -2 -33 -2q-29 0 -91 10t-122 10q-34 0 -294 2t-392 2q-98 0 -115 6q-132 -33 -252 -33q-287 0 -430 134q-100 91 -131.5 240zM442 643q0 -81 22.5 -149t63 -120t104 -81t140.5 -27q138 2 245 89.5t148 234.5q22 78 25 160t-14.5 158t-53 135.5
t-96.5 95t-139 35.5q-146 0 -261 -100.5t-161 -266.5q-23 -83 -23 -164z" />
    <glyph glyph-name="Ydieresis" unicode="&#x178;" horiz-adv-x="1585" 
d="M204.5 1258q-1.5 13 0.5 28.5t6 34.5q18 84 84 104.5t270 20.5q160 0 235 -10.5t100 -36t18 -78.5q-4 -34 -18 -56t-30 -32.5t-55 -30.5q-38 -15 -50 -33t-5.5 -62.5t37.5 -141.5q8 -24 16.5 -51.5t14 -44.5t11.5 -36t10 -30t9 -22.5t9 -17.5t9.5 -11t11.5 -7t13 -2
t13.5 2.5t16 11t19 18.5t27 30.5t34.5 41t47.5 56.5t59.5 70q18 21 50 58q40 46 56 66.5t28.5 46.5t1 40t-43.5 26q-44 16 -60 37t-9 66q15 81 79 105t253 24q41 0 69.5 -0.5t58 -2t49 -4.5t38.5 -7.5t30 -11t20 -16t12 -21.5t3 -27.5t-4 -34.5q-7 -37 -15.5 -58.5
t-27.5 -38.5t-33.5 -25t-54.5 -28q-26 -10 -48 -24t-55.5 -48t-54.5 -57.5t-80.5 -93.5t-99.5 -115q-60 -71 -123 -143t-86 -98.5t-47.5 -58.5t-32.5 -50.5t-16 -46.5q-10 -36 -14 -51t-8 -38t-2 -32t7.5 -21.5t17 -18.5t30.5 -11q57 -27 76 -55.5t10 -79.5q-7 -34 -16 -55
t-30.5 -38t-47.5 -25.5t-78.5 -14t-111.5 -7t-157 -1.5q-222 0 -291 26t-51 115q12 53 41 81t92 52q36 16 51.5 29.5t31 46.5t34.5 102q10 36 11 61t-4 54t-25 83.5t-48 125.5q-22 54 -34 86q-13 34 -31 85.5t-26 71.5t-21.5 51t-24.5 45t-27.5 30t-37.5 28q-5 3 -19 11
t-18.5 11.5t-15.5 11t-14 12.5t-9.5 14t-7.5 18.5t-2.5 22.5zM624.5 1571q-1.5 13 0.5 22.5t7.5 32t8.5 39.5q2 16 4.5 39.5t3.5 32t7 22t16 18t30 10t48.5 6.5t72.5 1q45 0 73 -1t46.5 -6t26.5 -9t10.5 -17t0.5 -22.5t-7 -33t-8 -40.5t-6 -41t-4 -33t-7.5 -22t-16 -17
t-30.5 -9t-49.5 -6t-73.5 -1q-44 0 -72 1t-46 6.5t-26 10t-9.5 17.5zM1085 1578.5q-1 13.5 1 23t7 29.5t7 34q2 13 4 34t3.5 30.5t7 23t16.5 19t30.5 12t49.5 8.5t73 2q44 0 72.5 -1.5t46.5 -7t26.5 -10t10 -18t-0.5 -22.5t-7.5 -31.5t-8.5 -38.5q-2 -15 -4.5 -37.5
l-3.5 -31.5t-7 -22.5t-16.5 -18t-30 -10.5t-49 -7.5t-73.5 -1.5q-43 0 -72.5 2t-46.5 8.5t-25.5 12.5t-9.5 19.5z" />
    <glyph glyph-name="circumflex" unicode="&#x2c6;" horiz-adv-x="811" 
d="M173.5 1159.5q0.5 8.5 5.5 18.5t15.5 23t23 27t29.5 32q11 11 17 18t16 18t19 21q44 54 60 74t45 47.5t41 33t43.5 14.5t56 9h76.5q129 0 161 -21.5t85 -141.5q2 -3 2.5 -5t2 -5l2.5 -5q9 -19 21 -41.5t19.5 -36.5t15 -30t10 -25.5t1.5 -20t-8.5 -16t-21 -10.5t-35 -7
t-51.5 -2q-39 0 -57 0.5t-41 4t-32.5 9.5t-22 18.5t-20 29.5t-17.5 45q-4 13 -9.5 31t-8 25.5t-7 16t-9.5 11t-13 2.5q-10 0 -18.5 -8t-28 -33.5t-37.5 -46.5q-59 -74 -94.5 -89.5t-130.5 -15.5q-29 0 -49.5 2t-32.5 6t-18 9.5t-5.5 14z" />
    <glyph glyph-name="tilde" unicode="&#x2dc;" horiz-adv-x="923" 
d="M215 1202q11 123 84.5 198.5t200.5 78.5q38 1 77.5 -8.5t63.5 -19.5t63 -29t54 -25q5 -2 25 -11t26 -11.5t21.5 -8.5t24.5 -8t21 -4t23 -2q33 0 59 15.5t39.5 33.5t32 33.5t37.5 15.5q22 0 32 -29t1 -86q-20 -131 -76.5 -198.5t-167.5 -67.5q-31 0 -59.5 8t-85 29.5
t-105.5 36.5q-10 4 -33 14t-35.5 14.5t-31.5 11t-35.5 9t-32.5 2.5q-33 0 -61.5 -16.5t-45 -37t-35.5 -37t-36 -16.5q-25 0 -38 29t-7 86z" />
    <glyph glyph-name="uni2000" unicode="&#x2000;" horiz-adv-x="921" 
 />
    <glyph glyph-name="uni2001" unicode="&#x2001;" horiz-adv-x="1843" 
 />
    <glyph glyph-name="uni2002" unicode="&#x2002;" horiz-adv-x="921" 
 />
    <glyph glyph-name="uni2003" unicode="&#x2003;" horiz-adv-x="1843" 
 />
    <glyph glyph-name="uni2004" unicode="&#x2004;" horiz-adv-x="614" 
 />
    <glyph glyph-name="uni2005" unicode="&#x2005;" horiz-adv-x="460" 
 />
    <glyph glyph-name="uni2006" unicode="&#x2006;" horiz-adv-x="307" 
 />
    <glyph glyph-name="uni2007" unicode="&#x2007;" horiz-adv-x="307" 
 />
    <glyph glyph-name="uni2008" unicode="&#x2008;" horiz-adv-x="230" 
 />
    <glyph glyph-name="uni2009" unicode="&#x2009;" horiz-adv-x="368" 
 />
    <glyph glyph-name="uni200A" unicode="&#x200a;" horiz-adv-x="102" 
 />
    <glyph glyph-name="uni2010" unicode="&#x2010;" horiz-adv-x="753" 
d="M47.5 545.5q0.5 8.5 0 24t2.5 30t7 37.5q6 34 10 54t13 39t15.5 27t24 16t32 9t46.5 2t60 -0.5t80 -2.5t100 -1q65 0 160 3q42 1 59.5 2t42.5 -1.5t32.5 -4t18.5 -11t11 -16.5t0.5 -28t-3 -36.5t-9.5 -50.5q-1 -4 -2 -11q-15 -85 -29 -103q-17 -24 -72 -25q-21 0 -77 2
q-98 4 -169 4q-60 0 -153 -2q-39 -1 -56.5 -1t-44.5 0.5t-36.5 1.5t-25.5 5t-19.5 7.5t-11 12.5t-7 17.5z" />
    <glyph glyph-name="uni2011" unicode="&#x2011;" horiz-adv-x="753" 
d="M47.5 545.5q0.5 8.5 0 24t2.5 30t7 37.5q6 34 10 54t13 39t15.5 27t24 16t32 9t46.5 2t60 -0.5t80 -2.5t100 -1q65 0 160 3q42 1 59.5 2t42.5 -1.5t32.5 -4t18.5 -11t11 -16.5t0.5 -28t-3 -36.5t-9.5 -50.5q-1 -4 -2 -11q-15 -85 -29 -103q-17 -24 -72 -25q-21 0 -77 2
q-98 4 -169 4q-60 0 -153 -2q-39 -1 -56.5 -1t-44.5 0.5t-36.5 1.5t-25.5 5t-19.5 7.5t-11 12.5t-7 17.5z" />
    <glyph glyph-name="figuredash" unicode="&#x2012;" horiz-adv-x="753" 
d="M47.5 545.5q0.5 8.5 0 24t2.5 30t7 37.5q6 34 10 54t13 39t15.5 27t24 16t32 9t46.5 2t60 -0.5t80 -2.5t100 -1q65 0 160 3q42 1 59.5 2t42.5 -1.5t32.5 -4t18.5 -11t11 -16.5t0.5 -28t-3 -36.5t-9.5 -50.5q-1 -4 -2 -11q-15 -85 -29 -103q-17 -24 -72 -25q-21 0 -77 2
q-98 4 -169 4q-60 0 -153 -2q-39 -1 -56.5 -1t-44.5 0.5t-36.5 1.5t-25.5 5t-19.5 7.5t-11 12.5t-7 17.5z" />
    <glyph glyph-name="endash" unicode="&#x2013;" horiz-adv-x="1001" 
d="M57 637q7 36 12 57t16 40.5t19.5 27.5t30.5 15.5t42 8t61.5 1t80 -1.5t107 -3.5t133.5 -1.5q98 0 237 5q169 6 197.5 -13.5t7.5 -134.5q-8 -40 -12.5 -60.5t-14.5 -42t-17.5 -29t-27 -16t-37.5 -8t-55 0t-72 2t-96.5 4t-121.5 1.5q-95 0 -237 -3q-202 -5 -239.5 15
t-13.5 136z" />
    <glyph glyph-name="emdash" unicode="&#x2014;" horiz-adv-x="1257" 
d="M57 637q7 38 12 57.5t16.5 40t21.5 26.5t36.5 13.5t52.5 6.5t77.5 -1t103.5 -3.5t139.5 -5t175.5 -1.5q141 0 332 8q187 8 220 -11t13 -130q-7 -35 -12 -55.5t-12.5 -40.5t-17 -30t-23.5 -18.5t-33 -11t-44.5 -3.5t-59.5 0.5t-77 3.5q-190 10 -335 10q-140 0 -333 -7
q-204 -8 -240.5 12.5t-12.5 139.5z" />
    <glyph glyph-name="quoteleft" unicode="&#x2018;" horiz-adv-x="520" 
d="M135 922q0 131 50 244.5t143 191.5q73 62 140.5 89.5t107 19t42.5 -45.5q2 -29 -15.5 -47t-44 -28t-71 -35.5t-81.5 -61.5q-41 -40 -57 -76.5t-5 -56.5q10 -20 45 -12q76 22 141 -43q39 -39 39 -115q0 -92 -70 -163.5t-184 -71.5q-71 0 -120 49q-60 60 -60 162z" />
    <glyph glyph-name="quoteright" unicode="&#x2019;" horiz-adv-x="522" 
d="M154 731q-2 30 15.5 48.5t44.5 28t71.5 35t81.5 62.5q41 38 56.5 75.5t4.5 57.5q-11 19 -45 11q-78 -20 -141 43q-39 39 -39 114q0 94 70 166t184 72q73 0 121 -51q59 -59 59 -160q0 -132 -50 -246.5t-143 -191.5q-74 -62 -141 -90t-106.5 -19.5t-42.5 45.5z" />
    <glyph glyph-name="quotedblleft" unicode="&#x201c;" horiz-adv-x="1026" 
d="M150 922q0 132 49.5 245.5t142.5 190.5q73 62 141 89.5t107.5 19t42.5 -45.5q2 -29 -15.5 -47t-44.5 -28t-71.5 -35.5t-81.5 -61.5q-41 -40 -57 -76.5t-5 -56.5q10 -20 45 -12q77 22 142 -43q39 -39 39 -115q0 -92 -70 -163.5t-184 -71.5q-72 0 -121 49q-59 59 -59 162z
M655 922q0 131 49.5 244.5t141.5 191.5q74 62 142.5 89.5t108 19t42.5 -45.5q2 -29 -15.5 -47t-44.5 -28t-71.5 -35.5t-81.5 -61.5q-41 -39 -57.5 -76t-6.5 -57q13 -20 47 -12q77 22 142 -43q39 -39 39 -115q0 -92 -70 -163.5t-184 -71.5q-72 0 -121 49q-60 60 -60 162z" />
    <glyph glyph-name="quotedblright" unicode="&#x201d;" horiz-adv-x="1028" 
d="M139 731q-2 30 15.5 48.5t44.5 28t71.5 35t81.5 62.5q41 38 57 75.5t5 57.5q-11 19 -45 11q-79 -20 -142 43q-39 39 -39 114q0 94 70 166t184 72q73 0 121 -51q60 -60 60 -160q0 -132 -50 -246.5t-143 -191.5q-73 -62 -141 -90t-107.5 -19.5t-42.5 45.5zM645 731
q-2 30 15.5 48.5t44 28t71 35t82.5 62.5q41 38 57 75.5t5 57.5q-11 19 -48 11q-77 -19 -139 43q-39 39 -39 114q0 94 69 166t183 72q72 0 123 -51q59 -59 59 -160q0 -132 -49.5 -246.5t-142.5 -191.5q-75 -62 -142.5 -90t-106.5 -19.5t-42 45.5z" />
    <glyph glyph-name="uni202F" unicode="&#x202f;" horiz-adv-x="368" 
 />
    <glyph glyph-name="guilsinglleft" unicode="&#x2039;" horiz-adv-x="790" 
d="M57 442q0 66 20 108t101 126q47 52 69 76t54 55t42 41.5t35.5 25.5t32.5 17t33.5 6t38.5 3t48 -2q18 -1 28 -1q150 -3 176 -13q30 -11 5 -47q-18 -25 -129 -137q-51 -52 -91 -94q-85 -84 -103 -109t-18 -48q0 -25 19.5 -49.5t109.5 -112.5q52 -55 132 -135
q109 -108 101 -126t-166 -21q-23 -1 -36 -1q-18 -1 -49.5 -2.5t-40.5 -2t-32 2t-30.5 6.5t-29.5 16.5t-34.5 26t-40.5 40.5t-52.5 55t-65.5 75q-87 90 -107 128.5t-20 92.5z" />
    <glyph glyph-name="guilsinglright" unicode="&#x203a;" horiz-adv-x="698" 
d="M-74 33q2 5 10 19.5t19 25t34 35t43 43.5q79 78 130 131q90 88 109.5 112.5t19.5 49.5q0 17 -4 27t-30.5 40.5t-86.5 89.5q-43 45 -112 115q-52 52 -72 73t-36.5 46.5t-12 31.5t28.5 14t57 9t100 2h8q10 0 28 1q34 1 48 2t38.5 -3t33 -6t32.5 -17t35.5 -25.5t43 -41.5
t53.5 -55t69 -76q81 -84 101 -126t20 -108q0 -54 -20 -92.5t-107 -128.5q-41 -47 -65.5 -75t-52.5 -55t-40.5 -40.5t-34.5 -26t-29.5 -16.5t-30.5 -6.5t-32 -2t-40.5 2t-49.5 2.5q-13 0 -36 1q-45 0 -64 0.5t-46 3t-35 4t-17 8.5t-7 12z" />
    <glyph glyph-name="uni205F" unicode="&#x205f;" horiz-adv-x="460" 
 />
    <glyph glyph-name="Euro" unicode="&#x20ac;" horiz-adv-x="1622" 
d="M57 573v22.5t2 29.5q1 17 4 29t10.5 19t12.5 11t20.5 5t24 1t33 -1.5t37.5 -2.5q5 0 20 -1t20 -1t16 1t15.5 5t10.5 10.5t8.5 18t3.5 26.5q4 32 -7.5 40t-54.5 8q-23 -1 -41.5 -0.5t-32 4t-22 12t-11.5 24.5t-1 41q6 58 34.5 69.5t123.5 6.5q26 -1 41 -2q26 -1 39.5 2
t22.5 17t14.5 30.5t22 52t38.5 72.5q98 161 266.5 260.5t364.5 92.5q83 -5 159.5 -37t116.5 -84q4 -5 11 -13.5t9 -11.5t7 -8t8 -6l7.5 -2.5t10.5 -1.5q12 0 22 13t19.5 31.5t22.5 36.5t36.5 31t55.5 13q43 -1 63 -36.5t62 -164.5q33 -109 3.5 -175t-110.5 -85
q-25 -7 -46 -8.5t-41.5 5.5t-33.5 12t-34 22.5t-30.5 26.5t-35.5 34q-129 135 -301 141q-143 4 -246 -75.5t-133 -188.5q-5 -27 16.5 -32t94.5 -2q32 1 52 1.5t57.5 0.5t72.5 -1q331 -12 382 -18q75 -10 88 -37q6 -14 5 -37q-2 -51 -19.5 -69.5t-67 -21t-138.5 7.5
q-168 14 -293 18q-41 2 -82 4.5t-66 5t-50 4t-38 2.5t-26 -2t-18 -7t-10.5 -14t-7 -21.5t-3.5 -31.5q-3 -26 7.5 -36.5t33.5 -12.5t75 -1q25 1 74 1t97 -2q57 -2 151 -5q216 -6 270 -18t50 -65q-2 -22 -9.5 -36.5t-24.5 -24t-40.5 -13.5t-61.5 -4t-83.5 2t-109.5 5
q-126 7 -204 10q-23 0 -51 1.5t-42 2.5t-30 0.5t-23.5 -3.5t-14.5 -9.5t-9 -17t-2 -26.5q1 -38 30 -69t78 -50t108 -29.5t124 -12.5q78 -3 146 9t106 26t94 40q70 20 94 -20t-20 -107q-38 -53 -88 -97.5t-121.5 -85.5t-170 -62t-212.5 -17q-235 10 -385.5 128t-191.5 302
q-5 22 -10.5 52t-7.5 38.5t-11.5 20.5t-25 15t-44.5 5h-32t-27 0.5t-21.5 1t-18.5 2t-13 4.5t-10 8.5t-5.5 12t-3.5 16.5z" />
    <glyph glyph-name="uni25FC" unicode="&#x25fc;" horiz-adv-x="1105" 
d="M0 0v1106h1106v-1106h-1106z" />
    </font>
</defs>
</svg>
